<?xml version="1.0" encoding="utf-8"?>
<!-- Generator: Adobe Illustrator 25.4.1, SVG Export Plug-In . SVG Version: 6.00 Build 0)  -->
<svg version="1.1" id="Layer_1" xmlns="http://www.w3.org/2000/svg" xmlns:xlink="http://www.w3.org/1999/xlink" x="0px" y="0px"
	 viewBox="0 0 2946.2 2224.8" style="enable-background:new 0 0 2946.2 2224.8;" xml:space="preserve">
<style type="text/css">
	.st0{fill:#CFD1D2;}
	.st1{display:none;fill:#FFFFFF;}
	.st2{opacity:0.5;fill:#D8E9FF;enable-background:new    ;}
	.st3{fill:#DCEAFB;}
	.st4{fill:#AF3849;}
	.st5{fill:#F44D5E;}
	.st6{fill:#FFFFFF;}
	.st7{fill:#20468F;}
	.st8{fill:#582E89;}
	.st9{fill:url(#SVGID_1_);}
	.st10{fill:#BC0C15;}
	.st11{fill:url(#SVGID_00000083802943560162338850000017849681763996376740_);}
	.st12{fill:#1D3B77;}
	.st13{fill:#187F6B;}
	.st14{fill:#C3D7F2;}
	.st15{fill:#23AB95;}
	.st16{fill:#FFFFFD;}
	.st17{fill:#5477AD;}
	.st18{fill:#721F23;}
	.st19{fill:#CC2F30;}
	.st20{fill:#FF4747;}
	.st21{fill:#122A4F;}
	.st22{fill:#FFA6AA;}
	.st23{fill:#F2949B;}
	.st24{fill:none;stroke:#FF797D;stroke-width:0.9485;stroke-miterlimit:10;}
	.st25{fill:none;}
	.st26{fill:url(#SVGID_00000009588897480464036600000016488778037445320080_);}
	.st27{opacity:0.25;fill:#6B3CD3;enable-background:new    ;}
	.st28{fill:#FF797D;}
	.st29{fill:#29355D;}
	.st30{fill:#677FA5;}
	.st31{fill:#95A7CB;}
	.st32{fill:#838383;}
	.st33{fill:#D8D8D8;}
	.st34{fill:#F1F2F7;}
	.st35{fill:#193B72;}
	.st36{fill:#305EBB;}
	.st37{fill:#C5D8FC;}
	.st38{fill:#9EBEFF;}
	.st39{fill:#F47D5F;}
	.st40{display:none;}
	.st41{opacity:0.78;fill:#CFD1D2;}
	.st42{opacity:0.44;fill:#CFD1D2;}
</style>
<g id="Layer_1_00000013884703298843449830000005401790544479370376_">
	<path class="st0" d="M483.8,397.4c28.9-30.4,205.3-215.8,315.4-168.5c55.9,24,51.5,89.6,112.3,125.3c89.9,52.8,219.3-20,298.1-60.5
		c0,0,143-73.6,565.9-216c416-140.1,1033.9,82.5,1088.6,384.5c33.9,186.7-313.8,263.1-311,509.8c2.7,245.2,332.7,324.9,345.6,531.4
		c16.8,268.6-411.2,660.4-812.2,635c-519.4-32.8-735.2-749.5-1209.6-678.2c-161.6,24.3-238.4,122.8-371.5,73.4
		C308.8,1460.7,241.7,1159,237.6,985C230,664.2,428.3,455.8,483.8,397.4z"/>
	<rect x="511.6" y="173.7" class="st1" width="2184.3" height="1781.6"/>
	<g>
		<g>
			<path class="st2" d="M2656.8,956.7c0,22.1-5.9,42.6-16,59.8c-1,1.6-2,3.2-3,4.8c-4.7,7-10.1,13.4-16.1,19
				c-16.8,15.6-38.3,24.9-61.7,24.9h-290.7c-18.1,0-34.5,8.2-46.4,21.5c-11.9,13.3-19.2,31.7-19.2,52c0,40.6,29.4,73.6,65.6,73.6
				h199.6c22.1,0,42.1,10,56.6,26.3c14.5,16.2,23.5,38.7,23.5,63.5c0,49.6-35.8,89.8-80,89.8h-163.6c-14.2,0-27.1,6.5-36.5,16.9
				c-9.4,10.5-15.1,24.9-15.1,40.9c0,31.9,23.1,57.8,51.6,57.8h75c1.4,0,2.8,0,4.1,0.1c0.3,0,0.6,0,0.8,0c1.3,0.1,2.5,0.1,3.8,0.3
				c0.1,0,0.2,0,0.4,0.1c1.4,0.1,2.9,0.3,4.3,0.6c1.5,0.2,2.9,0.5,4.3,0.8h0.1c1.2,0.3,2.4,0.5,3.6,0.9c0.9,0.2,1.8,0.4,2.8,0.8
				c0.7,0.2,1.4,0.4,2.1,0.6c1.6,0.5,3.1,1,4.7,1.6c0.6,0.2,1.3,0.5,1.9,0.8c1.7,0.7,3.4,1.4,5,2.2c1.4,0.6,2.7,1.3,4,2
				c1.3,0.6,2.5,1.3,3.7,2.1c0.6,0.4,1.2,0.7,1.8,1.1c0.7,0.4,1.4,0.9,2.1,1.3c0.4,0.3,0.8,0.5,1.2,0.9c1,0.7,2.1,1.4,3.1,2.2
				c0.2,0.1,0.3,0.2,0.4,0.3c1.1,0.9,2.3,1.8,3.4,2.7c0.3,0.2,0.6,0.5,0.8,0.7c0.9,0.7,1.7,1.5,2.6,2.3c0.5,0.4,1,0.9,1.5,1.4
				c0.5,0.4,0.9,0.9,1.4,1.3c0.6,0.5,1.1,1.1,1.7,1.7c1,1,1.9,2,2.9,3.1c17.5,19.6,28.3,46.8,28.3,76.7c0,1.6,0,3.2-0.1,4.8
				c0,0.3,0,0.5,0,0.8c-0.1,2.7-0.3,5.4-0.6,8.1c0,0.1,0,0.1,0,0.1c-0.1,0.7-0.2,1.3-0.2,2c-0.5,4-1.2,7.9-2.1,11.7
				c-0.1,0.7-0.3,1.3-0.5,2c-0.2,0.9-0.4,1.8-0.7,2.7c-0.2,0.7-0.4,1.4-0.6,2.1c-1.3,4.3-2.8,8.6-4.5,12.7c-0.5,1.2-1.1,2.4-1.6,3.5
				s-1.1,2.3-1.6,3.4c-0.2,0.4-0.4,0.9-0.6,1.2c-0.6,1.1-1.2,2.2-1.8,3.3c0,0,0,0.1,0,0.1c-0.7,1.3-1.5,2.6-2.3,3.8
				c-0.1,0.1-0.2,0.3-0.3,0.4c-1.5,2.4-3.1,4.7-4.8,6.9c-0.9,1.2-1.8,2.3-2.7,3.5c-0.9,1.2-1.9,2.2-2.8,3.3c-1,1.1-2,2.2-3,3.2
				c-4,4.2-8.4,7.9-13,11.3c-0.2,0.1-0.3,0.2-0.5,0.4c-0.9,0.7-1.9,1.3-2.8,1.9c-1.4,0.9-2.8,1.8-4.3,2.7c-1,0.6-2,1.2-3.1,1.8
				c-1.4,0.7-2.8,1.5-4.3,2.2c-1.1,0.5-2.2,1-3.4,1.5c-1.2,0.5-2.3,1-3.5,1.4c-0.5,0.2-1,0.4-1.5,0.5c-2.6,0.9-5.3,1.8-8.1,2.4
				c-1.1,0.3-2.1,0.5-3.2,0.8c0,0-0.1,0-0.2,0c-1.4,0.3-2.9,0.6-4.3,0.8c-1.4,0.2-2.8,0.4-4.3,0.6c-0.1,0-0.3,0-0.5,0.1
				c-1.2,0.1-2.5,0.2-3.8,0.3c-0.3,0-0.6,0-0.8,0c-1.4,0.1-2.8,0.1-4.1,0.1H797.3c-57.5,0-104.1-52.3-104.1-116.8v-53
				c0-13-4.7-24.8-12.3-33.4c-7.6-8.5-18.2-13.8-29.8-13.8c-20.7,0-37.4-18.8-37.4-42v-31.7c0-23.2,16.8-42,37.4-42h103.5
				c22.1,0,42.1-10,56.6-26.3c14.5-16.2,23.5-38.7,23.5-63.4c0-49.6-35.8-89.8-80-89.8H616.4c-18.1,0-34.5-8.2-46.4-21.5
				c-11.9-13.3-19.2-31.7-19.2-52c0-20.3,7.4-38.7,19.2-52c11.9-13.3,28.2-21.5,46.3-21.5h98.2c21.8,0,41.4-9.9,55.7-25.8
				c14.2-16,23-38.1,23-62.5c0-71.1,51.4-128.7,114.8-128.7h367.6c18.4,0,35.1-8.4,47.2-21.9c12.1-13.5,19.5-32.3,19.5-52.9
				c0-41.3-29.9-74.8-66.7-74.8h-134c-23.2,0-44.3-10.6-59.6-27.7c-15.2-17.1-24.7-40.7-24.7-66.8c0-52.2,37.7-94.5,84.3-94.5
				h1002.6c0.7,0,1.4,0,2.1,0.1c11.4,0.4,22.1,4.5,31,11.2c16,12,26.6,32.5,26.6,55.8V662c0,10.1,3.7,19.2,9.5,25.8
				c5.9,6.6,14.1,10.7,23.1,10.7c13.3,0,25.4,6.1,34.1,15.8c8.7,9.8,14.1,23.3,14.1,38.3c0,51.7,36.6,93.8,82.3,95.5
				c0.9,0,1.9,0.1,2.9,0.1h190C2613.5,848.2,2656.8,896.8,2656.8,956.7z"/>
			<path class="st3" d="M2599,1040.3h22.8c-16.8,15.6-38.3,24.9-61.7,24.9h-290.7c-18.1,0-34.5,8.2-46.4,21.5
				c-11.9,13.3-19.2,31.7-19.2,52c0,40.6,29.4,73.6,65.6,73.6h199.6c22.1,0,42.1,10,56.6,26.3c14.5,16.2,23.5,38.7,23.5,63.5
				c0,49.6-35.8,89.8-80,89.8h-163.6c-14.2,0-27.1,6.5-36.4,16.9c-9.4,10.5-15.1,24.9-15.1,40.9c0,31.9,23.1,57.8,51.6,57.8h75
				c26.7,0,50.9,12.1,68.4,31.8c17.5,19.6,28.3,46.8,28.3,76.7c0,59.9-43.3,108.5-96.8,108.5h-1583c-57.5,0-104.1-52.3-104.1-116.8
				v-53c0-13-4.7-24.8-12.3-33.4c-7.6-8.5-18.2-13.8-29.8-13.8c-20.7,0-37.4-18.8-37.4-42v-31.7c0-23.2,16.8-42,37.4-42h103.5
				c22.1,0,42.1-10,56.6-26.3c14.5-16.2,23.5-38.7,23.5-63.4c0-49.6-35.8-89.8-80-89.8H616.4c-18.1,0-34.5-8.2-46.4-21.5
				c-11.9-13.3-19.2-31.7-19.2-52s7.4-38.7,19.2-52v18.1h35.7V1081l42,0.2v-38.7h8.5v-7.6h1.1v7.6h32.5v0h6.5v-7.7h1.1v7.7h7.8v76.9
				h50.1v28.3h27.8v-16.4h25.8v-65.2h12.9v-30.4h1.9v30.4h30.8v-57h3v57H878v-0.8h0v-7.3h0v-6.9h0v-11.4h0v-7.3h0v-11.4h0v-7.3h0
				v-11.4h0v-7.9h0v-11.4h0v-10h0v-11.4h0v-7.6h6.1v-8.5h1v8.5h45v-8.5h1v8.5h8.2v59.7l5.8,0v0h-0.1v-11.4h0.1v-7.9h-0.1v-11.4h0.1
				v-7.8h-0.1v-11.4h0.1v0h54.6v0h9.4c0.5,0.3,1,0.6,1.5,0.9v76.1h10.1v-11H1136v85.5h35.2V957.2h7.7v-11h1.4v11h27.8v-11h1.4v11
				h39.4v-11h1.4v11h24.8v-11h1.4v11h10.2v147.6h38.9V1081l45.9,0.2v-38.7h9.3v-7.6h1.2v7.6h35.4v0h7.1v-7.7h1.2v7.7h8.6v76.9h54.6
				v28.3h30.4v-16.4h28.2V1066h14.1v-30.4h2.1v30.4h33.7v-57h3.3v57h38.4V965.3h105.6v85.5h32.3V892.7h7v-11h1.2v11h25.5v-11h1.3v11
				h36.1v-11h1.3v11h22.7v-11h1.2v11h9.3v147.6h35.7v-23.9l42,0.2V978h8.5v-7.6h1.1v7.6h32.5v0h6.5v-7.7h1.1v7.7h7.8v76.9h50.1v28.3
				h27.8v-16.4h25.8v-65.2h12.9v-30.4h1.9v30.4h30.8v-57h3v57h20.4v-0.8h0v-7.3h0v-6.9h0v-11.4h0v-7.3h0v-11.4h0v-7.3h0v-11.4h0V930
				h0v-11.4h0v-10h0v-11.4h0v-7.6h6.1v-8.5h1v8.5h45.1v-8.5h0.9v8.5h8.2v59.7l5.8,0v0h-0.1v-11.4h0.1V930h-0.1v-11.4h0.1v-7.8h-0.1
				v-11.4h0.1v0h54.6v0h9.4c0.5,0.3,1,0.6,1.5,0.9v76h10.1v-10.9h115.3v85.5h35.2V892.7h7.7v-11h1.4v11h27.8v-11h1.4v11h39.4v-11
				h1.4v11h24.8v-11h1.4v11h10.2L2599,1040.3L2599,1040.3z"/>
		</g>
		<g>
			<path class="st4" d="M1026,706.6c-0.9,157.9,111.1,287.9,250.2,290.5c6.1,0.1,12.1,0,18.1-0.4c-134.8-8-241.8-135.8-240.9-290.1
				c0.9-150.9,104.7-272.7,235.4-280.8c-3.1-0.2-6.2-0.4-9.3-0.4C1140.5,422.8,1026.9,548.7,1026,706.6z"/>
			<g>
				<path class="st5" d="M1053.5,706.6c-0.9,154.3,106.1,282.1,240.9,290.1c3.1,0.2,6.2,0.4,9.3,0.4
					c139.1,2.5,252.6-123.3,253.5-281.2c0.3-46.5-9.3-90.6-26.4-129.7c-2-4.5-4-8.9-6.1-13.2c-43-86.5-124.1-145.8-217.6-147.5
					c-6.1-0.1-12.1,0-18.1,0.4C1158.1,433.9,1054.3,555.7,1053.5,706.6z"/>
				<path class="st6" d="M1108.8,707.6c-0.7,123.1,86.7,224.6,195.1,226.6c108.5,2,197-96.2,197.7-219.4
					c0.7-123.1-86.7-224.6-195.1-226.6C1198.1,486.2,1109.5,584.5,1108.8,707.6z"/>
				<path class="st5" d="M1163.6,708.6c-0.5,88.8,62.5,161.9,140.7,163.4c78.2,1.4,142.1-69.4,142.6-158.2
					c0.5-88.8-62.5-161.9-140.7-163.4C1228,549,1164.2,619.8,1163.6,708.6z"/>
				<path class="st6" d="M1219,709.6c-0.3,54,38,98.6,85.7,99.4c47.6,0.9,86.5-42.2,86.8-96.3s-38-98.6-85.7-99.4
					C1258.2,612.5,1219.4,655.6,1219,709.6z"/>
				<path class="st5" d="M1266.9,710.5c-0.1,24.1,16.9,43.9,38.1,44.3c21.2,0.4,38.5-18.8,38.6-42.9c0.1-24.1-16.9-43.9-38.1-44.3
					C1284.3,667.2,1267,686.4,1266.9,710.5z"/>
			</g>
			<path class="st7" d="M1312.1,703.2l-12.1-16.4c-1.2-1.6-3.1-2.2-4.8-1.6c-1.7,0.6-3,2.3-3.1,4.4l-0.5,7.3l-249-146.8
				c-2.1-5.2-3.8-10.9-5-17.1c-0.3-1.5-1.1-2.7-2.3-3.4L1002,510c-1.6-1-3.6-0.7-5,0.6c-1.4,1.3-1.9,3.5-1.3,5.4l5.5,18l-16.6,5.7
				c-1.7,0.6-3,2.3-3.2,4.3c-0.2,2,0.8,4,2.4,4.9l33.5,19.6c1.2,0.7,2.5,0.8,3.7,0.2l15.7-5.5l248.7,146.7l-5.1,4.7
				c-1.4,1.3-2,3.4-1.4,5.4c0.5,2,2.1,3.3,3.9,3.5l18.5,1.8c0.1,0,0.3,0,0.4,0c1.6,0,3.1-1,3.9-2.6l7-14
				C1313.5,707,1313.3,704.8,1312.1,703.2z"/>
		</g>
		<g>
			<ellipse class="st8" cx="766.8" cy="1513.9" rx="76.9" ry="86.3"/>
			<g>
				<g>
					<g>
						
							<linearGradient id="SVGID_1_" gradientUnits="userSpaceOnUse" x1="724.338" y1="943.9667" x2="788.6956" y2="782.3246" gradientTransform="matrix(1 0 0 -1 0 2352.6399)">
							<stop  offset="0" style="stop-color:#C900FF"/>
							<stop  offset="1" style="stop-color:#8900AE"/>
						</linearGradient>
						<ellipse class="st9" cx="760" cy="1498.2" rx="76.9" ry="86.3"/>
						<g>
							<path class="st6" d="M741.1,1467.6c-1.3,13.3,6.9,28.8,18.8,30.2c11.8,1.4,22.8-11.7,24.1-25c1.3-13.3-7.4-23.9-19.3-25.3
								C752.9,1446.1,742.4,1454.3,741.1,1467.6z"/>
							<path class="st6" d="M781.6,1552.1l-52.3-6.3c-5.5-0.7-10-5.2-11.1-11.3l-1.9-10.2c-1.4-7.5,2.7-14.9,9.3-16.7
								c22.1-6.2,44-2.4,65.8,8.8c6.1,3.1,8.9,11.1,6.4,18.1l-3,8.7C792.8,1549.1,787.3,1552.8,781.6,1552.1z"/>
						</g>
					</g>
				</g>
			</g>
		</g>
		<g>
			<ellipse class="st10" cx="2344.4" cy="832" rx="76.9" ry="86.3"/>
			<g>
				<g>
					<g>
						
							<linearGradient id="SVGID_00000101789120784248007400000009767585181230406074_" gradientUnits="userSpaceOnUse" x1="2379.0081" y1="1445.9508" x2="2296.6133" y2="1595.7125" gradientTransform="matrix(1 0 0 -1 0 2352.6399)">
							<stop  offset="0" style="stop-color:#F6070C"/>
							<stop  offset="1" style="stop-color:#F95D5E"/>
						</linearGradient>
						
							<ellipse style="fill:url(#SVGID_00000101789120784248007400000009767585181230406074_);" cx="2332.1" cy="821.5" rx="76.9" ry="86.3"/>
						<g>
							<path class="st6" d="M2303.1,803.5c4.1,12.5,17.7,22.3,28.8,17.6c11.2-4.6,15.7-21.9,11.6-34.4s-16.1-17.6-27.3-13
								C2305,778.3,2298.9,791,2303.1,803.5z"/>
							<path class="st6" d="M2372.9,858.9l-49.3,20.5c-5.2,2.2-11,0.3-14.5-4.6l-5.7-8.2c-4.2-6-3.5-14.7,1.7-19.6
								c17.4-16.6,38.5-24.2,62.4-25.1c6.7-0.3,12.4,5.5,13,13l0.8,9.3C2381.7,850.6,2378.3,856.6,2372.9,858.9z"/>
						</g>
					</g>
				</g>
			</g>
		</g>
		<path class="st12" d="M2521.6,1731.2H686c-1.7,0-3-1.5-3-3.4c0-1.9,1.3-3.4,3-3.4h1835.5c1.7,0,3,1.5,3,3.4
			C2524.6,1729.7,2523.2,1731.2,2521.6,1731.2z"/>
		<g>
			<path class="st13" d="M2091,429.2v105.4h-16V429.2c0-17.3-12.5-31.4-28-31.4h16C2078.4,397.8,2091,411.9,2091,429.2z"/>
			<path class="st14" d="M2091,534.7v867.4c0,17.3-12.5,31.4-28,31.4h-16c15.5,0,28-14.1,28-31.4V534.7H2091z"/>
			<path class="st15" d="M2074.9,429.2v105.4h-611V429.2c0-17.3,12.5-31.4,28-31.4h555C2062.4,397.8,2074.9,411.9,2074.9,429.2z"/>
			<path class="st16" d="M2074.9,534.7v867.4c0,17.3-12.5,31.4-28,31.4h-555c-15.5,0-28-14.1-28-31.4V534.7H2074.9z"/>
			<g>
				<g>
					<g>
						<ellipse class="st17" cx="1536.4" cy="647.6" rx="39.7" ry="44.6"/>
						<g>
							<g>
								<path class="st6" d="M1529.9,670.7c-1.5,0-3.1-0.7-4.3-2l-16-17.9c-2.4-2.7-2.4-7,0-9.6c2.4-2.7,6.2-2.7,8.6,0l11.7,13.1
									l24.7-27.7c2.4-2.7,6.2-2.7,8.6,0c2.4,2.7,2.4,7,0,9.6l-29,32.5C1533,670,1531.4,670.7,1529.9,670.7z"/>
							</g>
						</g>
					</g>
					<g>
						<rect x="1597.8" y="620.8" class="st14" width="444.4" height="9.5"/>
						<rect x="1597.8" y="642.9" class="st14" width="444.4" height="9.5"/>
						<rect x="1597.8" y="664.9" class="st14" width="290.4" height="9.5"/>
					</g>
				</g>
				<g>
					<g>
						<ellipse class="st17" cx="1536.4" cy="782.2" rx="39.7" ry="44.6"/>
						<g>
							<g>
								<path class="st6" d="M1529.9,805.2c-1.5,0-3.1-0.7-4.3-2l-16-17.9c-2.4-2.7-2.4-7,0-9.6c2.4-2.7,6.2-2.7,8.6,0l11.7,13.1
									l24.7-27.7c2.4-2.7,6.2-2.7,8.6,0c2.4,2.7,2.4,7,0,9.6l-29,32.5C1533,804.6,1531.4,805.2,1529.9,805.2z"/>
							</g>
						</g>
					</g>
					<g>
						<rect x="1597.8" y="755.4" class="st14" width="444.4" height="9.5"/>
						<rect x="1597.8" y="777.4" class="st14" width="444.4" height="9.5"/>
						<rect x="1597.8" y="799.4" class="st14" width="290.4" height="9.5"/>
					</g>
				</g>
				<g>
					<g>
						<ellipse class="st17" cx="1536.4" cy="916.8" rx="39.7" ry="44.6"/>
						<g>
							<g>
								<path class="st6" d="M1529.9,939.8c-1.5,0-3.1-0.7-4.3-2l-16-17.9c-2.4-2.7-2.4-7,0-9.6c2.4-2.7,6.2-2.7,8.6,0l11.7,13.1
									l24.7-27.7c2.4-2.7,6.2-2.7,8.6,0c2.4,2.7,2.4,7,0,9.6l-29,32.5C1533,939.2,1531.4,939.8,1529.9,939.8z"/>
							</g>
						</g>
					</g>
					<g>
						<rect x="1597.8" y="890" class="st14" width="444.4" height="9.5"/>
						<rect x="1597.8" y="912" class="st14" width="444.4" height="9.5"/>
						<rect x="1597.8" y="934" class="st14" width="290.4" height="9.5"/>
					</g>
				</g>
				<g>
					<g>
						<ellipse class="st17" cx="1536.4" cy="1051.4" rx="39.7" ry="44.6"/>
						<g>
							<g>
								<path class="st6" d="M1529.9,1074.4c-1.5,0-3.1-0.7-4.3-2l-16-17.9c-2.4-2.7-2.4-7,0-9.6c2.4-2.7,6.2-2.7,8.6,0l11.7,13.1
									l24.7-27.7c2.4-2.7,6.2-2.7,8.6,0c2.4,2.7,2.4,7,0,9.6l-29,32.5C1533,1073.7,1531.4,1074.4,1529.9,1074.4z"/>
							</g>
						</g>
					</g>
					<g>
						<rect x="1597.8" y="1024.6" class="st14" width="444.4" height="9.5"/>
						<rect x="1597.8" y="1046.6" class="st14" width="444.4" height="9.5"/>
						<rect x="1597.8" y="1068.6" class="st14" width="290.4" height="9.5"/>
					</g>
				</g>
				<g>
					<g>
						<ellipse class="st17" cx="1536.4" cy="1186" rx="39.7" ry="44.6"/>
						<g>
							<g>
								<path class="st6" d="M1529.9,1209c-1.5,0-3.1-0.7-4.3-2l-16-17.9c-2.4-2.7-2.4-7,0-9.6c2.4-2.7,6.2-2.7,8.6,0l11.7,13.1
									l24.7-27.7c2.4-2.7,6.2-2.7,8.6,0c2.4,2.7,2.4,7,0,9.6l-29,32.5C1533,1208.3,1531.4,1209,1529.9,1209z"/>
							</g>
						</g>
					</g>
					<g>
						<rect x="1597.8" y="1159.2" class="st14" width="444.4" height="9.5"/>
						<rect x="1597.8" y="1181.2" class="st14" width="444.4" height="9.5"/>
						<rect x="1597.8" y="1203.2" class="st14" width="290.4" height="9.5"/>
					</g>
				</g>
				<g>
					<g>
						<ellipse class="st17" cx="1536.4" cy="1320.5" rx="39.7" ry="44.6"/>
						<g>
							<g>
								<path class="st6" d="M1529.9,1343.6c-1.5,0-3.1-0.7-4.3-2l-16-17.9c-2.4-2.7-2.4-7,0-9.6c2.4-2.7,6.2-2.7,8.6,0l11.7,13.1
									l24.7-27.7c2.4-2.7,6.2-2.7,8.6,0c2.4,2.7,2.4,7,0,9.6l-29,32.5C1533,1342.9,1531.4,1343.6,1529.9,1343.6z"/>
							</g>
						</g>
					</g>
					<g>
						<rect x="1597.8" y="1293.8" class="st14" width="444.4" height="9.5"/>
						<rect x="1597.8" y="1315.8" class="st14" width="444.4" height="9.5"/>
						<rect x="1597.8" y="1337.8" class="st14" width="290.4" height="9.5"/>
					</g>
				</g>
			</g>
			<g>
				<g>
					<path class="st6" d="M1613.5,452.5h-12.6v-8.3h34.4v8.3h-12.6v35.9h-9.1L1613.5,452.5L1613.5,452.5z"/>
					<path class="st6" d="M1637.1,466.2c0-13.1,9.1-22.9,21.6-22.9c12.4,0,21.6,9.7,21.6,22.9s-9.2,22.9-21.6,22.9
						C1646.2,489.1,1637.1,479.4,1637.1,466.2z M1671,466.2c0-8.4-5.3-14.2-12.3-14.2s-12.3,5.7-12.3,14.2s5.3,14.2,12.3,14.2
						S1671,474.6,1671,466.2z"/>
					<path class="st6" d="M1686.1,462h15.9v7.9h-15.9V462z"/>
					<path class="st6" d="M1710.2,444.1h17.9c12.9,0,21.7,8.7,21.7,22.1c0,13.4-8.8,22.1-21.7,22.1h-17.9V444.1z M1727.7,480
						c7.8,0,13-5.2,13-13.7c0-8.5-5.1-13.7-13-13.7h-8.3V480L1727.7,480L1727.7,480z"/>
					<path class="st6" d="M1754.2,466.2c0-13.1,9.1-22.9,21.6-22.9c12.4,0,21.6,9.7,21.6,22.9s-9.2,22.9-21.6,22.9
						C1763.4,489.1,1754.2,479.4,1754.2,466.2z M1788.2,466.2c0-8.4-5.3-14.2-12.3-14.2s-12.3,5.7-12.3,14.2s5.3,14.2,12.3,14.2
						S1788.2,474.6,1788.2,466.2z"/>
					<path class="st6" d="M1820.2,444.1h9.1V480h19.8v8.3h-28.9L1820.2,444.1L1820.2,444.1z"/>
					<path class="st6" d="M1854.2,444.1h9.1v44.2h-9.1V444.1z"/>
					<path class="st6" d="M1869.6,484l3.1-7.7c3.3,2.7,8.3,4.6,13,4.6c5.4,0,7.6-2,7.6-4.7c0-8.3-22.9-2.6-22.9-19
						c0-7.5,5.4-13.8,16.6-13.8c5,0,10,1.3,13.7,3.9l-2.8,7.8c-3.7-2.3-7.4-3.5-10.9-3.5c-5.4,0-7.5,2.3-7.5,5.1
						c0,8.1,22.9,2.5,22.9,18.8c0,7.4-5.5,13.7-16.7,13.7C1879.4,489.1,1873.1,487,1869.6,484z"/>
					<path class="st6" d="M1916.2,452.5h-12.6v-8.3h34.4v8.3h-12.6v35.9h-9.1L1916.2,452.5L1916.2,452.5z"/>
				</g>
			</g>
		</g>
		<g>
			<g>
				<g>
					<g>
						<path class="st18" d="M1123.1,1724.5l0.4,0c3.4-0.1,6-3.2,5.7-6.7l-22.6-252.8l-19.7,2l32.4,254.2
							C1119.6,1723.1,1121.2,1724.5,1123.1,1724.5z"/>
					</g>
				</g>
				<g>
					<g>
						<path class="st18" d="M905.7,1724.5l-0.4,0c-3.4-0.1-6-3.2-5.7-6.7l22.6-252.8l19.7,2l-32.4,254.2
							C909.2,1723.1,907.6,1724.5,905.7,1724.5z"/>
					</g>
				</g>
				<g>
					<g>
						<path class="st18" d="M1282.4,1724.5l0.4,0c3.4-0.1,6-3.2,5.7-6.7l-22.6-252.8l-19.7,2l32.4,254.2
							C1278.8,1723.1,1280.5,1724.5,1282.4,1724.5z"/>
					</g>
				</g>
				<path class="st19" d="M912.4,1428.1l-40.1-221.9c-5.1-30,17.1-57.5,45.9-56.8l77.3,2c26.7,0.7,49.8,20.7,57.3,49.4l58.6,227.3
					L912.4,1428.1L912.4,1428.1z"/>
				<path class="st20" d="M936.7,1428.1l-40.1-221.9c-5.1-30,17.1-57.5,45.9-56.8l77.3,2c26.7,0.7,49.8,20.7,57.3,49.4l58.6,227.3
					L936.7,1428.1L936.7,1428.1z"/>
				<path class="st19" d="M917.9,1468.6H1235c3,0,5.5-2.8,5.5-6.2v-28c0-3.4-2.5-6.2-5.5-6.2H912.4v34.3
					C912.4,1465.8,914.9,1468.6,917.9,1468.6z"/>
				<path class="st19" d="M1062.5,1468.6h204c2.4,0,4.4-2.3,4.4-5v-30.5c0-2.8-2-5-4.4-5h-204c-2.4,0-4.4,2.3-4.4,5v30.5
					C1058.1,1466.4,1060.1,1468.6,1062.5,1468.6z"/>
			</g>
			<g>
				<path class="st21" d="M1151.4,916.5c-4.7,6.4-11.5,7.8-16.5,8.4c-0.7,0.1-1.4,0.1-2.1,0.2c-11.1,1-21.6-3.9-22.9-4.6
					c-1.8-0.9-4.9-2.6-9.6-3.7c-3.7-0.9-6.8-1.1-8.9-1.1c0.2,1.3,2.1,12.8-4.9,20.9c-3,3.4-6.3,4.9-8.4,5.5c-1.9-4.1-5.7-6.5-9.3-6
					c-4.9,0.7-8.1,6.5-7.7,11.8c0.3,4.8,3.5,8.9,8,10.3c-1.1,6.8-2.3,13.7-3.4,20.5c-1.8-1.5-3.8-3.5-5.7-6
					c-5-6.5-6.7-13.1-8.9-22.3c-1.9-8.1-4.1-17.1-3.6-29.3c0.4-8.5,0.7-15.8,4.8-23.8c4.7-9.1,11.6-13.6,14.8-15.7
					c2.8-1.8,8.9-5.6,17.5-6.1c4.2-0.3,7.8,0.3,10.7,1.1c0.3-0.2,0.5-0.4,0.8-0.5c7.8-5.1,20.4-7,28,1.1c1.9,2,3.1,4.2,4,6.3
					c3.7-1.7,13.3-5.6,20.6,0.3c5.2,4.2,6.3,11.1,6.7,13.5C1155.6,898.7,1157.1,908.6,1151.4,916.5z"/>
				<path class="st22" d="M1134.9,924.9c-1,8-1.5,14.7-1.9,19.5c-0.9,12.5-0.7,17.2-2.2,24.6c-2,9.4-3.2,15.6-8,21
					c-3.7,4.2-8.2,6.5-12.3,7.6c-5.3,1.5-10,1.2-11.4,1.1c-13.5-0.9-21.9-10.7-23.9-13.1c1,3.3,6.9,22.2,24.7,31.3
					c5.3,2.7,10.4,3.9,14.8,4.3c3,14.7,6.6,28.3,10.4,40.7l-71.9-7.8c4.2-25.1,8.3-50.2,12.5-75.4c1.1-6.8,2.3-13.7,3.4-20.5
					c-4.5-1.3-7.7-5.5-8-10.3c-0.4-5.2,2.8-11.1,7.7-11.8c3.6-0.5,7.3,1.9,9.3,6c2.1-0.7,5.4-2.1,8.4-5.5c7-8.1,5.1-19.6,4.9-20.9
					c2.1,0,5.2,0.2,8.9,1.1c4.7,1.2,7.8,2.8,9.6,3.7c1.3,0.6,11.8,5.6,22.9,4.6C1133.5,925,1134.1,924.9,1134.9,924.9z"/>
				<g>
					<g>
						<path class="st22" d="M1366.2,1114.6c0,2.3-0.3,5.3-2.1,7.4c-2.5,2.8-6,1.6-14.7,1.8c-10.7,0.3-14.6,2.5-16.5,3.7
							c-2.8,1.8-5.9,4.8-5.4,6.2c1,2.5,13.5-2.9,15.5,0.9c0.9,1.8-0.8,4.6-1.6,6c-2.3,3.9-5.7,5.7-9.3,7.4
							c-10.2,4.8-11.7,3.6-16.1,6.5c-4.6,3-5.1,5.7-10.3,12c-5,6.1-9.2,9.4-17.1,15.7c-13.4,10.6-25.7,16-46.6,25
							c-22.7,9.7-28.4,10.1-32.4,10c-12.3-0.4-21.4-5.5-25.6-7.9c-8.7-5-15.3-11.6-20.2-17.9c0-1.4,0.1-2.9,0.1-4.3
							c0.2-14.1,0.3-28.1,0.3-41.9c7.3-3.6,15.3-9,22.7-17.1c1.6-1.7,3-3.4,4.3-5.1c2.5,7.8,6.3,17,12,26.4
							c3.5,5.7,7.1,10.6,10.5,14.6c4.2,1.7,10.5,3.6,18.2,3.7c7.5,0.1,12.7-1.6,26.2-6.7c24.6-9.4,37-14.1,42.3-18.9
							c3.7-3.4,7.2-7.5,16.5-15.8c8.9-7.9,11.5-9.5,13.4-10.4c9.2-4.7,17.6-4.5,21-4.4C1357.7,1111.8,1362.9,1113.3,1366.2,1114.6z"
							/>
						<path class="st23" d="M1306.4,1165.8c-0.2,0.2-0.4,0.5-0.6,0.7c-5,6.1-9.2,9.4-17.2,15.7c-13.4,10.6-25.7,16-46.6,25
							c-22.7,9.7-28.4,10.1-32.4,10c-12.3-0.4-21.4-5.5-25.6-7.9c-8.7-5.1-15.3-11.6-20.2-17.9c0-1.4,0.1-2.8,0.1-4.3
							c0.1-4.7,0.1-9.4,0.1-14.1c1.9,3,4.2,6.2,6.8,9.3c5.1,6.2,14.1,17,27.7,21.5c12.1,3.9,21.8,1,37.7-3.7
							c8.9-2.6,16.4-5.8,41.2-18.8C1285.3,1177.3,1295,1172.1,1306.4,1165.8z"/>
						<path class="st23" d="M1196.5,1136.8C1196.5,1136.8,1196.6,1136.8,1196.5,1136.8c-3.5,4.4-7.8,9-13.1,13.4
							c-6.5,5.4-13.1,9.2-19.2,11.8c0-5.6,0.1-11.2,0.1-16.8c7.3-3.6,15.3-9,22.7-17.1c1.6-1.7,3-3.4,4.3-5.1
							C1192.6,1127.3,1194.4,1131.9,1196.5,1136.8z"/>
					</g>
					<path class="st24" d="M1158,1083c4.6,25.4,6.7,47.3,7.5,64.7"/>
					<path class="st7" d="M974.2,1341.4c-0.1,19.1,4.3,33.1,5.4,36.6c3.4,10.2,7.5,22.7,18.1,32.5c9.4,8.7,19.1,10.8,34,14.2
						c12.7,2.9,23.6,3.4,31.2,3.3h78.6c-11.1,30.4-16,56.3-18.3,75c-3,24.1-2.8,44.8-2.6,82.5c0.2,28.8,1.2,52.7,2.2,69.3
						c2,0.9,4.5,1.8,7.4,2.6c3.9,1.1,8.6,2,14,2.2c5.5,0.2,10.4-0.4,14.5-1.3c2.8-0.6,5.3-1.4,7.2-2.1c5-32.4,10.9-58,15.2-74.7
						c8.2-31.9,12.7-40.4,23.1-81c7.3-28.5,11-47.8,12.6-70.8c0.4-5.2,0.6-10,0.6-14.2c0.4-23.5-3.4-33.6-7.1-40.4
						c-8.7-15.9-24.6-25.4-39.4-32.7c-7.7-3.8-15.8-7-24-9.3c-4.1-1.2-8.2-2.2-12.4-3c-3.6-0.7-8.4-2.3-12-1.8
						c23.5-3.5,48.2,3.9,69.4,15.3c8.2,4.4,16.1,10,21.9,18c8.8,12.3,12.4,28.4,14.2,43.8c0.7,6.4,1.2,12.8,1.2,19.3
						c1.3,1.5,2.7,3.1,3.9,4.8c6.8,9.5,9,19.6,9.8,26.3c0.7,6.7,1.6,13.3,2.8,19.9c5.7,32.5,11.2,65.6,16.4,99.3
						c4.4,27.9,8.5,55.6,12.3,82.9c1.7,0.4,3.6,0.9,5.6,1.2c5,0.9,11.1,1.4,17.9,0.8c3.9-0.3,7.5-1,10.6-1.8
						c2.2-0.6,4.2-1.2,6.1-1.8c1.6-54.3,3-93.8,4-119.8c0.3-7.6,1.5-40.1-1.5-82.1c-1.6-22.4-3.7-37.2-9.4-54
						c-4.2-12.3-9.8-28.2-22.8-42.6c-11.6-12.9-23-18-43.8-27.2c-19.9-8.8-26.7-8.9-54-19.1c-9.8-3.7-18.3-7.2-25.1-10.1
						c-12.6,6.7-31.2,14.7-54.5,18.1c-23.3,3.4-41.1,0.8-67.6-3.1c-15.3-2.2-35.6-6.1-59.4-13.1
						C977.4,1312.5,974.3,1325.6,974.2,1341.4z"/>
					<path class="st21" d="M1122.5,1328.2c3.6-0.5,8.5,1.1,12,1.8c4.2,0.8,8.3,1.8,12.4,3c8.2,2.4,16.2,5.5,24,9.3
						c14.7,7.3,30.7,16.9,39.4,32.7c3.7,6.8,7.5,17,7.1,40.4c3.6,2,7.8,4.9,11.7,9.2c0-6.4-0.5-12.9-1.2-19.3
						c-1.8-15.4-5.4-31.5-14.2-43.8c-5.7-8-13.7-13.6-21.9-18C1170.8,1332.1,1146.1,1324.7,1122.5,1328.2z"/>
					<path class="st22" d="M1280,1659v14.9c2.8,0.3,5.9,0.4,9.1,0.3c7.4-0.1,13.9-1.2,19.4-2.5V1658c-3.2,0.8-6.7,1.5-10.6,1.8
						C1291.1,1660.4,1285,1659.9,1280,1659z"/>
					<line class="st25" x1="1269.2" y1="1723.1" x2="1269.2" y2="1724.5"/>
					<path class="st21" d="M1269.2,1678v32.9c0,6.8,4.9,12.3,10.9,12.3h89.9c5,0,9-5.3,7.7-10.8c0,0,0-0.1,0-0.1
						c-0.9-3.7-3.4-6.1-6.5-8.7c-12.7-10.5-24.7-15.9-29.6-18.2c-5.8-2.7-13.5-6.8-22.5-12.7c-2.6-1.7-5.6-2.3-8.5-1.5
						c-0.7,0.2-1.3,0.3-2.1,0.5c-5.5,1.3-12.1,2.4-19.4,2.5c-3.2,0.1-6.2-0.1-9.1-0.3c-2.1-0.2-4-0.4-5.9-0.7
						C1271.5,1672.8,1269.2,1675.1,1269.2,1678z"/>
					<path class="st21" d="M1109.8,1712c0,0.5,0,0.9,0,1.4c0.2,5.4,4.1,9.8,9,9.8h49c5.3,0,9.4-5.1,8.9-11.1c0-0.2,0-0.4-0.1-0.6
						c-0.5-5.6-2.1-10-5.3-18.5c-3.6-9.5-7.2-17.1-9.9-22.3h-34.7c-6.9,8.8-10.7,17.2-12.8,22.8
						C1111.7,1699.4,1109.8,1704.7,1109.8,1712z"/>
					<path class="st22" d="M1129.9,1670.7h27.7c0.4-4.2,0.7-8.3,1.1-12.5c-4.1,0.9-9,1.5-14.5,1.3c-5.3-0.2-10-1.1-14-2.2
						C1130.1,1661.8,1130,1666.3,1129.9,1670.7z"/>
					
						<linearGradient id="SVGID_00000031182333558861459380000009766726154491531693_" gradientUnits="userSpaceOnUse" x1="1080.0488" y1="1343.1154" x2="1080.0488" y2="1032.647" gradientTransform="matrix(1 0 0 -1 0 2352.6399)">
						<stop  offset="0" style="stop-color:#C591FF"/>
						<stop  offset="1" style="stop-color:#7255FB"/>
					</linearGradient>
					<path style="fill:url(#SVGID_00000031182333558861459380000009766726154491531693_);" d="M1198.2,1118.6
						c-1.6,2.3-3.6,4.8-5.9,7.5c-3.9,4.6-8.9,9.5-15.1,14.2c-4.1,3.1-8,5.5-11.7,7.4c0.3,4.9,0.4,9.4,0.5,13.5c0,1.1,0,2.3,0,3.3
						c0,3.9,0,7.6,0,11.3c-0.1,5.9-0.3,11.7-0.5,17.6c-0.7,19.4-1.8,39.9-1.1,72.4c0.3,14.2,0.8,25.9,1.2,33.5
						c-1.1,0.6-2.3,1.3-3.5,1.9c-12.6,6.7-31.2,14.7-54.5,18.1c-3.3,0.5-6.5,0.8-9.6,1.1c-1,0.1-2,0.1-3,0.2
						c-0.9,0.1-1.9,0.1-2.8,0.1c-0.3,0-0.5,0-0.8,0c-8.1,0.3-15.9-0.1-24.1-1c0,0,0,0,0,0c-2.8-0.3-5.6-0.6-8.5-1
						c-5.8-0.7-12-1.7-18.7-2.6c-10.5-1.5-23.4-3.8-38.1-7.4c-2.7-0.7-5.4-1.4-8.2-2.1c-4.2-1.1-8.6-2.3-13-3.6
						c-1.1-0.3-2.3-0.7-3.5-1c-1.2-0.4-2.4-0.7-3.5-1.1c2.6-21,5.8-43.1,9.7-66.1c0.1-0.7,0.2-1.4,0.4-2.2
						c2.5-14.2,5.2-28.8,8.2-43.7c0.3-1.3,0.5-2.6,0.8-3.9v0c1.1-5.4,2.2-10.7,3.4-15.9c0.2-0.7,0.3-1.4,0.5-2.1c0,0,0-0.1,0-0.1v0
						c0,0,0,0,0-0.1c0.3-1.2,0.5-2.3,0.8-3.4c0-0.1,0-0.1,0-0.2c1-4.4,2-8.8,3-13.1c1-4.3,2-8.6,3.1-12.9c-2.9-1.1-6-2.4-9.1-3.9
						c-0.8-0.4-1.6-0.8-2.4-1.2c0,0,0-0.1,0-0.1c-0.9-0.5-1.8-1-2.7-1.5c-0.6-0.4-1.2-0.7-1.8-1.2c-4.6-2.8-9.1-6.3-13.5-10.6
						c-2.9-2.8-5.4-5.6-7.7-8.5c-0.4-0.5-0.8-1-1.1-1.4c-0.4-0.5-0.7-1-1.1-1.4h0c-0.8-1-1.5-2.1-2.2-3.2c3-7,6.2-14.2,9.6-21.4
						c6.9-14.6,14-28.2,21.1-40.8c3.3-5.7,7.7-10.5,12.9-13.9c5.1-3.4,11.3-6.9,18.6-9.9c11.9-5,23.1-7.3,33.1-8.1
						c3.5,8.8,10.7,22.5,24.6,31.2c6.6,4.2,18.9,12,29.8,6.2c7.9-4.2,13.3-14.4,14.5-27.1c8.2,3.2,13.8,6.2,15.9,7.5
						c7.4,4.1,13.6,8.5,18.9,12.6c5.6,4.4,10,10.4,12.8,17.3C1181.9,1078.3,1190,1098.4,1198.2,1118.6z"/>
					<path class="st27" d="M973.5,1301.1c2.4,0.7,4.7,1.4,7,2.1c23.8,7,44.1,10.8,59.4,13.1c22.7,3.3,39.1,5.8,58,4.2
						c-19.4-14.7-35.6-18.7-47.8-19.1c-12.1-0.5-24.7,2.4-37-6.8c-11.3-8.6-15.4-22.3-17.4-28.8c-5.1-16.9-2.8-32.5,2.2-62.9
						c4.2-26.1,6.4-39.2,10.9-49.8c6-14,13.8-24.1,11.7-38.6c-1.1-7.9-4.1-13.8-6.4-17.6c-3.6,13-7.2,26.6-10.6,40.7
						c-4,16.6-8,33.7-11.6,51.6C983.7,1228.8,977.8,1266.3,973.5,1301.1z"/>
					<g>
						<path class="st22" d="M953.8,1207.1c4.6,9.7,11.7,16.9,19.9,22.4c3,2,6.2,3.9,9.5,5.5c7.4,3.8,15.2,6.6,22.7,8.9
							c24.3,7.7,51.3,9.3,75.3-1c4.7-2.1,8.8-4.3,14.2-3.3c5.2,1,5.5,3.8,12.4,7.2c3,1.4,10.8,5.2,20,3.3c2.8-0.6,5.2-1.5,7.2-2.6
							c1.9-1,3.5-2.1,4.8-3.1c-0.6-0.7-1.5-1.7-2.5-2.8c-0.7-0.8-1.4-1.5-2.1-2.1c-5.3-5.2-10.1-8.4-13.1-10.3
							c-2.7-1.7-9-5.6-16.8-8.4c-3.8-1.4-7-2.1-10-2.6c0,0,0,0,0,0c-1.9-0.3-3.8-0.5-5.6-0.5c-0.9-0.1-1.8-0.1-2.6-0.1h-0.4
							c-4.4-0.1-9,0-15-0.7c-0.5-0.1-1.1-0.1-1.6-0.2c-2.3-0.4-4.7-1-7.5-1.8c-1.4-0.4-2.9-0.9-4.4-1.5c-7.1-2.6-16.2-6.4-29-11.8
							c0,0-1.2-0.5-3.1-1.4c-0.5-0.2-1-0.5-1.6-0.8c-0.6-0.3-1.2-0.6-1.8-1c-1.5-0.8-3.2-1.8-5-2.8c-3.4-2.1-7.2-4.6-10.6-7.5
							c-0.4-0.3-0.7-0.6-1.1-1c-1.8-1.6-3.4-3.3-4.8-5.1c-0.2-0.2-0.3-0.5-0.5-0.7c0,0-0.1-0.1-0.1-0.1c-0.3-0.4-0.5-0.7-0.8-1.1
							c-0.1-0.2-0.2-0.3-0.3-0.5c-0.3-0.4-0.5-0.8-0.7-1.1c-0.2-0.4-0.4-0.7-0.6-1.1c-1-2-1.5-3.9-1.6-5.6c-0.1-1.3-0.1-2.6,0-3.8
							c0-0.3,0.1-0.5,0.1-0.8c0,0,0-0.1,0-0.1c0.2-1.3,0.4-2.4,0.7-3.4l0.1-0.2v-0.1c2-8.8,4-17.5,6.1-26c-3.7-1.4-7.6-3.1-11.5-5.2
							c-0.7-0.7-1.6-1.1-2.6-1.5c-5.2-3.1-10.4-6.9-15.4-11.7c-3.8-3.7-7.1-7.6-9.8-11.3c0,0,0,0,0,0l-0.5-0.4
							c-0.9,2.9-1.8,5.7-2.6,8.3c-2.4,7.8-4.3,14.8-5.7,20.8C949.7,1158.7,943.5,1185.5,953.8,1207.1z"/>
						<path class="st23" d="M991.9,1145c-0.6,2.6-4,16.6-3.3,26.3c0.4,5.6,2.1,10.2,4,14c1.4,2.7,2.9,5,4.2,6.9
							c12.3,18.3,34,22.6,49.2,25.4c11,2,28,3.9,49.2,0.7c-1.9-0.3-3.8-0.5-5.6-0.5c-0.9-0.1-1.8-0.1-2.6-0.1h-0.4
							c-4.4-0.1-9,0-15-0.7c-0.5-0.1-1.1-0.1-1.6-0.2c-2.3-0.4-4.7-1-7.5-1.8c-1.4-0.4-2.9-0.9-4.4-1.5c-7.1-2.6-16.2-6.4-29-11.8
							c0,0-1.2-0.5-3.1-1.4c-0.5-0.2-1-0.5-1.6-0.8c-0.6-0.3-1.2-0.6-1.8-1c-4.4-2.4-10.5-5.9-15.6-10.3c-0.4-0.3-0.7-0.6-1.1-1
							c-1.8-1.6-3.4-3.3-4.9-5.1c-0.2-0.2-0.3-0.5-0.5-0.7c0,0-0.1-0.1-0.1-0.1c-0.3-0.4-0.5-0.7-0.8-1.1c-0.1-0.2-0.2-0.3-0.3-0.5
							c-0.3-0.4-0.5-0.8-0.7-1.1c-0.2-0.4-0.4-0.7-0.6-1.1c-1-2-1.5-3.9-1.6-5.6c-0.1-1.3-0.1-2.6,0-3.8c0-0.3,0.1-0.6,0.1-0.9
							c0.2-1.3,0.4-2.4,0.7-3.4l0.1-0.2v-0.1c2-8.8,4-17.5,6.1-26c-3.7-1.4-7.6-3.1-11.5-5.2c0.6,0.5,1.2,1.2,1.5,2
							C994.5,1136.8,993.5,1138.6,991.9,1145z"/>
						<path class="st23" d="M961.1,1115.7c3,3.8,7.2,7.9,12.8,10.6c6.2,3,11.8,3.2,15.5,4.6c-5.2-3.1-10.4-6.9-15.4-11.7
							c-3.8-3.7-7.1-7.6-9.8-11.3c0,0,0,0,0,0l-0.5-0.4C962.7,1110.3,961.9,1113,961.1,1115.7z"/>
					</g>
				</g>
				<path class="st22" d="M1126.1,1020.8c-1.2,12.7-6.5,22.9-14.5,27.1c-11,5.7-23.3-2.1-29.8-6.2c-13.9-8.8-21.1-22.5-24.6-31.2
					c11.3-0.9,21.1,0,28.9,0.8C1102.5,1012.9,1116.2,1017,1126.1,1020.8z"/>
				<path class="st28" d="M1114.8,1021.2c-4.4-0.4-9.5-1.6-14.8-4.3c-17.8-9.1-23.7-28-24.7-31.3c2,2.4,10.4,12.2,23.9,13.1
					c1.4,0.1,6.1,0.4,11.4-1.1c0.9,6,1.9,12.1,3.2,18.4C1114.1,1017.7,1114.4,1019.4,1114.8,1021.2z"/>
			</g>
			<g>
				<g>
					<g>
						<rect x="830.8" y="1251.4" class="st29" width="792.8" height="49.9"/>
					</g>
					<g>
						<g>
							<g>
								<polygon class="st30" points="1098.1,1301.3 1094,1327 1067.5,1327 1070.6,1301.3 								"/>
							</g>
							<g>
								<polygon class="st31" points="1094,1327 1030.3,1724.5 1020.4,1724.5 1067.5,1327 								"/>
							</g>
							<g>
								<polygon class="st30" points="955.9,1301.3 951.8,1327 925.3,1327 928.4,1301.3 								"/>
							</g>
							<g>
								<polygon class="st31" points="951.8,1327 888.1,1724.5 878.2,1724.5 925.3,1327 								"/>
							</g>
						</g>
						<g>
							<g>
								<polygon class="st30" points="1387,1327 1360.5,1327 1356.4,1301.3 1383.9,1301.3 								"/>
							</g>
							<g>
								<polygon class="st31" points="1434.1,1724.5 1424.2,1724.5 1360.5,1327 1387,1327 								"/>
							</g>
							<g>
								<polygon class="st30" points="1529.2,1327 1502.7,1327 1498.6,1301.3 1526.1,1301.3 								"/>
							</g>
							<g>
								<polygon class="st31" points="1576.3,1724.5 1566.4,1724.5 1502.7,1327 1529.2,1327 								"/>
							</g>
						</g>
					</g>
				</g>
			</g>
			<g>
				<path class="st32" d="M1488.9,1235.2c0,4.5-1.6,8.5-4.2,11.5c-2.6,2.9-6.2,4.7-10.2,4.7h-65.2c4,0,7.6-1.8,10.2-4.7
					c2.6-2.9,4.2-7,4.2-11.5H1488.9z"/>
				<path class="st32" d="M1424.5,1235.2c0,4.5-1.6,8.5-4.2,11.5c-2.6,2.9-6.2,4.7-10.2,4.7h-200.9c-8,0-14.4-7.3-14.4-16.2H1424.5z
					"/>
				<path class="st33" d="M1511.8,1071.2h-197.4c-2.9,0-5.5,2.3-6.1,5.5l-29.6,158.5h210.2l27.1-145l2-10.7
					C1518.8,1075.2,1515.8,1071.2,1511.8,1071.2z"/>
				
					<ellipse transform="matrix(0.5596 -0.8288 0.8288 0.5596 -337.1862 1671.9148)" class="st34" cx="1404.6" cy="1153.2" rx="13.2" ry="10.4"/>
			</g>
		</g>
		<g>
			<path class="st35" d="M2028.4,1724.1c4.6,0.3,9.2,0.4,13.9,0.4c148.6,0,269.5-135.6,269.5-302.3c0-166.7-120.9-302.3-269.5-302.3
				c-4.6,0-9.2,0.1-13.9,0.4c142,8.3,255.3,140.5,255.3,301.9C2283.8,1583.5,2170.4,1715.8,2028.4,1724.1z"/>
			<g>
				<path class="st36" d="M1744.7,1422.2c0,166.6,120.9,302.3,269.5,302.3c4.6,0,9.2-0.1,13.9-0.4h0.3
					c142-8.3,255.3-140.6,255.3-301.9c0-161.3-113.3-293.5-255.3-301.9h-0.3c-4.6-0.3-9.2-0.4-13.9-0.4
					C1865.6,1120,1744.7,1255.6,1744.7,1422.2z"/>
				<path class="st37" d="M1810.2,1288c42.3-71.7,114.9-118.9,197.3-118.9c130.6,0,236.5,118.8,236.5,265.3
					c0,49-11.9,94.9-32.5,134.3c24.8-41.9,39.2-92.3,39.2-146.4c0-146.5-105.9-265.3-236.5-265.3
					C1927.3,1157,1851.3,1209.6,1810.2,1288z"/>
				<path class="st6" d="M1777.7,1422.2c0,146.5,105.9,265.3,236.5,265.3c82.4,0,155-47.2,197.3-118.9
					c20.7-39.4,32.5-85.3,32.5-134.3c0-146.5-105.9-265.3-236.5-265.3c-82.4,0-155,47.2-197.3,118.9
					C1789.5,1327.4,1777.7,1373.3,1777.7,1422.2z"/>
				<path class="st38" d="M2013,1213.2h2.4c1,0,1.8-0.9,1.8-2.1v-34.8c0-1.1-0.8-2.1-1.8-2.1h-2.4c-1,0-1.8,0.9-1.8,2.1v34.8
					C2011.1,1212.2,2012,1213.2,2013,1213.2z"/>
				<path class="st38" d="M2105.8,1240.1l3.1,2c0.6,0.4,1.3,0.1,1.7-0.5l16.1-31.4c0.3-0.7,0.1-1.5-0.4-1.8l-3.1-2
					c-0.6-0.4-1.3-0.1-1.7,0.5l-16.1,31.4C2105,1238.9,2105.2,1239.8,2105.8,1240.1z"/>
				<path class="st38" d="M2174.7,1315.9l1.8,3.5c0.3,0.7,1.1,0.9,1.7,0.5l28-18.1c0.6-0.4,0.8-1.2,0.4-1.8l-1.8-3.5
					c-0.3-0.7-1.1-0.9-1.7-0.5l-28,18.1C2174.6,1314.4,2174.4,1315.3,2174.7,1315.9z"/>
				<path class="st38" d="M2200.7,1420.9v2.6c0,1.1,0.8,2.1,1.8,2.1h31c1,0,1.8-0.9,1.8-2.1v-2.6c0-1.1-0.8-2.1-1.8-2.1h-31
					C2201.5,1418.8,2200.7,1419.7,2200.7,1420.9z"/>
				<path class="st38" d="M2176.6,1525l-1.8,3.5c-0.3,0.7-0.1,1.5,0.4,1.8l28,18.1c0.6,0.4,1.3,0.1,1.7-0.5l1.8-3.5
					c0.3-0.7,0.1-1.5-0.4-1.8l-28-18.1C2177.7,1524.1,2176.9,1524.3,2176.6,1525z"/>
				<path class="st38" d="M2109.1,1602.3l-3.1,2c-0.6,0.4-0.8,1.2-0.4,1.8l16.1,31.4c0.3,0.7,1.1,0.9,1.7,0.5l3.1-2
					c0.6-0.4,0.8-1.2,0.4-1.8l-16.1-31.4C2110.4,1602.1,2109.6,1601.9,2109.1,1602.3z"/>
				<path class="st38" d="M2015.5,1631.3h-2.4c-1,0-1.8,0.9-1.8,2.1v34.8c0,1.1,0.8,2.1,1.8,2.1h2.4c1,0,1.8-0.9,1.8-2.1v-34.8
					C2017.3,1632.2,2016.5,1631.3,2015.5,1631.3z"/>
				<path class="st38" d="M1922.6,1604.4l-3.1-2c-0.6-0.4-1.3-0.1-1.7,0.5l-16.1,31.4c-0.3,0.7-0.1,1.5,0.4,1.8l3.1,2
					c0.6,0.4,1.3,0.1,1.7-0.5l16.1-31.4C1923.4,1605.6,1923.2,1604.7,1922.6,1604.4z"/>
				<path class="st38" d="M1853.7,1528.6l-1.8-3.5c-0.3-0.7-1.1-0.9-1.7-0.5l-28,18.1c-0.6,0.4-0.8,1.2-0.4,1.8l1.8,3.5
					c0.3,0.7,1.1,0.9,1.7,0.5l28-18.1C1853.8,1530.1,1854,1529.2,1853.7,1528.6z"/>
				<path class="st38" d="M1827.8,1423.6v-2.6c0-1.1-0.8-2.1-1.8-2.1h-31c-1,0-1.8,0.9-1.8,2.1v2.6c0,1.1,0.8,2.1,1.8,2.1h31
					C1827,1425.7,1827.8,1424.8,1827.8,1423.6z"/>
				<path class="st38" d="M1851.8,1319.5l1.8-3.5c0.3-0.7,0.1-1.5-0.4-1.8l-28-18.1c-0.6-0.4-1.3-0.1-1.7,0.5l-1.8,3.5
					c-0.3,0.7-0.1,1.5,0.4,1.8l28,18.1C1850.8,1320.4,1851.5,1320.2,1851.8,1319.5z"/>
				<path class="st38" d="M1919.4,1242.2l3.1-2c0.6-0.4,0.8-1.2,0.4-1.8l-16.1-31.4c-0.3-0.7-1.1-0.9-1.7-0.5l-3.1,2
					c-0.6,0.4-0.8,1.2-0.4,1.8l16.1,31.4C1918.1,1242.4,1918.8,1242.6,1919.4,1242.2z"/>
				<path class="st39" d="M2029.8,1422.4l0.2-0.2l-0.1-0.1C2029.8,1422.1,2029.8,1422.2,2029.8,1422.4z M2029.8,1422.4l0.2-0.2
					l-0.1-0.1C2029.8,1422.1,2029.8,1422.2,2029.8,1422.4z M2029.8,1422.4l0.2-0.2l-0.1-0.1
					C2029.8,1422.1,2029.8,1422.2,2029.8,1422.4z M2029.8,1422.4l0.2-0.2l-0.1-0.1C2029.8,1422.1,2029.8,1422.2,2029.8,1422.4z"/>
				<path class="st39" d="M2029.8,1422.4l0.2-0.2l-0.1-0.1C2029.8,1422.1,2029.8,1422.2,2029.8,1422.4z"/>
				<g>
					<path class="st36" d="M2005.1,1271.4v119.1c2.9-1,6-1.6,9.2-1.6s6.3,0.6,9.2,1.6v-119.1c0-5.7-4.1-10.3-9.2-10.3
						c-2.5,0-4.9,1.2-6.5,3C2006.1,1265.9,2005.1,1268.5,2005.1,1271.4z"/>
					<path class="st38" d="M2034.7,1448l82,71.8c2.4,2.1,6,1.7,7.9-1.1c0.8-1.1,1.2-2.5,1.2-3.9c0-1.9-0.7-3.7-2.1-5l-82.1-72
						C2039.8,1441.8,2037.5,1445.2,2034.7,1448z"/>
					<path class="st36" d="M1937.2,1501.3c2.5,3.1,6,4.7,9.4,4.7c3,0,6.1-1.2,8.5-3.7l47.6-48.1c3.6,1.7,7.5,2.6,11.6,2.6
						c7.9,0,15-3.4,20.4-8.8c2.8-2.8,5.1-6.2,6.7-10c2-4.6,3.2-9.7,3.2-15.1c0-3.3-0.4-6.6-1.2-9.6c-2.5-9.6-8.7-17.4-16.7-21.4
						c-1-0.5-2.1-1-3.2-1.4c-2.9-1-6-1.6-9.2-1.6s-6.3,0.6-9.2,1.6c-3.9,1.4-7.4,3.6-10.4,6.5c-2.9,2.7-5.2,6-7,9.8
						c-2.3,4.8-3.6,10.3-3.6,16.1c0,3.7,0.5,7.3,1.5,10.6l-47.4,47.8C1933,1486.5,1932.5,1495.5,1937.2,1501.3z M1998.9,1422.9
						c0-1.1,0.1-2.1,0.3-3.2c0.1-0.8,0.3-1.6,0.5-2.3c1-3.4,2.9-6.3,5.4-8.3c0.6-0.5,1.2-0.9,1.8-1.3c1.8-1.2,4-1.9,6.2-2.1
						c0.4,0,0.8-0.1,1.2-0.1c3.5,0,6.6,1.3,9.2,3.4c3.8,3.2,6.2,8.2,6.2,13.9c0,1.5-0.2,3-0.5,4.4l0,0l0.1,0.1l-0.2,0.2
						c-1,4.1-3.4,7.5-6.5,9.8l0,0c-1.7,1.2-3.6,2.1-5.6,2.5c-0.9,0.2-1.8,0.3-2.7,0.3C2005.8,1440.2,1998.9,1432.4,1998.9,1422.9z"
						/>
					<path class="st38" d="M1961.2,1383.6l26.4,23.2c1.8-3.7,4.2-7,7-9.8l-26.6-23.3L1961.2,1383.6z"/>
				</g>
				<path class="st39" d="M2029.8,1422.4l0.2-0.2l-0.1-0.1C2029.8,1422.1,2029.8,1422.2,2029.8,1422.4z"/>
			</g>
		</g>
	</g>
</g>
<g id="Layer_2_00000065789905652643493970000002840320509814029981_" class="st40">
</g>
<path class="st0" d="M3352.3,280.8"/>
<ellipse class="st0" cx="1090.1" cy="179.3" rx="129" ry="58.3"/>
<ellipse transform="matrix(0.3841 -0.9233 0.9233 0.3841 -1330.8431 1953.5045)" class="st41" cx="798.8" cy="1974.2" rx="105.8" ry="320.3"/>
<circle class="st42" cx="2860.8" cy="951.1" r="70.1"/>
</svg>
