<?xml version="1.0" encoding="utf-8"?>
<!-- Generator: Adobe Illustrator 25.4.1, SVG Export Plug-In . SVG Version: 6.00 Build 0)  -->
<svg version="1.1" xmlns="http://www.w3.org/2000/svg" xmlns:xlink="http://www.w3.org/1999/xlink" x="0px" y="0px"
	 viewBox="0 0 6000 4000" style="enable-background:new 0 0 6000 4000;" xml:space="preserve">
<style type="text/css">
	.st0{fill:#E9F6FF;}
	.st1{fill:#C1E0FC;}
	.st2{fill:#B3DAFB;}
	.st3{fill:#FFFFFF;}
	.st4{fill:#DCF0FF;}
	.st5{fill:#D0F5FE;}
	.st6{fill:#A5C96F;}
	.st7{fill:#41B769;}
	.st8{fill:#6D89C6;}
	.st9{fill:#8298D4;}
	.st10{fill:#A7C9F6;}
	.st11{fill:#CFE6FF;}
	.st12{fill:#A7CDFE;}
	.st13{fill:#EE685C;}
	.st14{fill:#FFDFD8;}
	.st15{fill:#303C66;}
	.st16{fill:#5973AD;}
	.st17{fill:#6A84BF;}
	.st18{fill:#E94B59;}
	.st19{fill:#1B4C84;}
	.st20{fill:#5164A8;}
	.st21{fill:#475C99;}
	.st22{fill:#9AC0E2;}
	.st23{fill:#7DC3FF;}
	.st24{fill:#EDA9A0;}
	.st25{fill:#022C68;}
	.st26{fill:#BBDBFF;}
	.st27{fill:#0078F3;}
	.st28{fill:#FE4F5E;}
	.st29{fill:#777777;}
	.st30{fill:#042366;}
</style>
<g id="BG">
	<rect class="st0" width="6000" height="4000"/>
	<path class="st1" d="M6000,0v1905.58c-147.49,75.03-358.38,154.28-506.72,65.46c-249.31-149.28-46.49-608.4-330.89-894.64
		c-240.81-242.37-552.04-80.08-784.34-318.64C4183.59,558.08,4195.19,232.36,4230.98,0H6000z"/>
	<path class="st1" d="M3195.07,4000H0V2191.64c0,0,831.7-147.07,1199.59,539.23c367.9,686.3,1378.28,147.07,1800.41,849.7
		C3101.05,3748.77,3161.53,3887.01,3195.07,4000z"/>
</g>
<g id="shadow">
	<rect x="391.69" y="235.38" class="st2" width="5246.41" height="3616.85"/>
</g>
<g id="bg2">
	<rect x="335.85" y="220.87" class="st3" width="5246.41" height="3577.1"/>
	<path class="st4" d="M335.85,2828.61c0,0,533.05,78.48,808.97,403.96s1150.02,224.48,1408.46,359.14
		c258.44,134.66,275.62,206.26,275.62,206.26H335.85V2828.61z"/>
</g>
<g id="illustration">
	<path class="st5" d="M3530.57,1176.98c-166.33-24.68-300.16,24.07-347.05,41.78c-216.6,81.78-486.46,301.68-480.69,540.98
		c6.42,266.33,347.68,284.23,381.07,577.3c33.29,292.26-280.37,500.08-170.31,713.39c26.67,51.68,64.82,77.74,115.68,112.47
		c305.41,208.56,551.82-31.1,1054.02,89.98c0,0,327.11,78.87,511.67,98.92c101.32,11.01,200.4,1.94,200.4,1.94
		s13.47-1.23,26.48-2.79c86.33-10.3,536.31-136.8,576.35-355.98c43.46-237.89-434.81-372.71-406.04-657.98
		c14.6-144.74,142.16-154.13,255.83-367.34c117.54-220.46,187.05-596.6,39.36-728.12c-245.72-218.83-890.12,419.9-1345.44,150.75
		C3828.79,1325.42,3735.56,1207.39,3530.57,1176.98z"/>
	<circle class="st5" cx="4318.96" cy="1257.43" r="108.8"/>
	
		<ellipse transform="matrix(0.7071 -0.7071 0.7071 0.7071 -781.2091 2607.6914)" class="st5" cx="2757.16" cy="2246.85" rx="124.66" ry="124.66"/>
	
		<ellipse transform="matrix(0.7071 -0.7071 0.7071 0.7071 -958.8548 2696.4644)" class="st5" cx="2775.49" cy="2505.67" rx="63.97" ry="63.97"/>
	<path class="st6" d="M4924.59,1611.32c0,0,21.71,48.84-34.23,102.65c-55.94,53.81-134.28,107.7-84.83,261.31
		c0,0,114.2-6.84,170.99-97.92C5033.31,1786.27,4924.59,1611.32,4924.59,1611.32z"/>
	<path class="st7" d="M4815.42,1819.5l18,124.54c-8.58,10.37-17.86,20.79-27.89,31.23c0,0,13.48-10.16,32.02-28.95l87.22-34.57
		l-64.97,10.23c6.98-8.25,14.17-17.37,21.26-27.32l85.04-33.71l-70,11.02c7.12-11.62,13.91-24.09,20.01-37.37l59.12-36.61
		l-50.85,16.92c5.14-13.46,9.5-27.63,12.77-42.44l38.63-23.92l-36.29,12.08c7.87-44.72,5.54-94.96-14.91-149.3
		c0,0,17.86,53.68,4.51,132.8l-18.2-36.89l15.69,50.23c-3.22,15.54-7.66,31.94-13.66,49.01l-34.64-70.21l27.67,88.57
		c-5.28,12.96-11.48,26.24-18.74,39.77l-30.48-95.91l17.2,118.98c-7.28,11.84-15.39,23.82-24.42,35.91l-0.98,0.15L4815.42,1819.5z"
		/>
	<path class="st7" d="M5192.47,1862.1c0,0-57.46-2.57-89.41,74.6c-31.95,77.17-55.19,176.83-228.51,187.58
		c0,0-37.98-117.11,30.98-209.77C4974.49,1821.85,5192.47,1862.1,5192.47,1862.1z"/>
	<path class="st6" d="M5026.74,2053.21l-131.85,30.86c-7.02,12.67-13.82,26.06-20.34,40.21c0,0,4.89-17.5,16.44-43.45l0.4-100.96
		l15.26,69.11c5.52-10.23,11.84-21.01,19.03-32.03l0.39-98.44l16.44,74.47c8.84-11.7,18.68-23.4,29.58-34.72l13.47-73.61l3.01,57.59
		c11.47-10.44,23.95-20.37,37.51-29.45l8.8-48.1l2.15,41.1c41.71-25.44,92.97-42.83,155.44-43.68c0,0-60.79,3.18-134.83,47.62
		l44.1,3.75l-56.49,4c-14.31,9.32-29,20.22-43.74,32.93l83.94,7.14l-99.6,7.05c-10.91,10.38-21.78,21.81-32.49,34.39l108.06-7.11
		l-125.97,29.48c-9,11.94-17.83,24.77-26.4,38.57l0.23,1.04L5026.74,2053.21z"/>
	<polygon class="st8" points="3054.39,3028.28 4584.73,3028.28 4852.71,1780.03 3322.37,1780.03 	"/>
	<polygon class="st9" points="5121.14,3028.28 3590.81,3028.28 3322.82,1780.03 4853.16,1780.03 	"/>
	<polygon class="st3" points="5025.89,2948.76 3657.67,2948.76 3418.07,1832.74 4786.3,1832.74 	"/>
	<path class="st10" d="M4479.81,1966.92h-746.54c-12.88,0-24.02-9-26.72-21.59l0,0c-3.65-17.01,9.32-33.06,26.72-33.06h746.54
		c12.88,0,24.02,9,26.72,21.59v0C4510.18,1950.87,4497.21,1966.92,4479.81,1966.92z"/>
	<path class="st11" d="M3814.41,2216.28h-143.78c-9.01,0-16.79-6.29-18.69-15.1l-27.73-129.16c-2.55-11.9,6.52-23.12,18.69-23.12
		h143.78c9.01,0,16.79,6.29,18.69,15.1l27.73,129.16C3835.65,2205.06,3826.58,2216.28,3814.41,2216.28z"/>
	<path class="st11" d="M4037.24,2216.28h-143.78c-9.01,0-16.8-6.29-18.69-15.1l-27.73-129.16c-2.55-11.9,6.52-23.12,18.69-23.12
		h143.78c9.01,0,16.79,6.29,18.69,15.1l27.73,129.16C4058.48,2205.06,4049.41,2216.28,4037.24,2216.28z"/>
	<path class="st11" d="M4256.05,2216.28h-143.78c-9.01,0-16.8-6.29-18.69-15.1l-27.73-129.16c-2.55-11.9,6.52-23.12,18.69-23.12
		h143.78c9.01,0,16.79,6.29,18.69,15.1l27.73,129.16C4277.29,2205.06,4268.22,2216.28,4256.05,2216.28z"/>
	<path class="st11" d="M4478.88,2216.28H4335.1c-9.01,0-16.79-6.29-18.69-15.1l-27.73-129.16c-2.55-11.9,6.52-23.12,18.69-23.12
		h143.78c9.01,0,16.79,6.29,18.69,15.1l27.73,129.16C4500.12,2205.06,4491.05,2216.28,4478.88,2216.28z"/>
	<path class="st11" d="M4697.7,2216.28h-143.78c-9.01,0-16.79-6.29-18.69-15.1l-27.73-129.16c-2.55-11.9,6.52-23.12,18.69-23.12
		h143.78c9.01,0,16.79,6.29,18.69,15.1l27.73,129.16C4718.94,2205.06,4709.87,2216.28,4697.7,2216.28z"/>
	<path class="st10" d="M3877.62,2442.89h-143.78c-9.01,0-16.8-6.29-18.69-15.1l-27.73-129.16c-2.55-11.9,6.52-23.12,18.69-23.12
		h143.78c9.01,0,16.8,6.29,18.69,15.1l27.73,129.16C3898.86,2431.67,3889.79,2442.89,3877.62,2442.89z"/>
	<path class="st10" d="M4100.45,2442.89h-143.78c-9.01,0-16.8-6.29-18.69-15.1l-27.73-129.16c-2.55-11.9,6.52-23.12,18.69-23.12
		h143.78c9.01,0,16.8,6.29,18.69,15.1l27.73,129.16C4121.69,2431.67,4112.62,2442.89,4100.45,2442.89z"/>
	<path class="st10" d="M4319.26,2442.89h-143.78c-9.01,0-16.79-6.29-18.69-15.1l-27.73-129.16c-2.55-11.9,6.52-23.12,18.69-23.12
		h143.78c9.01,0,16.79,6.29,18.69,15.1l27.73,129.16C4340.5,2431.67,4331.43,2442.89,4319.26,2442.89z"/>
	<path class="st10" d="M4542.09,2442.89h-143.79c-9.01,0-16.79-6.29-18.69-15.1l-27.73-129.16c-2.55-11.9,6.52-23.12,18.69-23.12
		h143.78c9.01,0,16.79,6.29,18.69,15.1l27.73,129.16C4563.33,2431.67,4554.26,2442.89,4542.09,2442.89z"/>
	<path class="st10" d="M4760.91,2442.89h-143.78c-9.01,0-16.79-6.29-18.69-15.1l-27.73-129.16c-2.55-11.9,6.52-23.12,18.69-23.12
		h143.78c9.01,0,16.79,6.29,18.69,15.1l27.73,129.16C4782.15,2431.67,4773.08,2442.89,4760.91,2442.89z"/>
	<path class="st10" d="M3927.83,2676.65h-143.78c-9.01,0-16.79-6.29-18.69-15.1l-27.73-129.16c-2.55-11.9,6.52-23.12,18.69-23.12
		h143.78c9.01,0,16.8,6.29,18.69,15.1l27.73,129.16C3949.07,2665.43,3940,2676.65,3927.83,2676.65z"/>
	<path class="st11" d="M4150.66,2676.65h-143.78c-9.01,0-16.8-6.29-18.69-15.1l-27.73-129.16c-2.55-11.9,6.52-23.12,18.69-23.12
		h143.78c9.01,0,16.79,6.29,18.69,15.1l27.73,129.16C4171.9,2665.43,4162.83,2676.65,4150.66,2676.65z"/>
	<path class="st11" d="M4369.48,2676.65h-143.78c-9.01,0-16.79-6.29-18.69-15.1l-27.73-129.16c-2.55-11.9,6.52-23.12,18.69-23.12
		h143.78c9.01,0,16.79,6.29,18.69,15.1l27.73,129.16C4390.72,2665.43,4381.65,2676.65,4369.48,2676.65z"/>
	<path class="st10" d="M4592.31,2676.65h-143.78c-9.01,0-16.79-6.29-18.69-15.1l-27.73-129.16c-2.55-11.9,6.52-23.12,18.69-23.12
		h143.78c9.01,0,16.8,6.29,18.69,15.1l27.73,129.16C4613.55,2665.43,4604.48,2676.65,4592.31,2676.65z"/>
	<path class="st10" d="M4811.12,2676.65h-143.78c-9.01,0-16.79-6.29-18.69-15.1l-27.73-129.16c-2.55-11.9,6.52-23.12,18.69-23.12
		h143.78c9.01,0,16.79,6.29,18.69,15.1l27.73,129.16C4832.36,2665.43,4823.29,2676.65,4811.12,2676.65z"/>
	<path class="st10" d="M3989.03,2906.03h-143.78c-9.01,0-16.79-6.29-18.69-15.1l-27.73-129.16c-2.55-11.9,6.52-23.12,18.69-23.12
		h143.78c9.01,0,16.79,6.29,18.69,15.1l27.73,129.16C4010.27,2894.8,4001.2,2906.03,3989.03,2906.03z"/>
	<path class="st10" d="M4211.86,2906.03h-143.78c-9.01,0-16.8-6.29-18.69-15.1l-27.73-129.16c-2.55-11.9,6.52-23.12,18.69-23.12
		h143.78c9.01,0,16.8,6.29,18.69,15.1l27.73,129.16C4233.1,2894.8,4224.03,2906.03,4211.86,2906.03z"/>
	<path class="st10" d="M3623.78,2128.37v409.57c0,22.71-18.41,41.12-41.12,41.12h-695.49c-22.72,0-41.12-18.41-41.12-41.12v-409.57
		c0-22.71,18.4-41.12,41.12-41.12h695.49C3605.36,2087.25,3623.78,2105.66,3623.78,2128.37z"/>
	<path class="st9" d="M3623.78,2128.37v63.78h-777.73v-63.78c0-22.71,18.4-41.12,41.12-41.12h695.49
		C3605.36,2087.25,3623.78,2105.66,3623.78,2128.37z"/>
	
		<ellipse transform="matrix(0.8507 -0.5257 0.5257 0.8507 -758.1987 1877.8469)" class="st3" cx="2926.05" cy="2273.41" rx="31.54" ry="31.54"/>
	<circle class="st3" cx="2926.05" cy="2381" r="31.54"/>
	<circle class="st3" cx="2926.05" cy="2488.59" r="31.54"/>
	<path class="st3" d="M3420.77,2258.38h-406.88c-3.18,0-5.77-2.58-5.77-5.77l0,0c0-3.19,2.58-5.77,5.77-5.77h406.88
		c3.19,0,5.77,2.58,5.77,5.77l0,0C3426.54,2255.8,3423.96,2258.38,3420.77,2258.38z"/>
	<path class="st3" d="M3436.94,2283.48h-423.05c-3.18,0-5.77-2.58-5.77-5.77v0c0-3.19,2.58-5.77,5.77-5.77h423.05
		c3.19,0,5.77,2.58,5.77,5.77v0C3442.71,2280.9,3440.13,2283.48,3436.94,2283.48z"/>
	<path class="st3" d="M3503.66,2310.72h-489.77c-3.18,0-5.77-2.58-5.77-5.77l0,0c0-3.18,2.58-5.77,5.77-5.77h489.77
		c3.18,0,5.77,2.58,5.77,5.77l0,0C3509.43,2308.13,3506.85,2310.72,3503.66,2310.72z"/>
	<path class="st3" d="M3420.77,2360.21h-406.88c-3.18,0-5.77-2.58-5.77-5.77l0,0c0-3.19,2.58-5.77,5.77-5.77h406.88
		c3.19,0,5.77,2.58,5.77,5.77l0,0C3426.54,2357.62,3423.96,2360.21,3420.77,2360.21z"/>
	<path class="st3" d="M3436.94,2385.31h-423.05c-3.18,0-5.77-2.58-5.77-5.77l0,0c0-3.19,2.58-5.77,5.77-5.77h423.05
		c3.19,0,5.77,2.58,5.77,5.77l0,0C3442.71,2382.72,3440.13,2385.31,3436.94,2385.31z"/>
	<path class="st3" d="M3503.66,2412.54h-489.77c-3.18,0-5.77-2.58-5.77-5.77l0,0c0-3.19,2.58-5.77,5.77-5.77h489.77
		c3.18,0,5.77,2.58,5.77,5.77l0,0C3509.43,2409.96,3506.85,2412.54,3503.66,2412.54z"/>
	<path class="st3" d="M3420.77,2464.87h-406.88c-3.18,0-5.77-2.58-5.77-5.77l0,0c0-3.19,2.58-5.77,5.77-5.77h406.88
		c3.19,0,5.77,2.58,5.77,5.77l0,0C3426.54,2462.29,3423.96,2464.87,3420.77,2464.87z"/>
	<path class="st3" d="M3436.94,2489.97h-423.05c-3.18,0-5.77-2.58-5.77-5.77l0,0c0-3.19,2.58-5.77,5.77-5.77h423.05
		c3.19,0,5.77,2.58,5.77,5.77l0,0C3442.71,2487.39,3440.13,2489.97,3436.94,2489.97z"/>
	<path class="st3" d="M3503.66,2517.21h-489.77c-3.18,0-5.77-2.58-5.77-5.77l0,0c0-3.18,2.58-5.77,5.77-5.77h489.77
		c3.18,0,5.77,2.58,5.77,5.77l0,0C3509.43,2514.62,3506.85,2517.21,3503.66,2517.21z"/>
	<g>
		<path class="st3" d="M3476.96,1707.15h-503.09c-22.89,0-41.44-18.55-41.44-41.44V946.74c0-22.89,18.55-41.44,41.44-41.44h503.09
			c22.89,0,41.44,18.55,41.44,41.44v718.97C3518.4,1688.6,3499.85,1707.15,3476.96,1707.15z"/>
		<path class="st12" d="M3476.96,1717.17h-503.09c-28.38,0-51.46-23.09-51.46-51.46V946.74c0-28.38,23.09-51.46,51.46-51.46h503.09
			c28.38,0,51.46,23.09,51.46,51.46v718.97C3528.43,1694.09,3505.34,1717.17,3476.96,1717.17z M2973.88,915.32
			c-17.33,0-31.42,14.09-31.42,31.42v718.97c0,17.33,14.09,31.42,31.42,31.42h503.09c17.32,0,31.42-14.09,31.42-31.42V946.74
			c0-17.33-14.09-31.42-31.42-31.42H2973.88z"/>
	</g>
	<path class="st3" d="M3394.24,1127.1c0,54.67-25.23,103.45-64.67,135.34l-2.18-5.01c-9.91,8.16-20.77,15.21-32.38,20.97
		c-22.53,11.17-47.89,17.45-74.7,17.45c-22.81,0-44.58-4.55-64.45-12.79c-30.68-12.72-56.82-34.24-75.25-61.39
		c-1.21,1.76-2.27,3.33-3.18,4.67c-19.58-28.14-31.06-62.34-31.06-99.23c0-96.06,77.87-173.93,173.93-173.93
		C3316.37,953.17,3394.24,1031.05,3394.24,1127.1z"/>
	<path class="st12" d="M3385.35,1057.38c-9.02-21.33-21.93-40.49-38.38-56.94c-16.45-16.44-35.6-29.36-56.94-38.38
		c-22.09-9.34-45.54-14.08-69.72-14.08c-24.18,0-47.64,4.74-69.72,14.08c-21.33,9.02-40.49,21.94-56.94,38.38
		c-16.44,16.45-29.36,35.61-38.39,56.94c-9.34,22.09-14.08,45.55-14.08,69.72c0,24.18,4.74,47.64,14.08,69.73
		c5.13,12.11,11.5,23.52,19.08,34.13c0.48-0.72,1.55-2.34,3.1-4.63c0.9-1.34,1.97-2.91,3.18-4.67
		c-18.33-26.99-29.05-59.55-29.05-94.56c0-93.04,75.7-168.74,168.74-168.74c93.05,0,168.74,75.7,168.74,168.74
		c0,52.43-24.04,99.35-61.66,130.32l2.18,5.01l2.15,4.94c5.31-4.22,10.39-8.76,15.24-13.62c16.45-16.45,29.37-35.6,38.38-56.93
		c9.34-22.09,14.08-45.55,14.08-69.73C3399.43,1102.93,3394.69,1079.47,3385.35,1057.38z"/>
	<path class="st12" d="M3331.73,1267.38c-11.32,9.02-23.65,16.59-36.85,22.64c0.02-1.78,0.04-3.71,0.07-5.76
		c12.43-5.91,24.04-13.25,34.63-21.82L3331.73,1267.38z"/>
	<path class="st12" d="M3329.57,1262.44c-10.59,8.56-22.2,15.9-34.63,21.82c0.03-1.85,0.05-3.81,0.07-5.86
		c11.61-5.75,22.47-12.81,32.38-20.97L3329.57,1262.44z"/>
	<path class="st12" d="M3152.55,1287.34c-1.32,1.63-2.51,3.03-3.5,4.14c-20.72-8.98-39.34-21.67-55.39-37.72
		c-7.1-7.11-13.55-14.72-19.31-22.8c0.48-0.72,1.55-2.34,3.1-4.63C3096.1,1253.15,3122.11,1274.46,3152.55,1287.34z"/>
	<path class="st12" d="M3155.86,1283.06c-1.16,1.57-2.28,3-3.32,4.29c-30.44-12.88-56.45-34.2-75.11-61.01
		c0.9-1.34,1.97-2.91,3.18-4.67C3099.05,1248.81,3125.19,1270.33,3155.86,1283.06z"/>
	<path class="st13" d="M3327.39,1257.43c-9.91,8.16-20.77,15.21-32.38,20.97c-22.53,11.17-47.89,17.45-74.7,17.45
		c-22.81,0-44.58-4.55-64.45-12.79c-30.68-12.72-56.82-34.24-75.25-61.39c11.71-17.1,36.69-52.21,54.55-67.8
		c9.92-8.66,28.99-12.68,47.99-14.43c6.49-0.6,12.97-0.92,19.08-1.08c8.38-0.21,16.05-0.1,22.07,0.09
		c7.95,0.26,13.02,0.66,13.02,0.66l13.29,7.3l37.27,20.48l5.78,13.25L3327.39,1257.43z"/>
	<path class="st12" d="M3295.01,1278.4c-0.02,2.04-0.04,4.01-0.07,5.86c-20.99,9.98-44.28,15.89-68.88,16.68h-0.02
		c-0.96-0.15-1.54-0.23-1.66-0.23c-0.6,0-18.47-1.36-37-2.79c0,0-0.01-0.01-0.01,0c-12.1-2.32-23.76-5.89-34.82-10.58
		c1.04-1.28,2.15-2.71,3.32-4.29c19.86,8.24,41.63,12.79,64.45,12.79C3247.12,1295.85,3272.48,1289.56,3295.01,1278.4z"/>
	<path class="st12" d="M3294.94,1284.25c-0.03,2.05-0.05,3.98-0.07,5.76c-1.6,0.74-3.21,1.45-4.84,2.13
		c-13.35,5.65-27.2,9.61-41.41,11.86c-10.25-1.15-19-2.53-22.56-3.07C3250.66,1300.14,3273.96,1294.24,3294.94,1284.25z"/>
	<path class="st12" d="M3248.63,1304.01c-9.3,1.47-18.75,2.22-28.32,2.22c-20.79,0-41.04-3.5-60.35-10.42
		c7.69,0.6,17.64,1.36,27.41,2.12c0.01-0.01,0.01,0,0.01,0c10.66,2.04,21.67,3.11,32.93,3.11c1.92,0,3.83-0.03,5.73-0.1h0.02
		C3229.62,1301.48,3238.38,1302.86,3248.63,1304.01z"/>
	<path class="st12" d="M3187.37,1297.92c-9.77-0.75-19.72-1.52-27.41-2.12c-3.15-1.13-6.27-2.35-9.37-3.66
		c-0.51-0.22-1.03-0.44-1.54-0.66c0.99-1.12,2.18-2.51,3.5-4.14C3163.62,1292.03,3175.27,1295.6,3187.37,1297.92z"/>
	<path class="st12" d="M3226.04,1300.94c-1.9,0.07-3.81,0.1-5.73,0.1c-11.26,0-22.27-1.07-32.93-3.11c18.53,1.43,36.41,2.79,37,2.79
		C3224.51,1300.71,3225.08,1300.79,3226.04,1300.94z"/>
	<path class="st13" d="M3295.01,1278.4c-22.53,11.17-47.89,17.45-74.7,17.45c-22.81,0-44.58-4.55-64.45-12.79
		c10.28-13.88,24.21-38.45,18.56-64.33c-8.63-39.53-40.09-61.8-39.25-64.87c0.83-3.06,51.22-33.13,51.22-33.13l15.85,17.62
		l12.95,14.4c0,0,2.28-7.89,9.12-14.31c4.5-4.23,11-7.83,20.12-8.11c1.01-0.03,2.02,0.02,3.03,0.13h0.01
		c16.43,1.85,32.23,22.08,40.42,36.42c2.72,4.75,4.6,8.85,5.4,11.43c0.13,0.44,0.26,1.05,0.38,1.83
		C3295.61,1192.6,3295.35,1246.23,3295.01,1278.4z"/>
	<path class="st14" d="M3281.27,1052.71c0,0,4.09,26.69-5.1,46.31c-9.19,19.63-31.74,18.79-31.74,18.79v12.53
		c0,0,5.01-2.09,5.85,5.85c0.84,7.93,2.09,39.25-18.37,41.76s-38-7.93-45.52-25.47c-7.52-17.54,0-31.74,0-31.74s13,1.69,15.45-5.22
		c2.45-6.92,0.83-13.98,0.83-15.65c0-1.67-5.85-23.8-6.68-25.05c-0.84-1.25-18.79-12.94-0.84-24.64
		c17.96-11.69,39.67-22.97,39.67-22.97L3281.27,1052.71z"/>
	<path class="st15" d="M3202.68,1058.1c0,0,66.81,13.78,81.01-8.35c14.2-22.13,4.59-57.21-19.63-64.73
		c-24.22-7.52-88.11,9.6-92.29,32.15c-4.18,22.55-10.44,38-3.34,53.87c7.1,15.87,22.55,38,29.65,40.51
		c7.1,2.51,11.27-12.94,8.77-22.97C3204.35,1078.56,3191.4,1071.88,3202.68,1058.1z"/>
	
		<ellipse transform="matrix(0.5257 -0.8507 0.8507 0.5257 497.0069 3416.3118)" class="st15" cx="3312.26" cy="1262.44" rx="50.26" ry="50.26"/>
	<g>
		<path class="st3" d="M3289.92,1282.83l-10.42-14.96c-1.68-2.41-1.09-5.73,1.32-7.42l0,0c2.41-1.68,5.73-1.09,7.41,1.32l4.38,6.29
			c1.67,2.4,4.96,3,7.38,1.35l37.64-25.74c2.43-1.66,5.74-1.04,7.4,1.39v0c1.66,2.43,1.04,5.74-1.39,7.4l-46.36,31.7
			C3294.88,1285.84,3291.59,1285.23,3289.92,1282.83z"/>
	</g>
	<path class="st10" d="M3413.76,1382.07h-397.12c-5.09,0-9.21-4.12-9.21-9.21l0,0c0-5.09,4.12-9.21,9.21-9.21h397.12
		c5.09,0,9.21,4.12,9.21,9.21l0,0C3422.97,1377.95,3418.85,1382.07,3413.76,1382.07z"/>
	<path class="st10" d="M3413.76,1419.45h-397.12c-5.09,0-9.21-4.12-9.21-9.21v0c0-5.09,4.12-9.21,9.21-9.21h397.12
		c5.09,0,9.21,4.12,9.21,9.21v0C3422.97,1415.32,3418.85,1419.45,3413.76,1419.45z"/>
	<path class="st10" d="M3413.76,1456.82h-397.12c-5.09,0-9.21-4.12-9.21-9.21l0,0c0-5.09,4.12-9.21,9.21-9.21h397.12
		c5.09,0,9.21,4.12,9.21,9.21l0,0C3422.97,1452.7,3418.85,1456.82,3413.76,1456.82z"/>
	<path class="st10" d="M3413.76,1494.2h-397.12c-5.09,0-9.21-4.12-9.21-9.21l0,0c0-5.09,4.12-9.21,9.21-9.21h397.12
		c5.09,0,9.21,4.12,9.21,9.21l0,0C3422.97,1490.08,3418.85,1494.2,3413.76,1494.2z"/>
	<path class="st10" d="M3413.76,1531.58h-397.12c-5.09,0-9.21-4.12-9.21-9.21l0,0c0-5.09,4.12-9.21,9.21-9.21h397.12
		c5.09,0,9.21,4.12,9.21,9.21l0,0C3422.97,1527.45,3418.85,1531.58,3413.76,1531.58z"/>
	<path class="st10" d="M3413.76,1568.96h-397.12c-5.09,0-9.21-4.12-9.21-9.21l0,0c0-5.09,4.12-9.21,9.21-9.21h397.12
		c5.09,0,9.21,4.12,9.21,9.21l0,0C3422.97,1564.83,3418.85,1568.96,3413.76,1568.96z"/>
	<path class="st10" d="M3413.76,1606.33h-397.12c-5.09,0-9.21-4.12-9.21-9.21l0,0c0-5.09,4.12-9.21,9.21-9.21h397.12
		c5.09,0,9.21,4.12,9.21,9.21l0,0C3422.97,1602.21,3418.85,1606.33,3413.76,1606.33z"/>
	<path class="st16" d="M4607.05,1283.49h-47.87c-4.84,0-8.76-3.92-8.76-8.76v-23.74c0-4.84,3.92-8.76,8.76-8.76h47.87
		c4.84,0,8.76,3.92,8.76,8.76v23.74C4615.81,1279.57,4611.89,1283.49,4607.05,1283.49z"/>
	
		<ellipse transform="matrix(0.7071 -0.7071 0.7071 0.7071 288.4172 3677.4355)" class="st9" cx="4583.27" cy="1490.57" rx="223.32" ry="223.32"/>
	
		<ellipse transform="matrix(0.7071 -0.7071 0.7071 0.7071 285.2667 3678.7405)" class="st3" cx="4583.27" cy="1495.02" rx="185.62" ry="185.62"/>
	
		<ellipse transform="matrix(0.1602 -0.9871 0.9871 0.1602 2377.7893 5775.8901)" class="st9" cx="4583.27" cy="1490.57" rx="21.09" ry="21.09"/>
	<path class="st9" d="M4583.27,1495.02L4583.27,1495.02c-3.83,0-6.93-3.1-6.93-6.93v-160.31c0-3.83,3.1-6.93,6.93-6.93l0,0
		c3.83,0,6.93,3.1,6.93,6.93v160.31C4590.2,1491.92,4587.09,1495.02,4583.27,1495.02z"/>
	<path class="st9" d="M4484.97,1588.37L4484.97,1588.37c-2.77-2.64-2.88-7.03-0.25-9.8l86.59-91.03c2.64-2.77,7.03-2.88,9.8-0.24
		l0,0c2.77,2.64,2.88,7.03,0.24,9.8l-86.59,91.03C4492.13,1590.9,4487.74,1591.01,4484.97,1588.37z"/>
	<path class="st9" d="M4622,1249.26h-77.77c-5.87,0-10.63-4.76-10.63-10.63v-18.86c0-5.87,4.76-10.63,10.63-10.63H4622
		c5.87,0,10.63,4.76,10.63,10.63v18.86C4632.63,1244.5,4627.87,1249.26,4622,1249.26z"/>
	<path class="st6" d="M5331.3,2858.14l-33-23.17c0,0-70.67-134.39-62.91-195.36c0.22-1.76,0.51-3.46,0.87-5.1
		c0.47-2.15,1.06-4.18,1.78-6.09c20.16-53.57,63.54-26.2,83.22,27.62c-0.32-1.47-15.43-69.76-30.95-127.14
		c-0.84-3.13-1.69-6.22-2.53-9.27c-1.6-5.74-3.18-11.32-4.75-16.66c-11.77-40.02-9.62-66.28,1.34-77.35
		c0.97-0.99,2.01-1.85,3.12-2.59c5.37-3.6,12.3-4.37,20.36-2.19c28.48,7.68,51.67,50.65,51.67,50.65s-23.76-72.22-25.29-124.99
		c-0.05-1.56-0.08-3.11-0.08-4.65c-0.04-12.65,1.33-23.97,4.82-32.59c7.92-19.61,18.85-31.99,30.41-37.09
		c1.28-0.57,2.57-1.04,3.86-1.43c13.67-4.09,27.85,1.85,38.71,17.91c21.15,31.27,7.22,192.9,7.22,192.9s37.27-57.04,64.64-48.92
		c1.28,0.38,2.54,0.9,3.78,1.58c0.18,0.09,0.36,0.19,0.53,0.3c24.1,14.23-13.88,100.12-57.39,164.43c7.7-6.63,16.77-9.48,25.29,0.16
		c0.84,0.96,1.68,2.03,2.51,3.23c0.5,0.73,0.99,1.5,1.48,2.32C5481.29,2640.13,5331.3,2858.14,5331.3,2858.14z"/>
	<path class="st3" d="M5316.99,2847.45l-1.91-0.7l-1.88-0.69c0.01-0.03,0.07-0.2,0.18-0.51c1.59-4.43,13.22-37.36,26.51-88.79
		l-104.5-117.16c0.22-1.76,0.51-3.46,0.87-5.1l104.83,117.53c7.67-30.09,15.81-66.15,22.84-106.3c1.4-8,2.77-16.28,4.1-24.82
		l-77.74-92.02c-0.84-3.13-1.69-6.22-2.53-9.27l81.09,95.99c2.88-18.98,5.53-39.21,7.75-60.42l-92.26-129.58
		c0.97-0.99,2.01-1.85,3.12-2.59l89.76,126.08c5.42-54.29,7.9-114.72,4.07-176.96l-47.08-25.65c-0.05-1.56-0.08-3.11-0.08-4.65
		l46.86,25.54c-2.09-31.49-5.83-63.41-11.63-95.22c1.28-0.57,2.57-1.04,3.86-1.43c10.07,54.68,14.78,113.53,14.05,175.56
		c-0.63,52.81-5.21,108.03-13.61,164.57l110.14-178.23c1.28,0.38,2.54,0.9,3.78,1.58l-115.46,186.83
		c-1.32,8.46-2.73,16.95-4.22,25.48c-3.5,19.98-7.28,38.96-11.13,56.7l99.25-104.12c0.84,0.96,1.68,2.03,2.51,3.23l-103.43,108.51
		C5336.75,2793.08,5317.24,2846.79,5316.99,2847.45z"/>
	<path class="st7" d="M5338.03,2820.07h-40.32c0,0-135.06-69.37-163.75-123.73c-0.83-1.57-1.57-3.13-2.21-4.67
		c-0.85-2.03-1.54-4.03-2.04-6c-14.28-55.43,36.94-57.96,83.98-25.22c-1.11-1.02-52.71-48.22-98.39-86.27
		c-2.49-2.08-4.96-4.12-7.4-6.13c-4.61-3.78-9.11-7.44-13.46-10.9c-32.63-25.99-45.96-48.71-43.35-64.07
		c0.23-1.37,0.58-2.67,1.07-3.91c2.33-6.04,7.56-10.64,15.4-13.5c27.72-10.08,71.4,11.76,71.4,11.76s-60.95-45.45-92.52-87.76
		c-0.94-1.25-1.85-2.51-2.74-3.76c-7.31-10.33-12.68-20.38-14.78-29.44c-4.78-20.6-2.96-37.02,3.57-47.83
		c0.72-1.2,1.5-2.33,2.34-3.39c8.84-11.2,23.86-14.49,41.98-7.59c35.28,13.44,116.76,153.72,116.76,153.72s-2.27-68.1,24.8-77.18
		c1.27-0.43,2.59-0.73,4-0.87c0.2-0.03,0.4-0.05,0.61-0.06c27.9-2.21,46.17,89.91,47.52,167.55c2.49-9.85,8.28-17.4,20.79-14.4
		c1.24,0.3,2.54,0.7,3.91,1.2c0.82,0.31,1.67,0.65,2.55,1.04C5335.51,2555.46,5338.03,2820.07,5338.03,2820.07z"/>
	<path class="st3" d="M5320.18,2819.55l-1.96,0.53l-1.94,0.52c-0.01-0.03-0.06-0.21-0.15-0.52c-1.24-4.54-10.65-38.17-29.32-87.9
		l-152.84-35.83c-0.83-1.57-1.57-3.13-2.21-4.67l153.34,35.95c-11.02-29.04-25.08-63.22-42.39-100.13
		c-3.45-7.35-7.09-14.91-10.9-22.67l-116.5-30.64c-2.49-2.08-4.96-4.12-7.4-6.13l121.53,31.96c-8.55-17.19-18.01-35.27-28.38-53.91
		l-149.97-53.03c0.23-1.37,0.58-2.67,1.07-3.91l145.91,51.6c-26.76-47.55-59.46-98.43-98.36-147.16l-53.28,6.06
		c-0.94-1.25-1.85-2.51-2.74-3.76l53.02-6.03c-19.81-24.57-41.21-48.55-64.23-71.24c0.72-1.2,1.5-2.33,2.34-3.39
		c39.67,38.96,77.34,84.41,112.38,135.61c29.83,43.59,57.81,91.41,83.43,142.51l-12.28-209.16c1.27-0.43,2.59-0.73,4-0.87
		l12.87,219.25c3.78,7.69,7.51,15.44,11.19,23.28c8.62,18.37,16.43,36.07,23.47,52.8l21.39-142.24c1.24,0.3,2.54,0.7,3.91,1.2
		l-22.3,148.24C5305.1,2763.69,5320,2818.87,5320.18,2819.55z"/>
	<path class="st17" d="M5397.19,3005.91l-1.13,12.3c-0.88,9.64-6.17,16.79-12.41,16.79h-176.62c-6.24,0-11.53-7.16-12.41-16.79
		l-20.15-220.14c-1.08-11.79,4.78-22.33,12.41-22.33h3.47l19.53,213.37c0.89,9.64,6.18,16.79,12.41,16.79H5397.19z"/>
	<path class="st9" d="M5416.22,2798.07l-19.02,207.84h-174.9c-6.24,0-11.53-7.16-12.41-16.79l-19.53-213.37h213.46
		C5411.44,2775.74,5417.3,2786.28,5416.22,2798.07z"/>
	<path class="st15" d="M4720.24,2363.62c6.76,8.58,24.9,9.14,44.44,6.19c20.04-3.03,41.57-9.74,53.82-15.31
		c4.38-1.99,7.58-3.82,9.12-5.3c10.04-9.6,32.3-27.92,23.56-77.68c-8.73-49.76-44.51-59.36-80.75-57.62
		c-36.22,1.74-32.73,29.24-32.73,29.24c14.4-2.18,23.13,10.91,23.13,10.91c10.51,19.68-0.4,47.94-13.55,70.82
		C4734.78,2346.69,4720.24,2363.62,4720.24,2363.62z"/>
	<path class="st14" d="M4818.5,2354.5c-12.26,5.56-33.78,12.28-53.82,15.31c3.74,9.32,6.63,16.5,6.63,16.5l57.18-9.6
		C4828.49,2376.71,4822.31,2366.08,4818.5,2354.5z"/>
	<path class="st14" d="M4737.7,2243.15c0,0,6.41,64.44,9.58,81.73c13.15-22.89,24.06-51.14,13.55-70.82
		C4760.83,2254.06,4752.1,2240.97,4737.7,2243.15z"/>
	<path class="st13" d="M4615.93,2548.67l0.01,0.01l0.02,0.06c1.83,2.97,60.48,98.18,76.8,102.05c11.03,2.62,15.87,1.74,17.87,0.87
		h0.01c0.87-0.38,1.21-0.77,1.28-0.85c-0.41,1.31-15.69,49.36-15.69,53.66c0,0,111.3-36.23,154.07-21.39c0,0,4.79-54.12,4.36-80.31
		c-0.44-26.19,27.94-126.57,27.94-147.52c0-20.95-40.58-73.76-54.12-78.57l-57.18,9.6c0,0-25.74,6.55-37.98,31.86
		c-12.22,25.31-27.49,140.98-34.91,151.02c-7.42,10.04-7.42,10.04-7.42,10.04l-56.3-75.08c0,0-2.05,0.23-4.86,1.4
		c-5.46,2.31-13.81,8.21-15.37,23.05C4613.91,2534.01,4614.24,2540.62,4615.93,2548.67z"/>
	<path class="st18" d="M4615.94,2548.69l0.02,0.06c1.83,2.97,60.48,98.18,76.8,102.05c11.03,2.62,15.87,1.74,17.87,0.87h0.01
		l1.29-0.87c0,0,42.17-91.66,52.73-208.2c0,0-31.35,154.95-42.69,178.95c-11.35,24-29.68,26.62-41.46,13.09
		C4668.83,2621.23,4616.75,2549.8,4615.94,2548.69z"/>
	<path class="st14" d="M4565.3,2456.14c5.68,14.4,6.99,19.64,6.99,19.64s15.27,10.48,21.82,16.58c6.54,6.12,20.1,36.23,20.1,36.23
		h0.26c1.56-14.85,9.91-20.74,15.37-23.05c-0.42-0.47-8.4-9.47-12.12-16.5l-0.01-0.01c-0.88-1.67-1.53-3.22-1.77-4.53
		c-1.32-6.97-11.36-10.91-17.91-19.63c-6.33-8.46-28.65-36.17-30.05-37.89l-0.06-0.09
		C4567.92,2426.9,4559.62,2441.73,4565.3,2456.14z"/>
	<path class="st19" d="M4557.01,2406.82l10.91,20.08l0.06,0.09c1.4,1.72,23.72,29.42,30.05,37.89c6.55,8.72,16.59,12.65,17.91,19.63
		c0.24,1.31,0.88,2.86,1.77,4.53l0.01,0.01l34.87-13.69l-56.03-80.75L4557.01,2406.82z"/>
	<path class="st14" d="M4604.58,3298.51c10.47,1.96,61.54-2.62,75.28-15.72c13.37-12.73,25.5-8.13,26.17-7.86l0.03,0.01v-42.89
		h-24.89c0,0-5.23,16.04-19.64,30.44C4647.14,3276.9,4594.11,3296.54,4604.58,3298.51z"/>
	<path class="st9" d="M4628.8,3324.03c36.67-7.19,57.62-28.8,57.62-28.8l11.78,37.31h7.86v-57.6l-0.03-0.01
		c-0.67-0.27-12.79-4.87-26.17,7.86c-13.74,13.1-64.81,17.68-75.28,15.72C4604.58,3298.51,4592.15,3331.24,4628.8,3324.03z"/>
	<path class="st14" d="M4750.77,3289.34c0,0,12.9,3.27,27.31,1.96c14.4-1.31,33.39-13.09,41.9-17.4c8.51-4.31,23.83-8.41,23.83-8.41
		v-33.44h-32.53c-1.1,3.1-2.15,6.47-3.09,10.14c-6.44,25.09-55.66,46.39-57.37,47.13
		C4750.78,3289.34,4750.77,3289.34,4750.77,3289.34z"/>
	<path class="st9" d="M4769.03,3316.19c24.76,2.62,28.27-3.28,28.27-3.28l37.08-27.49v36.66h13.1v-56.58h-3.67
		c0,0-15.32,4.1-23.83,8.41c-8.51,4.31-27.5,16.09-41.9,17.4c-14.41,1.31-27.31-1.96-27.31-1.96S4744.27,3313.56,4769.03,3316.19z"
		/>
	<path class="st20" d="M4672.68,3232.05h42.55l56.07-393.49l0.17-3.87l0.28,0.71l0.44-3.04c0,0,10.81,150.26,15.72,204.26
		c4.91,54.01,20.62,195.43,20.62,195.43h35.3c0,0,1.69-140.43,9.36-165.31c7.67-24.87-5.04-149.26-9.36-200.33
		s17.41-58.93,20.03-102.13c2.62-43.21-13.53-81.18-13.53-81.18c-42.77-14.85-154.07,21.39-154.07,21.39s-19.64,110.86-14.41,148.83
		C4687.07,2891.29,4672.68,3232.05,4672.68,3232.05z"/>
	<path class="st21" d="M4771.75,2828.44c0,0,44.08-35.79,32.73-105.62C4804.48,2722.82,4805.79,2782.61,4771.75,2828.44z"/>
	<path class="st21" d="M4769.03,2828.44l1.82,4.68l0.62,1.58l0.28,0.71l0.44-3.04c0,0,10.81,150.26,15.72,204.26
		c4.91,54.01,20.62,195.43,20.62,195.43h4.91c0,0-14.73-108.03-15.71-144.36c-0.99-36.33-21.6-215.06-14.73-235.69
		c6.87-20.62,2.26-38.78,2.26-38.78l-8.45,7.94L4769.03,2828.44z"/>
	<path class="st21" d="M4712.59,3232.05h2.64l56.07-393.49l0.17-3.87l0.28-6.26c0,0-0.31,1.65-0.9,4.68
		c-5.13,27.1-31.18,164.76-40.89,222.17C4720.46,3111.37,4714.01,3209.14,4712.59,3232.05z"/>
	<path class="st9" d="M4164.45,2065.59v-6.75c0-4.88-2.71-9.31-6.92-11.33l-45.31-21.75l-17.67-2.22l-26.31,6.7v35.35H4164.45z"/>
	<rect x="4068.25" y="2065.59" class="st10" width="96.2" height="10.51"/>
	<path class="st9" d="M4091.84,2087.02v-6.75c0-4.88-2.85-9.31-7.29-11.33l-47.7-21.75l-18.6-2.22l-27.7,6.7v35.35H4091.84z"/>
	<path class="st21" d="M4044.32,1817.12l23.46,212.89c0,0,30.93,11.52,48.52,0c0,0,0.61-247.46,0-262.02
		c-0.61-14.56-22.44-37.6-22.44-37.6l-145.19-36.18h-25.85l-47.31,16.17l33.97,32.08L4044.32,1817.12z"/>
	<path class="st20" d="M3919.82,1718.54c0,0,120.26,12.85,123.9,48.84c3.64,35.99-6.87,279.81-6.87,279.81s-29.11,23.45-51.35,0
		c0,0-10.51-228.05-16.98-239.38c-6.47-11.32-69.49-4.04-125.12-15.77s-89.56-34.53-98.27-95.3c0,0,92.78-17.11,93.99-17.11
		S3919.82,1718.54,3919.82,1718.54z"/>
	<polygon class="st22" points="4134.56,1637.58 4113.13,1742.45 3976.06,1742.45 3997.48,1637.58 	"/>
	<path class="st14" d="M4037.65,1535.68c0,0,2.83,5.66,12.53,2.02c9.7-3.64,72.78-92.73,72.78-92.73l19.82,8.54
		c0,0-84.92,124.63-93.41,125.44c-8.49,0.81-17.81-3.62-17.81-3.62s-15.35-12.55-14.54-14.98
		C4017.84,1557.92,4037.65,1535.68,4037.65,1535.68z"/>
	<polygon class="st23" points="4071.45,1442.49 3945.05,1437.07 3945.05,1416.03 4071.45,1410.6 	"/>
	<path class="st13" d="M3948.01,1541.4l80.74,41.18c0,0,12.53-28.71,8.9-46.9c0,0-100.28-54.18-109.98-54.18
		s-28.57,27.22-28.57,27.22L3948.01,1541.4z"/>
	<path class="st13" d="M3905.14,1481.51h22.53c0,0-4.45,28.02,7.28,45.28c11.73,17.26,17.39,35.18,18.6,53.37
		c1.21,18.2-15.77,35.58-17.39,50.95c-1.62,15.37-6.87,43.67,15.37,57.82c0,0-18.2,47.31-107.15,40.84
		c-88.96-6.47-103.11-38.41-103.11-38.41s-7.41-47.85,12.67-120.36l-20.76-37.74l35.18-71.17l27.9-12.94l72.24,30.73
		L3905.14,1481.51z"/>
	<path class="st14" d="M3882.52,1584.21c0,0,10.24,1.89,18.33-3.5c8.09-5.39,64.16-119.96,64.16-119.96s-4.58-28.57,1.89-31.27
		c6.47-2.7,9.97,4.31,9.97,4.31s0.81-15.9,9.17-16.44c8.36-0.54,25.61,18.87,25.34,26.42s-20.76,20.22-25.88,25.61
		c-5.12,5.39-72.64,145.3-81.07,152.85c-8.43,7.55-25.41,2.97-25.41,2.97s-10.78-18.87-10.24-19.95
		C3869.31,1604.15,3864.19,1579.08,3882.52,1584.21z"/>
	<path class="st13" d="M3832.44,1533.66c0,0-16.78-25.2-34.84-24.94c-18.06,0.27-29.65,17.79-26.42,39.36
		c3.23,21.57,107.83,77.1,107.83,77.1s-9.43-32.89,3.5-40.97l-18.13-17.39l-5.86-21.97L3832.44,1533.66z"/>
	<path class="st15" d="M3905.14,1481.51c0,0,14.64,0.4,18.28-14.77c3.64-15.16,2.02-18.6,7.68-29.11
		c5.66-10.51-4.65-23.25-4.65-26.89c0-3.64,1.62-37.81-0.81-44.68c-2.43-6.87-16.17-30.66-55.26-32.82
		c-39.09-2.16-50.27,22.64-54.92,31c-4.65,8.36-13.01,54.72-42.39,72.78c-29.38,18.06-59.84,35.31-64.97,68.2
		c-5.12,32.89,1.89,65.77,45.83,65.77c0,0,14.15-91.92,61.53-97.04c47.38-5.12,56.27,0,56.27,0L3905.14,1481.51z"/>
	<path class="st14" d="M3835.34,1444.97c0,0-6.74,23.38-9.77,26.22s-10.11,2.76-10.11,2.76s12.13,55.06,16.98,59.71
		s19,17.99,24.87,25.27c5.86,7.28,7.08,7.88,7.08,7.88s21.83,8.29,31.94-7.68c10.11-15.97,7.89-37.74,7.89-37.74
		s-4.04-29.38-4.04-29.99c0-0.61-14.96-23.25-16.78-25.68C3881.57,1463.31,3835.34,1444.97,3835.34,1444.97z"/>
	<path class="st24" d="M3839.12,1426.51l-3.77,18.47c0,0,20.89,28.98,38.01,32.48c17.12,3.5,30.87,43.94,30.87,43.94l1.21-52.43
		c0,0-6.6-10.51-6.74-10.92c-0.13-0.4-52.97-30.33-52.97-30.33L3839.12,1426.51z"/>
	<path class="st14" d="M3839.12,1396.79l-0.94,8.02c0,0-8.09-3.37-9.3,5.66s7.82,15.9,10.24,16.04c2.43,0.13,2.97,12.8,2.97,12.8
		s21.43,28.04,37.07,30.33s20.76,2.02,26.28-0.67c5.53-2.7,9.43-7.01,10.24-11.59c0.81-4.58,4.04-53.64,3.77-63.89
		c-0.27-10.24-1.62-15.64-3.5-15.1C3914.06,1378.93,3884.54,1414.24,3839.12,1396.79z"/>
	<rect x="3934.58" y="1413.1" class="st25" width="10.64" height="26.89"/>
	<polygon class="st23" points="4199.53,1458.26 4070.68,1447.47 4070.68,1405.63 4199.53,1394.83 	"/>
	<rect x="4199.53" y="1394.83" class="st25" width="10.64" height="63.43"/>
	<rect x="3894.65" y="1731.93" class="st22" width="90.31" height="10.51"/>
	<polygon class="st26" points="4143.46,1637.58 4122.02,1742.45 3984.95,1742.45 4006.38,1637.58 	"/>
	<rect x="3990.55" y="2087.02" class="st10" width="101.29" height="10.51"/>
</g>
<g id="text">
	<g>
		<path class="st27" d="M2620.89,494.27v68.79h-12.78v-29.48h-35.58v29.48h-12.78v-68.79h12.78v28.4h35.58v-28.4H2620.89z"/>
		<path class="st27" d="M2633.87,536.82c0-15.72,11.79-26.83,27.91-26.83c16.31,0,28.01,11.1,28.01,26.83
			c0,15.72-11.69,26.93-28.01,26.93C2645.66,563.75,2633.87,552.55,2633.87,536.82z M2677.4,536.82c0-10.02-6.68-16.41-15.63-16.41
			c-8.84,0-15.53,6.39-15.53,16.41c0,10.02,6.68,16.41,15.53,16.41C2670.72,553.24,2677.4,546.85,2677.4,536.82z"/>
		<path class="st27" d="M2789.33,532.99v30.07h-12.28v-28.5c0-9.34-4.32-13.86-11.79-13.86c-8.06,0-13.66,5.31-13.66,15.72v26.63
			h-12.28v-28.5c0-9.34-4.32-13.86-11.79-13.86c-8.16,0-13.66,5.31-13.66,15.72v26.63h-12.28v-52.48h11.69v6.68
			c3.93-4.72,10.02-7.27,17.2-7.27c7.67,0,14.05,2.85,17.69,8.75c4.23-5.41,11.3-8.75,19.65-8.75
			C2780.49,510,2789.33,517.17,2789.33,532.99z"/>
		<path class="st27" d="M2854.69,540.76h-41.18c1.47,7.67,7.86,12.58,17,12.58c5.9,0,10.51-1.87,14.25-5.7l6.58,7.57
			c-4.72,5.6-12.09,8.55-21.13,8.55c-17.59,0-28.99-11.3-28.99-26.93c0-15.63,11.5-26.83,27.12-26.83
			c15.33,0,26.53,10.71,26.53,27.12C2854.88,538.1,2854.79,539.58,2854.69,540.76z M2813.41,532.6h29.78
			c-0.98-7.57-6.78-12.78-14.84-12.78C2820.39,519.82,2814.59,524.93,2813.41,532.6z"/>
	</g>
	<g>
		<path class="st27" d="M3174.98,547.14h-34.4l-6.78,15.92h-13.17l30.96-68.79h12.58l31.05,68.79h-13.36L3174.98,547.14z
			 M3170.75,537.12l-12.97-30.07l-12.87,30.07H3170.75z"/>
		<path class="st27" d="M3258.51,536.82c0,16.31-11.3,26.93-26.63,26.93c-7.17,0-13.27-2.46-17.39-7.47v6.78h-11.69v-72.92h12.28
			v26.83c4.23-4.72,10.12-6.98,16.8-6.98C3247.21,510,3258.51,520.51,3258.51,536.82z M3246.03,536.82
			c0-10.02-6.68-16.41-15.53-16.41s-15.62,6.39-15.62,16.41c0,10.02,6.78,16.41,15.62,16.41S3246.03,546.85,3246.03,536.82z"/>
		<path class="st27" d="M3265.88,536.82c0-15.72,11.79-26.83,27.91-26.83c16.31,0,28.01,11.1,28.01,26.83
			c0,15.72-11.69,26.93-28.01,26.93C3277.68,563.75,3265.88,552.55,3265.88,536.82z M3309.42,536.82c0-10.02-6.68-16.41-15.62-16.41
			c-8.84,0-15.53,6.39-15.53,16.41c0,10.02,6.68,16.41,15.53,16.41C3302.74,553.24,3309.42,546.85,3309.42,536.82z"/>
		<path class="st27" d="M3384.4,510.59v52.48h-11.69v-6.68c-3.93,4.82-10.12,7.37-16.9,7.37c-13.46,0-22.6-7.37-22.6-23.19v-29.97
			h12.28v28.3c0,9.53,4.52,14.05,12.28,14.05c8.55,0,14.35-5.31,14.35-15.82v-26.53H3384.4z"/>
		<path class="st27" d="M3432.07,560.21c-2.95,2.36-7.37,3.54-11.79,3.54c-11.5,0-18.08-6.09-18.08-17.69v-25.26h-8.65v-9.83h8.65
			v-11.99h12.28v11.99h14.05v9.83h-14.05v24.96c0,5.11,2.56,7.86,7.27,7.86c2.55,0,5.01-0.69,6.88-2.16L3432.07,560.21z"/>
		<path class="st27" d="M3520.12,510.59v52.48h-11.69v-6.68c-3.93,4.82-10.12,7.37-16.9,7.37c-13.46,0-22.6-7.37-22.6-23.19v-29.97
			h12.28v28.3c0,9.53,4.52,14.05,12.28,14.05c8.55,0,14.35-5.31,14.35-15.82v-26.53H3520.12z"/>
		<path class="st27" d="M3530.24,557.86l4.72-9.34c4.62,3.05,11.69,5.21,18.28,5.21c7.76,0,11.01-2.16,11.01-5.8
			c0-10.02-32.43-0.59-32.43-21.52c0-9.93,8.94-16.41,23.09-16.41c6.98,0,14.94,1.67,19.66,4.52l-4.72,9.34
			c-5.01-2.95-10.02-3.93-15.04-3.93c-7.47,0-11.01,2.46-11.01,5.9c0,10.61,32.43,1.18,32.43,21.72c0,9.83-9.04,16.22-23.78,16.22
			C3543.71,563.75,3534.96,561.2,3530.24,557.86z"/>
	</g>
	<g>
		<path class="st27" d="M3797.8,555.79l4.42-9.93c5.5,4.42,14.25,7.57,22.7,7.57c10.71,0,15.23-3.83,15.23-8.94
			c0-14.84-40.88-5.11-40.88-30.66c0-11.11,8.84-20.54,27.71-20.54c8.25,0,16.9,2.16,22.9,6.09l-4.03,9.93
			c-6.19-3.64-12.97-5.41-18.97-5.41c-10.61,0-14.94,4.13-14.94,9.34c0,14.64,40.78,5.11,40.78,30.37
			c0,11.01-8.94,20.44-27.81,20.44C3814.21,564.05,3803.5,560.71,3797.8,555.79z"/>
		<path class="st27" d="M3913.37,540.76h-41.18c1.47,7.67,7.86,12.58,17,12.58c5.9,0,10.52-1.87,14.25-5.7l6.58,7.57
			c-4.72,5.6-12.09,8.55-21.13,8.55c-17.59,0-28.99-11.3-28.99-26.93c0-15.63,11.5-26.83,27.12-26.83
			c15.33,0,26.53,10.71,26.53,27.12C3913.57,538.1,3913.47,539.58,3913.37,540.76z M3872.09,532.6h29.78
			c-0.98-7.57-6.78-12.78-14.84-12.78C3879.07,519.82,3873.27,524.93,3872.09,532.6z"/>
		<path class="st27" d="M3955.73,510v11.69c-1.08-0.2-1.97-0.29-2.85-0.29c-9.34,0-15.23,5.5-15.23,16.22v25.45h-12.28v-52.48h11.69
			v7.67C3940.59,512.75,3946.98,510,3955.73,510z"/>
		<path class="st27" d="M4017.25,510.59l-22.5,52.48h-12.68l-22.5-52.48h12.78l16.31,38.92l16.8-38.92H4017.25z"/>
		<path class="st27" d="M4023.24,494.57c0-4.13,3.34-7.37,7.86-7.37c4.52,0,7.86,3.05,7.86,7.08c0,4.32-3.24,7.67-7.86,7.67
			C4026.58,501.94,4023.24,498.7,4023.24,494.57z M4024.91,510.59h12.28v52.48h-12.28V510.59z"/>
		<path class="st27" d="M4048.99,536.82c0-15.72,11.79-26.83,28.4-26.83c10.22,0,18.38,4.23,22.41,12.19l-9.43,5.5
			c-3.14-5.01-7.86-7.27-13.07-7.27c-9.04,0-15.92,6.29-15.92,16.41c0,10.22,6.88,16.41,15.92,16.41c5.21,0,9.93-2.26,13.07-7.27
			l9.43,5.5c-4.03,7.86-12.19,12.28-22.41,12.28C4060.78,563.75,4048.99,552.55,4048.99,536.82z"/>
		<path class="st27" d="M4158.76,540.76h-41.18c1.47,7.67,7.86,12.58,17,12.58c5.9,0,10.52-1.87,14.25-5.7l6.58,7.57
			c-4.72,5.6-12.09,8.55-21.13,8.55c-17.59,0-28.99-11.3-28.99-26.93c0-15.63,11.5-26.83,27.12-26.83
			c15.33,0,26.53,10.71,26.53,27.12C4158.96,538.1,4158.86,539.58,4158.76,540.76z M4117.49,532.6h29.78
			c-0.98-7.57-6.78-12.78-14.84-12.78C4124.46,519.82,4118.67,524.93,4117.49,532.6z"/>
	</g>
	<path class="st28" d="M5026.87,627.64h-540.38c-53.81,0-97.43-43.62-97.43-97.43v-12.15c0-53.81,43.62-97.43,97.43-97.43h540.38
		c53.81,0,97.43,43.62,97.43,97.43v12.15C5124.3,584.02,5080.68,627.64,5026.87,627.64z"/>
	<g>
		<path class="st3" d="M4546.94,555.79l4.42-9.93c5.5,4.42,14.25,7.57,22.7,7.57c10.71,0,15.23-3.83,15.23-8.94
			c0-14.84-40.88-5.11-40.88-30.66c0-11.11,8.84-20.54,27.71-20.54c8.26,0,16.9,2.16,22.9,6.09l-4.03,9.93
			c-6.19-3.64-12.97-5.41-18.97-5.41c-10.61,0-14.94,4.13-14.94,9.34c0,14.64,40.78,5.11,40.78,30.37
			c0,11.01-8.94,20.44-27.81,20.44C4563.35,564.05,4552.64,560.71,4546.94,555.79z"/>
		<path class="st3" d="M4611.7,494.57c0-4.13,3.34-7.37,7.86-7.37c4.52,0,7.86,3.05,7.86,7.08c0,4.32-3.24,7.67-7.86,7.67
			C4615.05,501.94,4611.7,498.7,4611.7,494.57z M4613.38,510.59h12.28v52.48h-12.28V510.59z"/>
		<path class="st3" d="M4693.86,510.59v44.52c0,19.07-9.93,27.71-28.3,27.71c-9.83,0-19.56-2.56-25.55-7.47l5.5-9.24
			c4.62,3.83,12.09,6.29,19.36,6.29c11.6,0,16.71-5.31,16.71-15.92v-2.75c-4.33,4.72-10.52,6.98-17.59,6.98
			c-15.04,0-26.53-10.22-26.53-25.45s11.5-25.26,26.53-25.26c7.37,0,13.86,2.36,18.18,7.57v-6.98H4693.86z M4681.77,535.25
			c0-8.84-6.68-14.84-15.92-14.84c-9.34,0-16.02,6-16.02,14.84c0,8.94,6.68,15.04,16.02,15.04
			C4675.09,550.29,4681.77,544.2,4681.77,535.25z"/>
		<path class="st3" d="M4761.67,532.99v30.07h-12.28v-28.5c0-9.34-4.62-13.86-12.48-13.86c-8.75,0-14.64,5.31-14.64,15.82v26.53
			h-12.28v-52.48h11.69v6.78c4.03-4.81,10.42-7.37,18.08-7.37C4752.33,510,4761.67,517.17,4761.67,532.99z"/>
		<path class="st3" d="M4805.01,533.09v-38.82h12.78v38.33c0,14.15,6.39,20.24,17.49,20.24s17.39-6.09,17.39-20.24v-38.33h12.58
			v38.82c0,20.05-11.3,30.96-30.07,30.96C4816.31,564.05,4805.01,553.14,4805.01,533.09z"/>
		<path class="st3" d="M4937.68,536.82c0,16.31-11.3,26.93-26.63,26.93c-6.68,0-12.58-2.26-16.8-7.08v25.45h-12.28v-71.54h11.69
			v6.88c4.13-5.01,10.22-7.47,17.39-7.47C4926.38,510,4937.68,520.61,4937.68,536.82z M4925.2,536.82
			c0-10.02-6.68-16.41-15.53-16.41s-15.62,6.39-15.62,16.41c0,10.02,6.78,16.41,15.62,16.41S4925.2,546.85,4925.2,536.82z"/>
	</g>
	<g>
		<path class="st29" d="M745.43,1813.78h6.3v54.17h33.39v5.45h-39.69V1813.78z"/>
		<path class="st29" d="M789.12,1851c0-13.29,9.71-22.74,22.83-22.74c13.12,0,22.74,9.45,22.74,22.74
			c0,13.29-9.62,22.83-22.74,22.83C798.83,1873.83,789.12,1864.29,789.12,1851z M828.55,1851c0-10.48-7.07-17.46-16.61-17.46
			c-9.54,0-16.69,6.98-16.69,17.46c0,10.48,7.15,17.46,16.69,17.46C821.48,1868.46,828.55,1861.48,828.55,1851z"/>
		<path class="st29" d="M869.6,1828.26v5.88c-0.51,0-1.02-0.09-1.45-0.09c-9.37,0-15.08,5.96-15.08,16.52v22.83h-6.05v-44.8h5.79
			v8.77C855.64,1831.41,861.34,1828.26,869.6,1828.26z"/>
		<path class="st29" d="M919.09,1852.87h-37.48c0.68,9.37,7.84,15.59,17.63,15.59c5.45,0,10.31-1.96,13.71-5.88l3.41,3.92
			c-4,4.77-10.22,7.33-17.29,7.33c-13.97,0-23.51-9.54-23.51-22.83c0-13.29,9.28-22.74,21.89-22.74c12.61,0,21.72,9.28,21.72,22.74
			C919.17,1851.51,919.09,1852.19,919.09,1852.87z M881.61,1848.36h31.77c-0.77-8.77-7.15-14.91-15.93-14.91
			C888.77,1833.45,882.38,1839.59,881.61,1848.36z"/>
		<path class="st29" d="M1005.45,1847.42v25.98h-6.05v-25.38c0-9.45-4.77-14.31-12.86-14.31c-9.2,0-14.99,5.96-14.99,16.18v23.51
			h-6.05v-25.38c0-9.45-4.77-14.31-12.95-14.31c-9.11,0-14.99,5.96-14.99,16.18v23.51h-6.05v-44.8h5.79v8.18
			c3.15-5.37,8.94-8.52,16.44-8.52c7.41,0,13.2,3.15,15.93,9.45c3.24-5.79,9.62-9.45,17.72-9.45
			C998.3,1828.26,1005.45,1834.56,1005.45,1847.42z"/>
		<path class="st29" d="M1042.83,1814.46c0-2.3,1.96-4.26,4.43-4.26c2.47,0,4.43,1.87,4.43,4.17c0,2.47-1.87,4.43-4.43,4.43
			C1044.79,1818.81,1042.83,1816.85,1042.83,1814.46z M1044.2,1828.6h6.05v44.8h-6.05V1828.6z"/>
		<path class="st29" d="M1112.5,1851c0,13.63-9.54,22.83-22.32,22.83c-7.15,0-13.29-3.07-17.03-8.86v24.96h-6.05v-61.33h5.79v8.86
			c3.66-5.96,9.88-9.2,17.29-9.2C1102.96,1828.26,1112.5,1837.46,1112.5,1851z M1106.46,1851c0-10.39-7.24-17.46-16.69-17.46
			c-9.54,0-16.69,7.07-16.69,17.46c0,10.48,7.15,17.46,16.69,17.46C1099.22,1868.46,1106.46,1861.48,1106.46,1851z"/>
		<path class="st29" d="M1118.63,1868.29l2.73-4.77c3.58,2.81,9.62,5.03,15.93,5.03c8.52,0,12.01-2.9,12.01-7.32
			c0-11.67-29.04-2.47-29.04-20.19c0-7.32,6.3-12.78,17.72-12.78c5.79,0,12.09,1.62,15.84,4.17l-2.64,4.85
			c-3.92-2.73-8.6-3.83-13.2-3.83c-8.09,0-11.67,3.15-11.67,7.41c0,12.09,29.04,2.98,29.04,20.19c0,7.75-6.81,12.78-18.48,12.78
			C1129.45,1873.83,1122.3,1871.44,1118.63,1868.29z"/>
		<path class="st29" d="M1206.87,1828.6v44.8h-5.79v-8.18c-3.15,5.45-8.94,8.6-16.1,8.6c-11.41,0-18.91-6.39-18.91-19.25v-25.98
			h6.05v25.38c0,9.54,4.94,14.39,13.46,14.39c9.37,0,15.25-6.05,15.25-16.27v-23.51H1206.87z"/>
		<path class="st29" d="M1297.75,1847.42v25.98h-6.05v-25.38c0-9.45-4.77-14.31-12.86-14.31c-9.2,0-14.99,5.96-14.99,16.18v23.51
			h-6.05v-25.38c0-9.45-4.77-14.31-12.95-14.31c-9.11,0-14.99,5.96-14.99,16.18v23.51h-6.05v-44.8h5.79v8.18
			c3.15-5.37,8.94-8.52,16.44-8.52c7.41,0,13.2,3.15,15.93,9.45c3.24-5.79,9.62-9.45,17.72-9.45
			C1290.59,1828.26,1297.75,1834.56,1297.75,1847.42z"/>
		<path class="st29" d="M1377.38,1810.2v63.2h-5.79v-8.86c-3.66,6.05-9.88,9.28-17.29,9.28c-12.78,0-22.32-9.28-22.32-22.83
			c0-13.54,9.54-22.74,22.32-22.74c7.15,0,13.29,3.07,17.03,8.86v-26.91H1377.38z M1371.41,1851c0-10.48-7.15-17.46-16.61-17.46
			c-9.54,0-16.69,6.98-16.69,17.46c0,10.48,7.15,17.46,16.69,17.46C1364.26,1868.46,1371.41,1861.48,1371.41,1851z"/>
		<path class="st29" d="M1389.72,1851c0-13.29,9.71-22.74,22.83-22.74c13.12,0,22.74,9.45,22.74,22.74
			c0,13.29-9.62,22.83-22.74,22.83C1399.43,1873.83,1389.72,1864.29,1389.72,1851z M1429.16,1851c0-10.48-7.07-17.46-16.61-17.46
			c-9.54,0-16.69,6.98-16.69,17.46c0,10.48,7.15,17.46,16.69,17.46C1422.09,1868.46,1429.16,1861.48,1429.16,1851z"/>
		<path class="st29" d="M1447.64,1810.2h6.05v63.2h-6.05V1810.2z"/>
		<path class="st29" d="M1466.03,1851c0-13.29,9.71-22.74,22.83-22.74c13.12,0,22.74,9.45,22.74,22.74
			c0,13.29-9.62,22.83-22.74,22.83C1475.74,1873.83,1466.03,1864.29,1466.03,1851z M1505.47,1851c0-10.48-7.07-17.46-16.61-17.46
			c-9.54,0-16.69,6.98-16.69,17.46c0,10.48,7.15,17.46,16.69,17.46C1498.4,1868.46,1505.47,1861.48,1505.47,1851z"/>
		<path class="st29" d="M1546.52,1828.26v5.88c-0.51,0-1.02-0.09-1.45-0.09c-9.37,0-15.08,5.96-15.08,16.52v22.83h-6.05v-44.8h5.79
			v8.77C1532.55,1831.41,1538.26,1828.26,1546.52,1828.26z"/>
		<path class="st29" d="M1574.2,1868.29l2.73-4.77c3.58,2.81,9.62,5.03,15.93,5.03c8.52,0,12.01-2.9,12.01-7.32
			c0-11.67-29.04-2.47-29.04-20.19c0-7.32,6.3-12.78,17.72-12.78c5.79,0,12.09,1.62,15.84,4.17l-2.64,4.85
			c-3.92-2.73-8.6-3.83-13.2-3.83c-8.09,0-11.67,3.15-11.67,7.41c0,12.09,29.04,2.98,29.04,20.19c0,7.75-6.81,12.78-18.48,12.78
			C1585.01,1873.83,1577.86,1871.44,1574.2,1868.29z"/>
		<path class="st29" d="M1620.7,1814.46c0-2.3,1.96-4.26,4.43-4.26s4.43,1.87,4.43,4.17c0,2.47-1.87,4.43-4.43,4.43
			C1622.66,1818.81,1620.7,1816.85,1620.7,1814.46z M1622.06,1828.6h6.05v44.8h-6.05V1828.6z"/>
		<path class="st29" d="M1668.57,1870.68c-2.39,2.13-5.96,3.15-9.45,3.15c-8.43,0-13.12-4.77-13.12-13.03v-27.09h-8.01v-5.11h8.01
			v-9.79h6.05v9.79h13.63v5.11h-13.63v26.74c0,5.28,2.73,8.18,7.75,8.18c2.47,0,4.94-0.77,6.64-2.3L1668.57,1870.68z"/>
		<path class="st29" d="M1735.68,1845.63v27.77h-5.79v-6.98c-2.73,4.6-8.01,7.41-15.42,7.41c-10.14,0-16.35-5.28-16.35-13.03
			c0-6.9,4.43-12.69,17.29-12.69h14.22v-2.73c0-7.67-4.34-11.84-12.69-11.84c-5.79,0-11.24,2.04-14.91,5.28l-2.73-4.51
			c4.51-3.83,11.16-6.05,18.23-6.05C1729.12,1828.26,1735.68,1834.05,1735.68,1845.63z M1729.63,1859.94v-7.32h-14.05
			c-8.69,0-11.5,3.41-11.5,8.01c0,5.2,4.17,8.43,11.33,8.43C1722.22,1869.06,1727.24,1865.82,1729.63,1859.94z"/>
		<path class="st29" d="M1826.04,1847.42v25.98H1820v-25.38c0-9.45-4.77-14.31-12.86-14.31c-9.2,0-14.99,5.96-14.99,16.18v23.51
			h-6.05v-25.38c0-9.45-4.77-14.31-12.95-14.31c-9.11,0-14.99,5.96-14.99,16.18v23.51h-6.05v-44.8h5.79v8.18
			c3.15-5.37,8.94-8.52,16.44-8.52c7.41,0,13.2,3.15,15.93,9.45c3.24-5.79,9.62-9.45,17.72-9.45
			C1818.89,1828.26,1826.04,1834.56,1826.04,1847.42z"/>
		<path class="st29" d="M1881.66,1852.87h-37.48c0.68,9.37,7.84,15.59,17.63,15.59c5.45,0,10.31-1.96,13.71-5.88l3.41,3.92
			c-4,4.77-10.22,7.33-17.29,7.33c-13.97,0-23.51-9.54-23.51-22.83c0-13.29,9.28-22.74,21.89-22.74s21.72,9.28,21.72,22.74
			C1881.74,1851.51,1881.66,1852.19,1881.66,1852.87z M1844.18,1848.36h31.77c-0.77-8.77-7.15-14.91-15.93-14.91
			C1851.33,1833.45,1844.95,1839.59,1844.18,1848.36z"/>
		<path class="st29" d="M1917.68,1870.68c-2.39,2.13-5.96,3.15-9.45,3.15c-8.43,0-13.12-4.77-13.12-13.03v-27.09h-8.01v-5.11h8.01
			v-9.79h6.05v9.79h13.63v5.11h-13.63v26.74c0,5.28,2.73,8.18,7.75,8.18c2.47,0,4.94-0.77,6.64-2.3L1917.68,1870.68z"/>
		<path class="st29" d="M1934.71,1869.14c0,1.45-0.34,2.55-1.19,4.94l-3.58,11.75h-4.09l2.9-12.35c-1.79-0.51-3.07-2.13-3.07-4.34
			c0-2.64,1.96-4.6,4.51-4.6C1932.84,1864.54,1934.71,1866.59,1934.71,1869.14z"/>
		<path class="st29" d="M1965.37,1851c0-13.37,9.71-22.74,23.08-22.74c7.58,0,13.97,2.98,17.55,8.86l-4.51,3.07
			c-3.07-4.51-7.84-6.64-13.03-6.64c-9.8,0-16.95,6.98-16.95,17.46c0,10.56,7.15,17.46,16.95,17.46c5.2,0,9.96-2.04,13.03-6.56
			l4.51,3.07c-3.58,5.79-9.96,8.86-17.55,8.86C1975.08,1873.83,1965.37,1864.37,1965.37,1851z"/>
		<path class="st29" d="M2012.55,1851c0-13.29,9.71-22.74,22.83-22.74c13.12,0,22.74,9.45,22.74,22.74
			c0,13.29-9.62,22.83-22.74,22.83C2022.26,1873.83,2012.55,1864.29,2012.55,1851z M2051.99,1851c0-10.48-7.07-17.46-16.61-17.46
			c-9.54,0-16.69,6.98-16.69,17.46c0,10.48,7.15,17.46,16.69,17.46C2044.92,1868.46,2051.99,1861.48,2051.99,1851z"/>
		<path class="st29" d="M2111.69,1847.42v25.98h-6.05v-25.38c0-9.45-4.94-14.31-13.46-14.31c-9.62,0-15.67,5.96-15.67,16.18v23.51
			h-6.05v-44.8h5.79v8.26c3.24-5.45,9.28-8.6,17.03-8.6C2104.2,1828.26,2111.69,1834.56,2111.69,1847.42z"/>
		<path class="st29" d="M2121.91,1868.29l2.73-4.77c3.58,2.81,9.62,5.03,15.93,5.03c8.52,0,12.01-2.9,12.01-7.32
			c0-11.67-29.04-2.47-29.04-20.19c0-7.32,6.3-12.78,17.72-12.78c5.79,0,12.09,1.62,15.84,4.17l-2.64,4.85
			c-3.92-2.73-8.6-3.83-13.2-3.83c-8.09,0-11.67,3.15-11.67,7.41c0,12.09,29.04,2.98,29.04,20.19c0,7.75-6.81,12.78-18.48,12.78
			C2132.73,1873.83,2125.57,1871.44,2121.91,1868.29z"/>
		<path class="st29" d="M2208.78,1852.87h-37.48c0.68,9.37,7.84,15.59,17.63,15.59c5.45,0,10.31-1.96,13.71-5.88l3.41,3.92
			c-4,4.77-10.22,7.33-17.29,7.33c-13.97,0-23.51-9.54-23.51-22.83c0-13.29,9.28-22.74,21.89-22.74s21.72,9.28,21.72,22.74
			C2208.87,1851.51,2208.78,1852.19,2208.78,1852.87z M2171.31,1848.36h31.77c-0.77-8.77-7.15-14.91-15.93-14.91
			C2178.46,1833.45,2172.07,1839.59,2171.31,1848.36z"/>
		<path class="st29" d="M2216.7,1851c0-13.37,9.71-22.74,23.08-22.74c7.58,0,13.97,2.98,17.55,8.86l-4.51,3.07
			c-3.07-4.51-7.84-6.64-13.03-6.64c-9.8,0-16.95,6.98-16.95,17.46c0,10.56,7.15,17.46,16.95,17.46c5.2,0,9.96-2.04,13.03-6.56
			l4.51,3.07c-3.58,5.79-9.96,8.86-17.55,8.86C2226.41,1873.83,2216.7,1864.37,2216.7,1851z"/>
		<path class="st29" d="M2293.27,1870.68c-2.39,2.13-5.96,3.15-9.45,3.15c-8.43,0-13.12-4.77-13.12-13.03v-27.09h-8.01v-5.11h8.01
			v-9.79h6.05v9.79h13.63v5.11h-13.63v26.74c0,5.28,2.73,8.18,7.75,8.18c2.47,0,4.94-0.77,6.64-2.3L2293.27,1870.68z"/>
		<path class="st29" d="M2341.64,1852.87h-37.48c0.68,9.37,7.84,15.59,17.63,15.59c5.45,0,10.31-1.96,13.71-5.88l3.41,3.92
			c-4,4.77-10.22,7.33-17.29,7.33c-13.97,0-23.51-9.54-23.51-22.83c0-13.29,9.28-22.74,21.89-22.74c12.61,0,21.72,9.28,21.72,22.74
			C2341.73,1851.51,2341.64,1852.19,2341.64,1852.87z M2304.17,1848.36h31.77c-0.77-8.77-7.15-14.91-15.93-14.91
			C2311.32,1833.45,2304.93,1839.59,2304.17,1848.36z"/>
		<path class="st29" d="M2377.67,1870.68c-2.39,2.13-5.96,3.15-9.45,3.15c-8.43,0-13.12-4.77-13.12-13.03v-27.09h-8.01v-5.11h8.01
			v-9.79h6.05v9.79h13.63v5.11h-13.63v26.74c0,5.28,2.73,8.18,7.75,8.18c2.47,0,4.94-0.77,6.64-2.3L2377.67,1870.68z"/>
		<path class="st29" d="M2429.03,1828.6v44.8h-5.79v-8.18c-3.15,5.45-8.94,8.6-16.1,8.6c-11.41,0-18.91-6.39-18.91-19.25v-25.98
			h6.05v25.38c0,9.54,4.94,14.39,13.46,14.39c9.37,0,15.25-6.05,15.25-16.27v-23.51H2429.03z"/>
		<path class="st29" d="M2484.98,1852.87h-37.48c0.68,9.37,7.84,15.59,17.63,15.59c5.45,0,10.31-1.96,13.71-5.88l3.41,3.92
			c-4,4.77-10.22,7.33-17.29,7.33c-13.97,0-23.51-9.54-23.51-22.83c0-13.29,9.28-22.74,21.89-22.74s21.72,9.28,21.72,22.74
			C2485.07,1851.51,2484.98,1852.19,2484.98,1852.87z M2447.5,1848.36h31.77c-0.77-8.77-7.15-14.91-15.93-14.91
			C2454.66,1833.45,2448.27,1839.59,2447.5,1848.36z"/>
		<path class="st29" d="M2519.98,1828.26v5.88c-0.51,0-1.02-0.09-1.45-0.09c-9.37,0-15.08,5.96-15.08,16.52v22.83h-6.05v-44.8h5.79
			v8.77C2506.01,1831.41,2511.72,1828.26,2519.98,1828.26z"/>
		<path class="st29" d="M777.96,1968.28v27.77h-5.79v-6.98c-2.73,4.6-8.01,7.41-15.42,7.41c-10.14,0-16.35-5.28-16.35-13.03
			c0-6.9,4.43-12.69,17.29-12.69h14.22v-2.73c0-7.66-4.34-11.84-12.69-11.84c-5.79,0-11.24,2.04-14.91,5.28l-2.73-4.51
			c4.51-3.83,11.16-6.05,18.23-6.05C771.4,1950.9,777.96,1956.69,777.96,1968.28z M771.92,1982.59v-7.32h-14.05
			c-8.69,0-11.5,3.41-11.5,8.01c0,5.19,4.17,8.43,11.33,8.43C764.51,1991.7,769.53,1988.46,771.92,1982.59z"/>
		<path class="st29" d="M835.45,1932.85v63.2h-5.79v-8.86c-3.66,6.05-9.88,9.28-17.29,9.28c-12.78,0-22.32-9.28-22.32-22.83
			c0-13.54,9.54-22.74,22.32-22.74c7.15,0,13.29,3.07,17.03,8.86v-26.91H835.45z M829.49,1973.64c0-10.48-7.15-17.46-16.61-17.46
			c-9.54,0-16.69,6.98-16.69,17.46s7.15,17.46,16.69,17.46C822.34,1991.1,829.49,1984.12,829.49,1973.64z"/>
		<path class="st29" d="M850.95,1937.1c0-2.3,1.96-4.26,4.43-4.26c2.47,0,4.43,1.87,4.43,4.17c0,2.47-1.87,4.43-4.43,4.43
			C852.91,1941.45,850.95,1939.49,850.95,1937.1z M852.31,1951.24h6.05v44.8h-6.05V1951.24z"/>
		<path class="st29" d="M920.62,1973.64c0,13.63-9.54,22.83-22.32,22.83c-7.15,0-13.29-3.07-17.03-8.86v24.96h-6.05v-61.33h5.79
			v8.86c3.66-5.96,9.88-9.2,17.29-9.2C911.08,1950.9,920.62,1960.1,920.62,1973.64z M914.57,1973.64c0-10.39-7.24-17.46-16.69-17.46
			c-9.54,0-16.69,7.07-16.69,17.46c0,10.48,7.15,17.46,16.69,17.46C907.33,1991.1,914.57,1984.12,914.57,1973.64z"/>
		<path class="st29" d="M931.61,1937.1c0-2.3,1.96-4.26,4.43-4.26c2.47,0,4.43,1.87,4.43,4.17c0,2.47-1.87,4.43-4.43,4.43
			C933.56,1941.45,931.61,1939.49,931.61,1937.1z M932.97,1951.24h6.05v44.8h-6.05V1951.24z"/>
		<path class="st29" d="M949.66,1990.93l2.73-4.77c3.58,2.81,9.62,5.03,15.93,5.03c8.52,0,12.01-2.9,12.01-7.33
			c0-11.67-29.04-2.47-29.04-20.19c0-7.32,6.3-12.78,17.72-12.78c5.79,0,12.09,1.62,15.84,4.17l-2.64,4.85
			c-3.92-2.73-8.6-3.83-13.2-3.83c-8.09,0-11.67,3.15-11.67,7.41c0,12.09,29.04,2.98,29.04,20.19c0,7.75-6.81,12.78-18.48,12.78
			C960.48,1996.47,953.32,1994.09,949.66,1990.93z"/>
		<path class="st29" d="M993.01,1973.64c0-13.37,9.71-22.74,23.08-22.74c7.58,0,13.97,2.98,17.55,8.86l-4.51,3.07
			c-3.07-4.51-7.84-6.64-13.03-6.64c-9.8,0-16.95,6.98-16.95,17.46c0,10.56,7.15,17.46,16.95,17.46c5.2,0,9.96-2.04,13.03-6.56
			l4.51,3.07c-3.58,5.79-9.96,8.86-17.55,8.86C1002.72,1996.47,993.01,1987.02,993.01,1973.64z"/>
		<path class="st29" d="M1044.11,1937.1c0-2.3,1.96-4.26,4.43-4.26c2.47,0,4.43,1.87,4.43,4.17c0,2.47-1.87,4.43-4.43,4.43
			C1046.07,1941.45,1044.11,1939.49,1044.11,1937.1z M1045.47,1951.24h6.05v44.8h-6.05V1951.24z"/>
		<path class="st29" d="M1109.61,1970.07v25.98h-6.05v-25.38c0-9.45-4.94-14.31-13.46-14.31c-9.62,0-15.67,5.96-15.67,16.18v23.51
			h-6.05v-44.8h5.79v8.26c3.24-5.45,9.28-8.6,17.03-8.6C1102.11,1950.9,1109.61,1957.21,1109.61,1970.07z"/>
		<path class="st29" d="M1167.69,1951.24v39.35c0,15.42-7.58,22.4-22.4,22.4c-8.18,0-16.18-2.47-20.87-6.9l3.07-4.6
			c4.26,3.83,10.73,6.13,17.63,6.13c11.33,0,16.52-5.2,16.52-16.27v-5.71c-3.75,5.71-10.14,8.69-17.46,8.69
			c-12.78,0-22.49-8.94-22.49-21.8c0-12.86,9.71-21.63,22.49-21.63c7.5,0,13.97,3.07,17.72,8.94v-8.6H1167.69z M1161.81,1972.54
			c0-9.71-7.15-16.35-17.03-16.35c-9.88,0-16.95,6.64-16.95,16.35c0,9.71,7.07,16.44,16.95,16.44
			C1154.66,1988.97,1161.81,1982.25,1161.81,1972.54z"/>
		<path class="st29" d="M1245.96,1975.52h-37.48c0.68,9.37,7.84,15.59,17.63,15.59c5.45,0,10.31-1.96,13.71-5.88l3.41,3.92
			c-4,4.77-10.22,7.32-17.29,7.32c-13.97,0-23.51-9.54-23.51-22.83c0-13.29,9.28-22.74,21.89-22.74s21.72,9.28,21.72,22.74
			C1246.05,1974.15,1245.96,1974.84,1245.96,1975.52z M1208.48,1971h31.77c-0.77-8.77-7.15-14.91-15.93-14.91
			C1215.64,1956.1,1209.25,1962.23,1208.48,1971z"/>
		<path class="st29" d="M1258.39,1932.85h6.05v63.2h-6.05V1932.85z"/>
		<path class="st29" d="M1279.94,1937.1c0-2.3,1.96-4.26,4.43-4.26c2.47,0,4.43,1.87,4.43,4.17c0,2.47-1.87,4.43-4.43,4.43
			C1281.9,1941.45,1279.94,1939.49,1279.94,1937.1z M1281.3,1951.24h6.05v44.8h-6.05V1951.24z"/>
		<path class="st29" d="M1327.8,1993.32c-2.39,2.13-5.96,3.15-9.45,3.15c-8.43,0-13.12-4.77-13.12-13.03v-27.08h-8.01v-5.11h8.01
			v-9.79h6.05v9.79h13.63v5.11h-13.63v26.74c0,5.28,2.73,8.18,7.75,8.18c2.47,0,4.94-0.77,6.64-2.3L1327.8,1993.32z"/>
		<path class="st29" d="M1344.84,1991.79c0,1.45-0.34,2.56-1.19,4.94l-3.58,11.75h-4.09l2.9-12.35c-1.79-0.51-3.07-2.13-3.07-4.34
			c0-2.64,1.96-4.6,4.51-4.6C1342.96,1987.19,1344.84,1989.23,1344.84,1991.79z"/>
		<path class="st29" d="M1373.79,1990.93l2.73-4.77c3.58,2.81,9.62,5.03,15.93,5.03c8.52,0,12.01-2.9,12.01-7.33
			c0-11.67-29.04-2.47-29.04-20.19c0-7.32,6.3-12.78,17.72-12.78c5.79,0,12.09,1.62,15.84,4.17l-2.64,4.85
			c-3.92-2.73-8.6-3.83-13.2-3.83c-8.09,0-11.67,3.15-11.67,7.41c0,12.09,29.04,2.98,29.04,20.19c0,7.75-6.81,12.78-18.48,12.78
			C1384.61,1996.47,1377.45,1994.09,1373.79,1990.93z"/>
		<path class="st29" d="M1460.67,1975.52h-37.48c0.68,9.37,7.84,15.59,17.63,15.59c5.45,0,10.31-1.96,13.71-5.88l3.41,3.92
			c-4,4.77-10.22,7.32-17.29,7.32c-13.97,0-23.51-9.54-23.51-22.83c0-13.29,9.28-22.74,21.89-22.74s21.72,9.28,21.72,22.74
			C1460.75,1974.15,1460.67,1974.84,1460.67,1975.52z M1423.19,1971h31.77c-0.77-8.77-7.15-14.91-15.93-14.91
			C1430.34,1956.1,1423.96,1962.23,1423.19,1971z"/>
		<path class="st29" d="M1513.98,1932.85v63.2h-5.79v-8.86c-3.66,6.05-9.88,9.28-17.29,9.28c-12.78,0-22.32-9.28-22.32-22.83
			c0-13.54,9.54-22.74,22.32-22.74c7.15,0,13.29,3.07,17.03,8.86v-26.91H1513.98z M1508.02,1973.64c0-10.48-7.15-17.46-16.61-17.46
			c-9.54,0-16.69,6.98-16.69,17.46s7.15,17.46,16.69,17.46C1500.86,1991.1,1508.02,1984.12,1508.02,1973.64z"/>
		<path class="st29" d="M1594.04,1932.85v63.2h-5.79v-8.86c-3.66,6.05-9.88,9.28-17.29,9.28c-12.78,0-22.32-9.28-22.32-22.83
			c0-13.54,9.54-22.74,22.32-22.74c7.15,0,13.29,3.07,17.03,8.86v-26.91H1594.04z M1588.08,1973.64c0-10.48-7.15-17.46-16.61-17.46
			c-9.54,0-16.69,6.98-16.69,17.46s7.15,17.46,16.69,17.46C1580.92,1991.1,1588.08,1984.12,1588.08,1973.64z"/>
		<path class="st29" d="M1609.54,1937.1c0-2.3,1.96-4.26,4.43-4.26c2.47,0,4.43,1.87,4.43,4.17c0,2.47-1.87,4.43-4.43,4.43
			C1611.5,1941.45,1609.54,1939.49,1609.54,1937.1z M1610.9,1951.24h6.05v44.8h-6.05V1951.24z"/>
		<path class="st29" d="M1667.62,1968.28v27.77h-5.79v-6.98c-2.73,4.6-8.01,7.41-15.42,7.41c-10.14,0-16.35-5.28-16.35-13.03
			c0-6.9,4.43-12.69,17.29-12.69h14.22v-2.73c0-7.66-4.34-11.84-12.69-11.84c-5.79,0-11.24,2.04-14.91,5.28l-2.73-4.51
			c4.51-3.83,11.16-6.05,18.23-6.05C1661.06,1950.9,1667.62,1956.69,1667.62,1968.28z M1661.58,1982.59v-7.32h-14.05
			c-8.69,0-11.5,3.41-11.5,8.01c0,5.19,4.17,8.43,11.33,8.43C1654.17,1991.7,1659.19,1988.46,1661.58,1982.59z"/>
		<path class="st29" d="M1757.99,1970.07v25.98h-6.05v-25.38c0-9.45-4.77-14.31-12.86-14.31c-9.2,0-14.99,5.96-14.99,16.18v23.51
			h-6.05v-25.38c0-9.45-4.77-14.31-12.95-14.31c-9.11,0-14.99,5.96-14.99,16.18v23.51h-6.05v-44.8h5.79v8.18
			c3.15-5.37,8.94-8.52,16.44-8.52c7.41,0,13.2,3.15,15.93,9.45c3.24-5.79,9.62-9.45,17.72-9.45
			C1750.84,1950.9,1757.99,1957.21,1757.99,1970.07z"/>
		<path class="st29" d="M1837.96,1970.07v25.98h-6.05v-25.38c0-9.45-4.94-14.31-13.46-14.31c-9.62,0-15.67,5.96-15.67,16.18v23.51
			h-6.05v-44.8h5.79v8.26c3.24-5.45,9.28-8.6,17.03-8.6C1830.47,1950.9,1837.96,1957.21,1837.96,1970.07z"/>
		<path class="st29" d="M1850.05,1973.64c0-13.29,9.71-22.74,22.83-22.74c13.12,0,22.74,9.45,22.74,22.74
			c0,13.29-9.62,22.83-22.74,22.83C1859.76,1996.47,1850.05,1986.93,1850.05,1973.64z M1889.49,1973.64
			c0-10.48-7.07-17.46-16.61-17.46c-9.54,0-16.69,6.98-16.69,17.46s7.15,17.46,16.69,17.46
			C1882.42,1991.1,1889.49,1984.12,1889.49,1973.64z"/>
		<path class="st29" d="M1949.19,1970.07v25.98h-6.05v-25.38c0-9.45-4.94-14.31-13.46-14.31c-9.62,0-15.67,5.96-15.67,16.18v23.51
			h-6.05v-44.8h5.79v8.26c3.24-5.45,9.28-8.6,17.03-8.6C1941.69,1950.9,1949.19,1957.21,1949.19,1970.07z"/>
		<path class="st29" d="M2006,1951.24v44.8h-5.79v-8.18c-3.15,5.45-8.94,8.6-16.1,8.6c-11.41,0-18.91-6.39-18.91-19.25v-25.98h6.05
			v25.38c0,9.54,4.94,14.39,13.46,14.39c9.37,0,15.25-6.05,15.25-16.27v-23.51H2006z"/>
		<path class="st29" d="M2096.87,1970.07v25.98h-6.05v-25.38c0-9.45-4.77-14.31-12.86-14.31c-9.2,0-14.99,5.96-14.99,16.18v23.51
			h-6.05v-25.38c0-9.45-4.77-14.31-12.95-14.31c-9.11,0-14.99,5.96-14.99,16.18v23.51h-6.05v-44.8h5.79v8.18
			c3.15-5.37,8.94-8.52,16.44-8.52c7.41,0,13.2,3.15,15.93,9.45c3.24-5.79,9.62-9.45,17.72-9.45
			C2089.72,1950.9,2096.87,1957.21,2096.87,1970.07z"/>
		<path class="st29" d="M2109.39,1991.79c0-2.64,2.04-4.6,4.51-4.6s4.6,1.96,4.6,4.6s-2.13,4.68-4.6,4.68
			S2109.39,1994.43,2109.39,1991.79z"/>
		<path class="st29" d="M2154.95,1936.42h6.3v54.17h33.39v5.45h-39.69V1936.42z"/>
		<path class="st29" d="M2198.64,1973.64c0-13.29,9.71-22.74,22.83-22.74c13.12,0,22.74,9.45,22.74,22.74
			c0,13.29-9.62,22.83-22.74,22.83C2208.35,1996.47,2198.64,1986.93,2198.64,1973.64z M2238.08,1973.64
			c0-10.48-7.07-17.46-16.61-17.46c-9.54,0-16.69,6.98-16.69,17.46s7.15,17.46,16.69,17.46
			C2231.01,1991.1,2238.08,1984.12,2238.08,1973.64z"/>
		<path class="st29" d="M2279.13,1950.9v5.88c-0.51,0-1.02-0.09-1.45-0.09c-9.37,0-15.08,5.96-15.08,16.52v22.83h-6.05v-44.8h5.79
			v8.77C2265.16,1954.05,2270.87,1950.9,2279.13,1950.9z"/>
		<path class="st29" d="M2328.61,1975.52h-37.48c0.68,9.37,7.84,15.59,17.63,15.59c5.45,0,10.31-1.96,13.71-5.88l3.41,3.92
			c-4,4.77-10.22,7.32-17.29,7.32c-13.97,0-23.51-9.54-23.51-22.83c0-13.29,9.28-22.74,21.89-22.74c12.61,0,21.72,9.28,21.72,22.74
			C2328.7,1974.15,2328.61,1974.84,2328.61,1975.52z M2291.14,1971h31.77c-0.77-8.77-7.15-14.91-15.93-14.91
			C2298.29,1956.1,2291.9,1962.23,2291.14,1971z"/>
		<path class="st29" d="M2414.97,1970.07v25.98h-6.05v-25.38c0-9.45-4.77-14.31-12.86-14.31c-9.2,0-14.99,5.96-14.99,16.18v23.51
			h-6.05v-25.38c0-9.45-4.77-14.31-12.95-14.31c-9.11,0-14.99,5.96-14.99,16.18v23.51h-6.05v-44.8h5.79v8.18
			c3.15-5.37,8.94-8.52,16.44-8.52c7.41,0,13.2,3.15,15.93,9.45c3.24-5.79,9.62-9.45,17.72-9.45
			C2407.82,1950.9,2414.97,1957.21,2414.97,1970.07z"/>
		<path class="st29" d="M742.79,2059.75c0-2.3,1.96-4.26,4.43-4.26c2.47,0,4.43,1.87,4.43,4.17c0,2.47-1.87,4.43-4.43,4.43
			C744.74,2064.09,742.79,2062.13,742.79,2059.75z M744.15,2073.89h6.05v44.8h-6.05V2073.89z"/>
		<path class="st29" d="M812.46,2096.29c0,13.63-9.54,22.83-22.32,22.83c-7.15,0-13.29-3.07-17.03-8.86v24.96h-6.05v-61.32h5.79
			v8.86c3.66-5.96,9.88-9.2,17.29-9.2C802.92,2073.54,812.46,2082.74,812.46,2096.29z M806.41,2096.29
			c0-10.39-7.24-17.46-16.69-17.46c-9.54,0-16.69,7.07-16.69,17.46c0,10.48,7.15,17.46,16.69,17.46
			C799.17,2113.75,806.41,2106.76,806.41,2096.29z"/>
		<path class="st29" d="M818.59,2113.58l2.73-4.77c3.58,2.81,9.62,5.03,15.93,5.03c8.52,0,12.01-2.89,12.01-7.32
			c0-11.67-29.04-2.47-29.04-20.19c0-7.33,6.3-12.78,17.72-12.78c5.79,0,12.09,1.62,15.84,4.17l-2.64,4.86
			c-3.92-2.73-8.6-3.83-13.2-3.83c-8.09,0-11.67,3.15-11.67,7.41c0,12.1,29.04,2.98,29.04,20.19c0,7.75-6.81,12.78-18.48,12.78
			C829.4,2119.11,822.25,2116.73,818.59,2113.58z"/>
		<path class="st29" d="M906.82,2073.89v44.8h-5.79v-8.18c-3.15,5.45-8.94,8.6-16.1,8.6c-11.41,0-18.91-6.39-18.91-19.25v-25.98
			h6.05v25.38c0,9.54,4.94,14.39,13.46,14.39c9.37,0,15.25-6.05,15.25-16.27v-23.51H906.82z"/>
		<path class="st29" d="M997.7,2092.71v25.98h-6.05v-25.38c0-9.45-4.77-14.31-12.86-14.31c-9.2,0-14.99,5.96-14.99,16.18v23.51
			h-6.05v-25.38c0-9.45-4.77-14.31-12.95-14.31c-9.11,0-14.99,5.96-14.99,16.18v23.51h-6.05v-44.8h5.79v8.18
			c3.15-5.37,8.94-8.52,16.44-8.52c7.41,0,13.2,3.15,15.93,9.46c3.24-5.79,9.62-9.46,17.72-9.46
			C990.55,2073.54,997.7,2079.85,997.7,2092.71z"/>
		<path class="st29" d="M1077.33,2055.49v63.2h-5.79v-8.86c-3.66,6.05-9.88,9.28-17.29,9.28c-12.78,0-22.32-9.28-22.32-22.83
			c0-13.54,9.54-22.74,22.32-22.74c7.15,0,13.29,3.07,17.03,8.86v-26.91H1077.33z M1071.37,2096.29c0-10.48-7.15-17.46-16.61-17.46
			c-9.54,0-16.69,6.98-16.69,17.46c0,10.48,7.15,17.46,16.69,17.46C1064.21,2113.75,1071.37,2106.76,1071.37,2096.29z"/>
		<path class="st29" d="M1089.68,2096.29c0-13.29,9.71-22.74,22.83-22.74c13.12,0,22.74,9.46,22.74,22.74
			c0,13.29-9.62,22.83-22.74,22.83C1099.39,2119.11,1089.68,2109.57,1089.68,2096.29z M1129.11,2096.29
			c0-10.48-7.07-17.46-16.61-17.46c-9.54,0-16.69,6.98-16.69,17.46c0,10.48,7.15,17.46,16.69,17.46
			C1122.04,2113.75,1129.11,2106.76,1129.11,2096.29z"/>
		<path class="st29" d="M1147.59,2055.49h6.05v63.2h-6.05V2055.49z"/>
		<path class="st29" d="M1165.99,2096.29c0-13.29,9.71-22.74,22.83-22.74c13.12,0,22.74,9.46,22.74,22.74
			c0,13.29-9.62,22.83-22.74,22.83C1175.7,2119.11,1165.99,2109.57,1165.99,2096.29z M1205.42,2096.29
			c0-10.48-7.07-17.46-16.61-17.46c-9.54,0-16.69,6.98-16.69,17.46c0,10.48,7.15,17.46,16.69,17.46
			C1198.35,2113.75,1205.42,2106.76,1205.42,2096.29z"/>
		<path class="st29" d="M1246.47,2073.54v5.88c-0.51,0-1.02-0.08-1.45-0.08c-9.37,0-15.08,5.96-15.08,16.52v22.83h-6.05v-44.8h5.79
			v8.77C1232.5,2076.7,1238.21,2073.54,1246.47,2073.54z"/>
		<path class="st29" d="M1274.15,2113.58l2.73-4.77c3.58,2.81,9.62,5.03,15.93,5.03c8.52,0,12.01-2.89,12.01-7.32
			c0-11.67-29.04-2.47-29.04-20.19c0-7.33,6.3-12.78,17.72-12.78c5.79,0,12.09,1.62,15.84,4.17l-2.64,4.86
			c-3.92-2.73-8.6-3.83-13.2-3.83c-8.09,0-11.67,3.15-11.67,7.41c0,12.1,29.04,2.98,29.04,20.19c0,7.75-6.81,12.78-18.48,12.78
			C1284.97,2119.11,1277.81,2116.73,1274.15,2113.58z"/>
		<path class="st29" d="M1320.65,2059.75c0-2.3,1.96-4.26,4.43-4.26s4.43,1.87,4.43,4.17c0,2.47-1.87,4.43-4.43,4.43
			C1322.61,2064.09,1320.65,2062.13,1320.65,2059.75z M1322.01,2073.89h6.05v44.8h-6.05V2073.89z"/>
		<path class="st29" d="M1368.52,2115.96c-2.39,2.13-5.96,3.15-9.45,3.15c-8.43,0-13.12-4.77-13.12-13.03V2079h-8.01v-5.11h8.01
			v-9.79h6.05v9.79h13.63v5.11h-13.63v26.75c0,5.28,2.73,8.18,7.75,8.18c2.47,0,4.94-0.77,6.64-2.3L1368.52,2115.96z"/>
		<path class="st29" d="M1435.63,2090.92v27.77h-5.79v-6.98c-2.73,4.6-8.01,7.41-15.42,7.41c-10.14,0-16.35-5.28-16.35-13.03
			c0-6.9,4.43-12.69,17.29-12.69h14.22v-2.73c0-7.67-4.34-11.84-12.69-11.84c-5.79,0-11.24,2.04-14.91,5.28l-2.73-4.51
			c4.51-3.83,11.16-6.05,18.23-6.05C1429.07,2073.54,1435.63,2079.34,1435.63,2090.92z M1429.58,2105.23v-7.33h-14.05
			c-8.69,0-11.5,3.41-11.5,8.01c0,5.19,4.17,8.43,11.33,8.43C1422.17,2114.34,1427.2,2111.11,1429.58,2105.23z"/>
		<path class="st29" d="M1526,2092.71v25.98h-6.05v-25.38c0-9.45-4.77-14.31-12.86-14.31c-9.2,0-14.99,5.96-14.99,16.18v23.51h-6.05
			v-25.38c0-9.45-4.77-14.31-12.95-14.31c-9.11,0-14.99,5.96-14.99,16.18v23.51h-6.05v-44.8h5.79v8.18
			c3.15-5.37,8.94-8.52,16.44-8.52c7.41,0,13.2,3.15,15.93,9.46c3.24-5.79,9.62-9.46,17.72-9.46
			C1518.84,2073.54,1526,2079.85,1526,2092.71z"/>
		<path class="st29" d="M1581.61,2098.16h-37.48c0.68,9.37,7.84,15.59,17.63,15.59c5.45,0,10.31-1.96,13.71-5.88l3.41,3.92
			c-4,4.77-10.22,7.32-17.29,7.32c-13.97,0-23.51-9.54-23.51-22.83c0-13.29,9.28-22.74,21.89-22.74c12.61,0,21.72,9.28,21.72,22.74
			C1581.69,2096.8,1581.61,2097.48,1581.61,2098.16z M1544.13,2093.65h31.77c-0.77-8.77-7.15-14.9-15.93-14.9
			C1551.29,2078.74,1544.9,2084.87,1544.13,2093.65z"/>
		<path class="st29" d="M1617.63,2115.96c-2.39,2.13-5.96,3.15-9.45,3.15c-8.43,0-13.12-4.77-13.12-13.03V2079h-8.01v-5.11h8.01
			v-9.79h6.05v9.79h13.63v5.11h-13.63v26.75c0,5.28,2.73,8.18,7.75,8.18c2.47,0,4.94-0.77,6.64-2.3L1617.63,2115.96z"/>
		<path class="st29" d="M1634.66,2114.43c0,1.45-0.34,2.55-1.19,4.94l-3.58,11.75h-4.09l2.9-12.35c-1.79-0.51-3.07-2.13-3.07-4.34
			c0-2.64,1.96-4.6,4.51-4.6C1632.79,2109.83,1634.66,2111.87,1634.66,2114.43z"/>
		<path class="st29" d="M1665.32,2096.29c0-13.37,9.71-22.74,23.08-22.74c7.58,0,13.97,2.98,17.55,8.86l-4.51,3.07
			c-3.07-4.51-7.84-6.64-13.03-6.64c-9.8,0-16.95,6.98-16.95,17.46c0,10.56,7.15,17.46,16.95,17.46c5.2,0,9.96-2.04,13.03-6.56
			l4.51,3.07c-3.58,5.79-9.96,8.86-17.55,8.86C1675.03,2119.11,1665.32,2109.66,1665.32,2096.29z"/>
		<path class="st29" d="M1712.51,2096.29c0-13.29,9.71-22.74,22.83-22.74c13.12,0,22.74,9.46,22.74,22.74
			c0,13.29-9.62,22.83-22.74,22.83C1722.22,2119.11,1712.51,2109.57,1712.51,2096.29z M1751.94,2096.29
			c0-10.48-7.07-17.46-16.61-17.46c-9.54,0-16.69,6.98-16.69,17.46c0,10.48,7.15,17.46,16.69,17.46
			C1744.87,2113.75,1751.94,2106.76,1751.94,2096.29z"/>
		<path class="st29" d="M1811.65,2092.71v25.98h-6.05v-25.38c0-9.45-4.94-14.31-13.46-14.31c-9.62,0-15.67,5.96-15.67,16.18v23.51
			h-6.05v-44.8h5.79v8.26c3.24-5.45,9.28-8.6,17.03-8.6C1804.15,2073.54,1811.65,2079.85,1811.65,2092.71z"/>
		<path class="st29" d="M1821.86,2113.58l2.73-4.77c3.58,2.81,9.62,5.03,15.93,5.03c8.52,0,12.01-2.89,12.01-7.32
			c0-11.67-29.04-2.47-29.04-20.19c0-7.33,6.3-12.78,17.72-12.78c5.79,0,12.09,1.62,15.84,4.17l-2.64,4.86
			c-3.92-2.73-8.6-3.83-13.2-3.83c-8.09,0-11.67,3.15-11.67,7.41c0,12.1,29.04,2.98,29.04,20.19c0,7.75-6.81,12.78-18.48,12.78
			C1832.68,2119.11,1825.52,2116.73,1821.86,2113.58z"/>
		<path class="st29" d="M1908.74,2098.16h-37.48c0.68,9.37,7.84,15.59,17.63,15.59c5.45,0,10.31-1.96,13.71-5.88l3.41,3.92
			c-4,4.77-10.22,7.32-17.29,7.32c-13.97,0-23.51-9.54-23.51-22.83c0-13.29,9.28-22.74,21.89-22.74c12.61,0,21.72,9.28,21.72,22.74
			C1908.82,2096.8,1908.74,2097.48,1908.74,2098.16z M1871.26,2093.65h31.77c-0.77-8.77-7.15-14.9-15.93-14.9
			C1878.42,2078.74,1872.03,2084.87,1871.26,2093.65z"/>
		<path class="st29" d="M1916.65,2096.29c0-13.37,9.71-22.74,23.08-22.74c7.58,0,13.97,2.98,17.55,8.86l-4.51,3.07
			c-3.07-4.51-7.84-6.64-13.03-6.64c-9.8,0-16.95,6.98-16.95,17.46c0,10.56,7.15,17.46,16.95,17.46c5.2,0,9.96-2.04,13.03-6.56
			l4.51,3.07c-3.58,5.79-9.96,8.86-17.55,8.86C1926.36,2119.11,1916.65,2109.66,1916.65,2096.29z"/>
		<path class="st29" d="M1993.22,2115.96c-2.39,2.13-5.96,3.15-9.45,3.15c-8.43,0-13.12-4.77-13.12-13.03V2079h-8.01v-5.11h8.01
			v-9.79h6.05v9.79h13.63v5.11h-13.63v26.75c0,5.28,2.73,8.18,7.75,8.18c2.47,0,4.94-0.77,6.64-2.3L1993.22,2115.96z"/>
		<path class="st29" d="M2041.6,2098.16h-37.48c0.68,9.37,7.84,15.59,17.63,15.59c5.45,0,10.31-1.96,13.71-5.88l3.41,3.92
			c-4,4.77-10.22,7.32-17.29,7.32c-13.97,0-23.51-9.54-23.51-22.83c0-13.29,9.28-22.74,21.89-22.74c12.61,0,21.72,9.28,21.72,22.74
			C2041.68,2096.8,2041.6,2097.48,2041.6,2098.16z M2004.12,2093.65h31.77c-0.77-8.77-7.15-14.9-15.93-14.9
			C2011.28,2078.74,2004.89,2084.87,2004.12,2093.65z"/>
		<path class="st29" d="M2077.62,2115.96c-2.39,2.13-5.96,3.15-9.45,3.15c-8.43,0-13.12-4.77-13.12-13.03V2079h-8.01v-5.11h8.01
			v-9.79h6.05v9.79h13.63v5.11h-13.63v26.75c0,5.28,2.73,8.18,7.75,8.18c2.47,0,4.94-0.77,6.64-2.3L2077.62,2115.96z"/>
		<path class="st29" d="M2128.98,2073.89v44.8h-5.79v-8.18c-3.15,5.45-8.94,8.6-16.1,8.6c-11.41,0-18.91-6.39-18.91-19.25v-25.98
			h6.05v25.38c0,9.54,4.94,14.39,13.46,14.39c9.37,0,15.25-6.05,15.25-16.27v-23.51H2128.98z"/>
		<path class="st29" d="M2184.93,2098.16h-37.48c0.68,9.37,7.84,15.59,17.63,15.59c5.45,0,10.31-1.96,13.71-5.88l3.41,3.92
			c-4,4.77-10.22,7.32-17.29,7.32c-13.97,0-23.51-9.54-23.51-22.83c0-13.29,9.28-22.74,21.89-22.74c12.61,0,21.72,9.28,21.72,22.74
			C2185.02,2096.8,2184.93,2097.48,2184.93,2098.16z M2147.46,2093.65h31.77c-0.77-8.77-7.15-14.9-15.93-14.9
			C2154.61,2078.74,2148.22,2084.87,2147.46,2093.65z"/>
		<path class="st29" d="M2219.94,2073.54v5.88c-0.51,0-1.02-0.08-1.45-0.08c-9.37,0-15.08,5.96-15.08,16.52v22.83h-6.05v-44.8h5.79
			v8.77C2205.97,2076.7,2211.67,2073.54,2219.94,2073.54z"/>
		<path class="st29" d="M2287.64,2090.92v27.77h-5.79v-6.98c-2.73,4.6-8.01,7.41-15.42,7.41c-10.14,0-16.35-5.28-16.35-13.03
			c0-6.9,4.43-12.69,17.29-12.69h14.22v-2.73c0-7.67-4.34-11.84-12.69-11.84c-5.79,0-11.24,2.04-14.91,5.28l-2.73-4.51
			c4.51-3.83,11.16-6.05,18.23-6.05C2281.08,2073.54,2287.64,2079.34,2287.64,2090.92z M2281.6,2105.23v-7.33h-14.05
			c-8.69,0-11.5,3.41-11.5,8.01c0,5.19,4.17,8.43,11.33,8.43C2274.19,2114.34,2279.21,2111.11,2281.6,2105.23z"/>
		<path class="st29" d="M2378.01,2092.71v25.98h-6.05v-25.38c0-9.45-4.77-14.31-12.86-14.31c-9.2,0-14.99,5.96-14.99,16.18v23.51
			h-6.05v-25.38c0-9.45-4.77-14.31-12.95-14.31c-9.11,0-14.99,5.96-14.99,16.18v23.51h-6.05v-44.8h5.79v8.18
			c3.15-5.37,8.94-8.52,16.44-8.52c7.41,0,13.2,3.15,15.93,9.46c3.24-5.79,9.62-9.46,17.72-9.46
			C2370.86,2073.54,2378.01,2079.85,2378.01,2092.71z"/>
		<path class="st29" d="M2433.62,2098.16h-37.48c0.68,9.37,7.84,15.59,17.63,15.59c5.45,0,10.31-1.96,13.71-5.88l3.41,3.92
			c-4,4.77-10.22,7.32-17.29,7.32c-13.97,0-23.51-9.54-23.51-22.83c0-13.29,9.28-22.74,21.89-22.74s21.72,9.28,21.72,22.74
			C2433.71,2096.8,2433.62,2097.48,2433.62,2098.16z M2396.15,2093.65h31.77c-0.77-8.77-7.15-14.9-15.93-14.9
			C2403.3,2078.74,2396.91,2084.87,2396.15,2093.65z"/>
		<path class="st29" d="M2469.65,2115.96c-2.39,2.13-5.96,3.15-9.45,3.15c-8.43,0-13.12-4.77-13.12-13.03V2079h-8.01v-5.11h8.01
			v-9.79h6.05v9.79h13.63v5.11h-13.63v26.75c0,5.28,2.73,8.18,7.75,8.18c2.47,0,4.94-0.77,6.64-2.3L2469.65,2115.96z"/>
		<path class="st29" d="M777.96,2213.56v27.77h-5.79v-6.98c-2.73,4.6-8.01,7.41-15.42,7.41c-10.14,0-16.35-5.28-16.35-13.03
			c0-6.9,4.43-12.69,17.29-12.69h14.22v-2.73c0-7.67-4.34-11.84-12.69-11.84c-5.79,0-11.24,2.04-14.91,5.28l-2.73-4.51
			c4.51-3.83,11.16-6.05,18.23-6.05C771.4,2196.19,777.96,2201.98,777.96,2213.56z M771.92,2227.87v-7.33h-14.05
			c-8.69,0-11.5,3.41-11.5,8.01c0,5.2,4.17,8.43,11.33,8.43C764.51,2236.99,769.53,2233.75,771.92,2227.87z"/>
		<path class="st29" d="M835.45,2178.13v63.2h-5.79v-8.86c-3.66,6.05-9.88,9.28-17.29,9.28c-12.78,0-22.32-9.28-22.32-22.83
			c0-13.54,9.54-22.74,22.32-22.74c7.15,0,13.29,3.07,17.03,8.86v-26.91H835.45z M829.49,2218.93c0-10.48-7.15-17.46-16.61-17.46
			c-9.54,0-16.69,6.98-16.69,17.46s7.15,17.46,16.69,17.46C822.34,2236.39,829.49,2229.41,829.49,2218.93z"/>
		<path class="st29" d="M850.95,2182.39c0-2.3,1.96-4.26,4.43-4.26c2.47,0,4.43,1.87,4.43,4.17c0,2.47-1.87,4.43-4.43,4.43
			C852.91,2186.73,850.95,2184.77,850.95,2182.39z M852.31,2196.53h6.05v44.8h-6.05V2196.53z"/>
		<path class="st29" d="M920.62,2218.93c0,13.63-9.54,22.83-22.32,22.83c-7.15,0-13.29-3.07-17.03-8.86v24.96h-6.05v-61.32h5.79
			v8.86c3.66-5.96,9.88-9.2,17.29-9.2C911.08,2196.19,920.62,2205.39,920.62,2218.93z M914.57,2218.93
			c0-10.39-7.24-17.46-16.69-17.46c-9.54,0-16.69,7.07-16.69,17.46c0,10.48,7.15,17.46,16.69,17.46
			C907.33,2236.39,914.57,2229.41,914.57,2218.93z"/>
		<path class="st29" d="M931.61,2182.39c0-2.3,1.96-4.26,4.43-4.26c2.47,0,4.43,1.87,4.43,4.17c0,2.47-1.87,4.43-4.43,4.43
			C933.56,2186.73,931.61,2184.77,931.61,2182.39z M932.97,2196.53h6.05v44.8h-6.05V2196.53z"/>
		<path class="st29" d="M949.66,2236.22l2.73-4.77c3.58,2.81,9.62,5.03,15.93,5.03c8.52,0,12.01-2.89,12.01-7.32
			c0-11.67-29.04-2.47-29.04-20.19c0-7.33,6.3-12.78,17.72-12.78c5.79,0,12.09,1.62,15.84,4.17l-2.64,4.86
			c-3.92-2.73-8.6-3.83-13.2-3.83c-8.09,0-11.67,3.15-11.67,7.41c0,12.09,29.04,2.98,29.04,20.19c0,7.75-6.81,12.78-18.48,12.78
			C960.48,2241.76,953.32,2239.37,949.66,2236.22z"/>
		<path class="st29" d="M993.01,2218.93c0-13.37,9.71-22.74,23.08-22.74c7.58,0,13.97,2.98,17.55,8.86l-4.51,3.07
			c-3.07-4.51-7.84-6.64-13.03-6.64c-9.8,0-16.95,6.98-16.95,17.46c0,10.56,7.15,17.46,16.95,17.46c5.2,0,9.96-2.04,13.03-6.56
			l4.51,3.07c-3.58,5.79-9.96,8.86-17.55,8.86C1002.72,2241.76,993.01,2232.3,993.01,2218.93z"/>
		<path class="st29" d="M1044.11,2182.39c0-2.3,1.96-4.26,4.43-4.26c2.47,0,4.43,1.87,4.43,4.17c0,2.47-1.87,4.43-4.43,4.43
			C1046.07,2186.73,1044.11,2184.77,1044.11,2182.39z M1045.47,2196.53h6.05v44.8h-6.05V2196.53z"/>
		<path class="st29" d="M1109.61,2215.35v25.98h-6.05v-25.38c0-9.45-4.94-14.31-13.46-14.31c-9.62,0-15.67,5.96-15.67,16.18v23.51
			h-6.05v-44.8h5.79v8.26c3.24-5.45,9.28-8.6,17.03-8.6C1102.11,2196.19,1109.61,2202.49,1109.61,2215.35z"/>
		<path class="st29" d="M1167.69,2196.53v39.35c0,15.42-7.58,22.4-22.4,22.4c-8.18,0-16.18-2.47-20.87-6.9l3.07-4.6
			c4.26,3.83,10.73,6.13,17.63,6.13c11.33,0,16.52-5.2,16.52-16.27v-5.71c-3.75,5.71-10.14,8.69-17.46,8.69
			c-12.78,0-22.49-8.94-22.49-21.8c0-12.86,9.71-21.64,22.49-21.64c7.5,0,13.97,3.07,17.72,8.94v-8.6H1167.69z M1161.81,2217.82
			c0-9.71-7.15-16.35-17.03-16.35c-9.88,0-16.95,6.64-16.95,16.35s7.07,16.44,16.95,16.44
			C1154.66,2234.26,1161.81,2227.53,1161.81,2217.82z"/>
		<path class="st29" d="M1245.96,2220.8h-37.48c0.68,9.37,7.84,15.59,17.63,15.59c5.45,0,10.31-1.96,13.71-5.88l3.41,3.92
			c-4,4.77-10.22,7.32-17.29,7.32c-13.97,0-23.51-9.54-23.51-22.83c0-13.29,9.28-22.74,21.89-22.74s21.72,9.28,21.72,22.74
			C1246.05,2219.44,1245.96,2220.12,1245.96,2220.8z M1208.48,2216.29h31.77c-0.77-8.77-7.15-14.9-15.93-14.9
			C1215.64,2201.38,1209.25,2207.52,1208.48,2216.29z"/>
		<path class="st29" d="M1258.39,2178.13h6.05v63.2h-6.05V2178.13z"/>
		<path class="st29" d="M1279.94,2182.39c0-2.3,1.96-4.26,4.43-4.26c2.47,0,4.43,1.87,4.43,4.17c0,2.47-1.87,4.43-4.43,4.43
			C1281.9,2186.73,1279.94,2184.77,1279.94,2182.39z M1281.3,2196.53h6.05v44.8h-6.05V2196.53z"/>
		<path class="st29" d="M1327.8,2238.61c-2.39,2.13-5.96,3.15-9.45,3.15c-8.43,0-13.12-4.77-13.12-13.03v-27.09h-8.01v-5.11h8.01
			v-9.79h6.05v9.79h13.63v5.11h-13.63v26.75c0,5.28,2.73,8.18,7.75,8.18c2.47,0,4.94-0.77,6.64-2.3L1327.8,2238.61z"/>
		<path class="st29" d="M1344.84,2237.07c0,1.45-0.34,2.56-1.19,4.94l-3.58,11.75h-4.09l2.9-12.35c-1.79-0.51-3.07-2.13-3.07-4.34
			c0-2.64,1.96-4.6,4.51-4.6C1342.96,2232.47,1344.84,2234.52,1344.84,2237.07z"/>
		<path class="st29" d="M1373.79,2236.22l2.73-4.77c3.58,2.81,9.62,5.03,15.93,5.03c8.52,0,12.01-2.89,12.01-7.32
			c0-11.67-29.04-2.47-29.04-20.19c0-7.33,6.3-12.78,17.72-12.78c5.79,0,12.09,1.62,15.84,4.17l-2.64,4.86
			c-3.92-2.73-8.6-3.83-13.2-3.83c-8.09,0-11.67,3.15-11.67,7.41c0,12.09,29.04,2.98,29.04,20.19c0,7.75-6.81,12.78-18.48,12.78
			C1384.61,2241.76,1377.45,2239.37,1373.79,2236.22z"/>
		<path class="st29" d="M1460.67,2220.8h-37.48c0.68,9.37,7.84,15.59,17.63,15.59c5.45,0,10.31-1.96,13.71-5.88l3.41,3.92
			c-4,4.77-10.22,7.32-17.29,7.32c-13.97,0-23.51-9.54-23.51-22.83c0-13.29,9.28-22.74,21.89-22.74s21.72,9.28,21.72,22.74
			C1460.75,2219.44,1460.67,2220.12,1460.67,2220.8z M1423.19,2216.29h31.77c-0.77-8.77-7.15-14.9-15.93-14.9
			C1430.34,2201.38,1423.96,2207.52,1423.19,2216.29z"/>
		<path class="st29" d="M1513.98,2178.13v63.2h-5.79v-8.86c-3.66,6.05-9.88,9.28-17.29,9.28c-12.78,0-22.32-9.28-22.32-22.83
			c0-13.54,9.54-22.74,22.32-22.74c7.15,0,13.29,3.07,17.03,8.86v-26.91H1513.98z M1508.02,2218.93c0-10.48-7.15-17.46-16.61-17.46
			c-9.54,0-16.69,6.98-16.69,17.46s7.15,17.46,16.69,17.46C1500.86,2236.39,1508.02,2229.41,1508.02,2218.93z"/>
		<path class="st29" d="M1594.04,2178.13v63.2h-5.79v-8.86c-3.66,6.05-9.88,9.28-17.29,9.28c-12.78,0-22.32-9.28-22.32-22.83
			c0-13.54,9.54-22.74,22.32-22.74c7.15,0,13.29,3.07,17.03,8.86v-26.91H1594.04z M1588.08,2218.93c0-10.48-7.15-17.46-16.61-17.46
			c-9.54,0-16.69,6.98-16.69,17.46s7.15,17.46,16.69,17.46C1580.92,2236.39,1588.08,2229.41,1588.08,2218.93z"/>
		<path class="st29" d="M1609.54,2182.39c0-2.3,1.96-4.26,4.43-4.26c2.47,0,4.43,1.87,4.43,4.17c0,2.47-1.87,4.43-4.43,4.43
			C1611.5,2186.73,1609.54,2184.77,1609.54,2182.39z M1610.9,2196.53h6.05v44.8h-6.05V2196.53z"/>
		<path class="st29" d="M1667.62,2213.56v27.77h-5.79v-6.98c-2.73,4.6-8.01,7.41-15.42,7.41c-10.14,0-16.35-5.28-16.35-13.03
			c0-6.9,4.43-12.69,17.29-12.69h14.22v-2.73c0-7.67-4.34-11.84-12.69-11.84c-5.79,0-11.24,2.04-14.91,5.28l-2.73-4.51
			c4.51-3.83,11.16-6.05,18.23-6.05C1661.06,2196.19,1667.62,2201.98,1667.62,2213.56z M1661.58,2227.87v-7.33h-14.05
			c-8.69,0-11.5,3.41-11.5,8.01c0,5.2,4.17,8.43,11.33,8.43C1654.17,2236.99,1659.19,2233.75,1661.58,2227.87z"/>
		<path class="st29" d="M1757.99,2215.35v25.98h-6.05v-25.38c0-9.45-4.77-14.31-12.86-14.31c-9.2,0-14.99,5.96-14.99,16.18v23.51
			h-6.05v-25.38c0-9.45-4.77-14.31-12.95-14.31c-9.11,0-14.99,5.96-14.99,16.18v23.51h-6.05v-44.8h5.79v8.18
			c3.15-5.37,8.94-8.52,16.44-8.52c7.41,0,13.2,3.15,15.93,9.46c3.24-5.79,9.62-9.46,17.72-9.46
			C1750.84,2196.19,1757.99,2202.49,1757.99,2215.35z"/>
		<path class="st29" d="M1837.96,2215.35v25.98h-6.05v-25.38c0-9.45-4.94-14.31-13.46-14.31c-9.62,0-15.67,5.96-15.67,16.18v23.51
			h-6.05v-44.8h5.79v8.26c3.24-5.45,9.28-8.6,17.03-8.6C1830.47,2196.19,1837.96,2202.49,1837.96,2215.35z"/>
		<path class="st29" d="M1850.05,2218.93c0-13.29,9.71-22.74,22.83-22.74c13.12,0,22.74,9.46,22.74,22.74
			c0,13.29-9.62,22.83-22.74,22.83C1859.76,2241.76,1850.05,2232.22,1850.05,2218.93z M1889.49,2218.93
			c0-10.48-7.07-17.46-16.61-17.46c-9.54,0-16.69,6.98-16.69,17.46s7.15,17.46,16.69,17.46
			C1882.42,2236.39,1889.49,2229.41,1889.49,2218.93z"/>
		<path class="st29" d="M1949.19,2215.35v25.98h-6.05v-25.38c0-9.45-4.94-14.31-13.46-14.31c-9.62,0-15.67,5.96-15.67,16.18v23.51
			h-6.05v-44.8h5.79v8.26c3.24-5.45,9.28-8.6,17.03-8.6C1941.69,2196.19,1949.19,2202.49,1949.19,2215.35z"/>
		<path class="st29" d="M2006,2196.53v44.8h-5.79v-8.18c-3.15,5.45-8.94,8.6-16.1,8.6c-11.41,0-18.91-6.39-18.91-19.25v-25.98h6.05
			v25.38c0,9.54,4.94,14.39,13.46,14.39c9.37,0,15.25-6.05,15.25-16.27v-23.51H2006z"/>
		<path class="st29" d="M2096.87,2215.35v25.98h-6.05v-25.38c0-9.45-4.77-14.31-12.86-14.31c-9.2,0-14.99,5.96-14.99,16.18v23.51
			h-6.05v-25.38c0-9.45-4.77-14.31-12.95-14.31c-9.11,0-14.99,5.96-14.99,16.18v23.51h-6.05v-44.8h5.79v8.18
			c3.15-5.37,8.94-8.52,16.44-8.52c7.41,0,13.2,3.15,15.93,9.46c3.24-5.79,9.62-9.46,17.72-9.46
			C2089.72,2196.19,2096.87,2202.49,2096.87,2215.35z"/>
		<path class="st29" d="M2169.43,2213.56v27.77h-5.79v-6.98c-2.73,4.6-8.01,7.41-15.42,7.41c-10.14,0-16.35-5.28-16.35-13.03
			c0-6.9,4.43-12.69,17.29-12.69h14.22v-2.73c0-7.67-4.34-11.84-12.69-11.84c-5.79,0-11.24,2.04-14.91,5.28l-2.73-4.51
			c4.51-3.83,11.16-6.05,18.23-6.05C2162.87,2196.19,2169.43,2201.98,2169.43,2213.56z M2163.38,2227.87v-7.33h-14.05
			c-8.69,0-11.5,3.41-11.5,8.01c0,5.2,4.17,8.43,11.33,8.43C2155.97,2236.99,2161,2233.75,2163.38,2227.87z"/>
		<path class="st29" d="M2226.92,2178.13v63.2h-5.79v-8.86c-3.66,6.05-9.88,9.28-17.29,9.28c-12.78,0-22.32-9.28-22.32-22.83
			c0-13.54,9.54-22.74,22.32-22.74c7.15,0,13.29,3.07,17.03,8.86v-26.91H2226.92z M2220.96,2218.93c0-10.48-7.15-17.46-16.61-17.46
			c-9.54,0-16.69,6.98-16.69,17.46s7.15,17.46,16.69,17.46C2213.8,2236.39,2220.96,2229.41,2220.96,2218.93z"/>
		<path class="st29" d="M2242.42,2182.39c0-2.3,1.96-4.26,4.43-4.26c2.47,0,4.43,1.87,4.43,4.17c0,2.47-1.87,4.43-4.43,4.43
			C2244.38,2186.73,2242.42,2184.77,2242.42,2182.39z M2243.78,2196.53h6.05v44.8h-6.05V2196.53z"/>
		<path class="st29" d="M2312.09,2218.93c0,13.63-9.54,22.83-22.32,22.83c-7.15,0-13.29-3.07-17.03-8.86v24.96h-6.05v-61.32h5.79
			v8.86c3.66-5.96,9.88-9.2,17.29-9.2C2302.55,2196.19,2312.09,2205.39,2312.09,2218.93z M2306.04,2218.93
			c0-10.39-7.24-17.46-16.69-17.46c-9.54,0-16.69,7.07-16.69,17.46c0,10.48,7.15,17.46,16.69,17.46
			C2298.8,2236.39,2306.04,2229.41,2306.04,2218.93z"/>
		<path class="st29" d="M2323.07,2182.39c0-2.3,1.96-4.26,4.43-4.26s4.43,1.87,4.43,4.17c0,2.47-1.87,4.43-4.43,4.43
			C2325.03,2186.73,2323.07,2184.77,2323.07,2182.39z M2324.44,2196.53h6.05v44.8h-6.05V2196.53z"/>
		<path class="st29" d="M2341.13,2236.22l2.73-4.77c3.58,2.81,9.62,5.03,15.93,5.03c8.52,0,12.01-2.89,12.01-7.32
			c0-11.67-29.04-2.47-29.04-20.19c0-7.33,6.3-12.78,17.72-12.78c5.79,0,12.09,1.62,15.84,4.17l-2.64,4.86
			c-3.92-2.73-8.6-3.83-13.2-3.83c-8.09,0-11.67,3.15-11.67,7.41c0,12.09,29.04,2.98,29.04,20.19c0,7.75-6.81,12.78-18.48,12.78
			C2351.95,2241.76,2344.79,2239.37,2341.13,2236.22z"/>
		<path class="st29" d="M2384.48,2218.93c0-13.37,9.71-22.74,23.08-22.74c7.58,0,13.97,2.98,17.55,8.86l-4.51,3.07
			c-3.07-4.51-7.84-6.64-13.03-6.64c-9.8,0-16.95,6.98-16.95,17.46c0,10.56,7.15,17.46,16.95,17.46c5.2,0,9.97-2.04,13.03-6.56
			l4.51,3.07c-3.58,5.79-9.97,8.86-17.55,8.86C2394.19,2241.76,2384.48,2232.3,2384.48,2218.93z"/>
		<path class="st29" d="M2435.58,2182.39c0-2.3,1.96-4.26,4.43-4.26c2.47,0,4.43,1.87,4.43,4.17c0,2.47-1.87,4.43-4.43,4.43
			C2437.54,2186.73,2435.58,2184.77,2435.58,2182.39z M2436.94,2196.53h6.05v44.8h-6.05V2196.53z"/>
		<path class="st29" d="M2501.08,2215.35v25.98h-6.05v-25.38c0-9.45-4.94-14.31-13.46-14.31c-9.62,0-15.67,5.96-15.67,16.18v23.51
			h-6.05v-44.8h5.79v8.26c3.24-5.45,9.28-8.6,17.03-8.6C2493.58,2196.19,2501.08,2202.49,2501.08,2215.35z"/>
		<path class="st29" d="M2559.16,2196.53v39.35c0,15.42-7.58,22.4-22.4,22.4c-8.18,0-16.18-2.47-20.87-6.9l3.07-4.6
			c4.26,3.83,10.73,6.13,17.63,6.13c11.33,0,16.52-5.2,16.52-16.27v-5.71c-3.75,5.71-10.14,8.69-17.46,8.69
			c-12.78,0-22.49-8.94-22.49-21.8c0-12.86,9.71-21.64,22.49-21.64c7.5,0,13.97,3.07,17.72,8.94v-8.6H2559.16z M2553.28,2217.82
			c0-9.71-7.15-16.35-17.03-16.35s-16.95,6.64-16.95,16.35s7.07,16.44,16.95,16.44S2553.28,2227.53,2553.28,2217.82z"/>
		<path class="st29" d="M2572.19,2237.07c0-2.64,2.04-4.6,4.51-4.6s4.6,1.96,4.6,4.6s-2.13,4.68-4.6,4.68
			S2572.19,2239.71,2572.19,2237.07z"/>
	</g>
	<path class="st28" d="M1415.94,2743.14H839.87c-60.94,0-110.35-49.4-110.35-110.35v0c0-60.94,49.4-110.35,110.35-110.35h576.07
		c60.94,0,110.35,49.4,110.35,110.35v0C1526.29,2693.73,1476.88,2743.14,1415.94,2743.14z"/>
	<g>
		<path class="st3" d="M874.12,2635.94h10.14v23c-6.02,4.86-14.43,7.34-22.59,7.34c-17.89,0-31.08-12.45-31.08-29.68
			c0-17.23,13.19-29.68,31.24-29.68c9.64,0,17.72,3.21,23.16,9.4l-6.76,6.59c-4.53-4.53-9.73-6.59-15.91-6.59
			c-12.28,0-20.94,8.33-20.94,20.28c0,11.71,8.66,20.28,20.86,20.28c4.12,0,8.16-0.82,11.87-2.97V2635.94z"/>
		<path class="st3" d="M941.64,2656.46v8.99h-43.28v-57.71h42.13v8.99h-31.41v15h27.86v8.82h-27.86v15.91H941.64z"/>
		<path class="st3" d="M965.3,2616.81h-19.13v-9.07h48.97v9.07h-19.13v48.64H965.3V2616.81z"/>
		<path class="st3" d="M1021.11,2659.35l3.71-8.33c4.62,3.71,11.95,6.35,19.04,6.35c8.99,0,12.78-3.22,12.78-7.5
			c0-12.45-34.29-4.29-34.29-25.72c0-9.32,7.42-17.23,23.25-17.23c6.92,0,14.18,1.81,19.21,5.11l-3.38,8.33
			c-5.19-3.05-10.88-4.53-15.91-4.53c-8.9,0-12.53,3.46-12.53,7.83c0,12.28,34.21,4.29,34.21,25.47c0,9.23-7.5,17.15-23.33,17.15
			C1034.88,2666.27,1025.89,2663.47,1021.11,2659.35z"/>
		<path class="st3" d="M1088.71,2616.81h-19.13v-9.07h48.97v9.07h-19.12v48.64h-10.72V2616.81z"/>
		<path class="st3" d="M1161.17,2652.09h-28.85l-5.69,13.35h-11.05l25.97-57.71h10.55l26.05,57.71h-11.21L1161.17,2652.09z
			 M1157.63,2643.68l-10.88-25.23l-10.8,25.23H1157.63z"/>
		<path class="st3" d="M1223.25,2665.45l-11.79-16.9c-0.74,0.08-1.48,0.08-2.23,0.08h-13.03v16.82h-10.72v-57.71h23.74
			c15.17,0,24.57,7.75,24.57,20.53c0,8.74-4.45,15.17-12.28,18.22l13.27,18.96H1223.25z M1208.74,2616.81h-12.53v23h12.53
			c9.4,0,14.26-4.29,14.26-11.54C1223,2621.01,1218.14,2616.81,1208.74,2616.81z"/>
		<path class="st3" d="M1256.64,2616.81h-19.13v-9.07h48.97v9.07h-19.13v48.64h-10.72V2616.81z"/>
		<path class="st3" d="M1337.84,2656.46v8.99h-43.28v-57.71h42.13v8.99h-31.41v15h27.86v8.82h-27.86v15.91H1337.84z"/>
		<path class="st3" d="M1349.79,2607.74h25.22c18.71,0,31.49,11.54,31.49,28.85c0,17.31-12.78,28.85-31.49,28.85h-25.22V2607.74z
			 M1374.53,2656.38c12.86,0,21.19-7.83,21.19-19.79c0-11.95-8.33-19.78-21.19-19.78h-14.01v39.57H1374.53z"/>
	</g>
	<g>
		<path class="st19" d="M773.57,605.46c-43.92,0-79.65-35.73-79.65-79.65c0-43.92,35.73-79.65,79.65-79.65
			c43.92,0,79.65,35.73,79.65,79.65C853.21,569.73,817.48,605.46,773.57,605.46z M773.57,453.42c-39.92,0-72.4,32.48-72.4,72.4
			c0,39.92,32.48,72.4,72.4,72.4c39.92,0,72.4-32.48,72.4-72.4C845.96,485.89,813.49,453.42,773.57,453.42z"/>
	</g>
	<g>
		<path class="st19" d="M901.91,481.05h11.95v73.25h45.29v10.4h-57.24V481.05z"/>
		<path class="st19" d="M964.52,522.87c0-24.5,18.88-42.78,44.57-42.78c25.45,0,44.33,18.16,44.33,42.78
			c0,24.62-18.88,42.78-44.33,42.78C983.4,565.65,964.52,547.37,964.52,522.87z M1041.48,522.87c0-18.52-13.86-32.14-32.38-32.14
			c-18.76,0-32.62,13.62-32.62,32.14c0,18.52,13.86,32.14,32.62,32.14C1027.62,555.02,1041.48,541.39,1041.48,522.87z"/>
		<path class="st19" d="M1129.66,522.39h11.47v32.62c-8.36,7.05-19.96,10.63-31.67,10.63c-25.69,0-44.57-18.04-44.57-42.78
			c0-24.74,18.88-42.78,44.81-42.78c13.26,0,24.5,4.42,32.14,12.91l-7.41,7.41c-6.93-6.69-14.82-9.68-24.26-9.68
			c-19.36,0-33.34,13.5-33.34,32.14c0,18.4,13.98,32.14,33.22,32.14c7.05,0,13.62-1.55,19.6-5.38V522.39z"/>
		<path class="st19" d="M1157.14,522.87c0-24.5,18.88-42.78,44.57-42.78c25.45,0,44.33,18.16,44.33,42.78
			c0,24.62-18.88,42.78-44.33,42.78C1176.03,565.65,1157.14,547.37,1157.14,522.87z M1234.1,522.87c0-18.52-13.86-32.14-32.38-32.14
			c-18.76,0-32.62,13.62-32.62,32.14c0,18.52,13.86,32.14,32.62,32.14C1220.24,555.02,1234.1,541.39,1234.1,522.87z"/>
	</g>
	<g>
		
			<ellipse transform="matrix(0.3827 -0.9239 0.9239 0.3827 -129.1983 2991.6924)" class="st30" cx="2174.09" cy="1592.53" rx="34.78" ry="34.78"/>
	</g>
	<g>
		<path class="st30" d="M801.66,1263.5h-56.5v-33.3h153.87v33.3h-56.5v143.27h-40.86V1263.5z"/>
		<path class="st30" d="M1028.43,1368.94h-81.98l-15.64,37.84h-41.87l78.7-176.57H1008l78.95,176.57h-42.88L1028.43,1368.94z
			 M1015.57,1337.91l-28-67.6l-28,67.6H1015.57z"/>
		<path class="st30" d="M1091.49,1389.37l13.87-30.77c14.88,10.85,37.08,18.41,58.27,18.41c24.22,0,34.05-8.07,34.05-18.92
			c0-33.04-102.66-10.34-102.66-75.92c0-30.02,24.22-54.99,74.41-54.99c22.2,0,44.9,5.3,61.29,15.64l-12.61,31.03
			c-16.4-9.33-33.3-13.87-48.94-13.87c-24.21,0-33.55,9.08-33.55,20.18c0,32.54,102.66,10.09,102.66,74.92
			c0,29.51-24.47,54.74-74.92,54.74C1135.38,1409.8,1107.13,1401.48,1091.49,1389.37z"/>
		<path class="st30" d="M1330.62,1337.41l-23.71,24.72v44.65h-40.61V1230.2h40.61v82.48l78.2-82.48h45.4l-73.15,78.7l77.44,97.87
			h-47.67L1330.62,1337.41z"/>
		<path class="st30" d="M925.76,1621.35l-0.25-105.94l-51.96,87.28h-18.41l-51.71-85.01v103.67h-38.34v-176.57h33.8l66.09,109.73
			l65.08-109.73h33.55l0.5,176.57H925.76z"/>
		<path class="st30" d="M1122.26,1583.52h-81.98l-15.64,37.84h-41.87l78.7-176.57h40.36l78.95,176.57h-42.88L1122.26,1583.52z
			 M1109.4,1552.49l-28-67.6l-28,67.6H1109.4z"/>
		<path class="st30" d="M1361.14,1444.78v176.57h-33.55l-88.03-107.2v107.2h-40.36v-176.57h33.8l87.78,107.2v-107.2H1361.14z"/>
		<path class="st30" d="M1519.3,1583.52h-81.98l-15.64,37.84h-41.87l78.7-176.57h40.36l78.95,176.57h-42.88L1519.3,1583.52z
			 M1506.43,1552.49l-28-67.6l-28,67.6H1506.43z"/>
		<path class="st30" d="M1713.02,1530.29h37.33v71.64c-19.42,14.63-46.16,22.45-71.38,22.45c-55.49,0-96.36-38.09-96.36-91.31
			s40.86-91.31,97.11-91.31c31.03,0,56.75,10.59,73.91,30.52l-26.23,24.22c-12.86-13.62-27.75-19.93-45.66-19.93
			c-34.3,0-57.76,22.95-57.76,56.5c0,33.04,23.46,56.5,57.26,56.5c11.1,0,21.44-2.02,31.78-7.57V1530.29z"/>
		<path class="st30" d="M1924.91,1588.56v32.79h-136.72v-176.57h133.44v32.79h-92.83v38.34h81.98v31.78h-81.98v40.86H1924.91z"/>
		<path class="st30" d="M2069.95,1621.35l-34.05-49.19h-2.02h-35.57v49.19h-40.86v-176.57h76.43c47.17,0,76.68,24.47,76.68,64.07
			c0,26.49-13.37,45.91-36.32,55.75l39.6,56.75H2069.95z M2031.61,1478.08h-33.3v61.55h33.3c24.97,0,37.58-11.6,37.58-30.77
			C2069.19,1489.43,2056.58,1478.08,2031.61,1478.08z"/>
	</g>
</g>
</svg>
